<svg width="16" height="16" fill="none" xmlns="http://www.w3.org/2000/svg"><path d="M6.5 4.44v.845h9.491c-.013-.272-.041-.617-.143-.845" fill="#EC1C24"/><path d="M15.4 3.595H6.5v.845h9.348a2.63 2.63 0 00-.448-.845z" fill="#E6E7E8"/><path d="M13.5 2.75h-7v.845h8.9c-.417-.523-1.104-.845-1.9-.845z" fill="#EC1C24"/><path d="M15.991 5.285H6.5v.845H16v-.563c0-.05-.003-.1-.005-.149a3.12 3.12 0 01-.004-.133z" fill="#E6E7E8"/><path d="M6.5 6.975H16V6.13H6.5v.845z" fill="#EC1C24"/><path d="M6.5 7.82H16v-.845H6.5v.845z" fill="#E6E7E8"/><path d="M6.5 7.82H16v.845H6.5V7.82z" fill="#EC1C24"/><path d="M0 8.665v.845h16v-.845H0z" fill="#E6E7E8"/><path d="M0 9.51h16v.845H0V9.51z" fill="#EC1C24"/><path d="M.001 10.875s-.002.204.004.325h15.99c.007-.123.004-.325.004-.325l.001-.52H0l.001.52z" fill="#E6E7E8"/><path d="M2.5 13.75h11c.798 0 1.462-.29 1.915-.86H.582c.468.582 1.144.86 1.917.86" fill="#EC1C24"/><path d="M.584 12.89h14.832a2.48 2.48 0 00.435-.845H.151c.092.306.239.592.434.845" fill="#E6E7E8"/><path d="M.15 12.045h15.7a3.59 3.59 0 00.145-.845H.005c.025.289.048.507.145.845z" fill="#EC1C24"/><path d="M6.5 2.75h-4C.843 2.75 0 3.981 0 5.5v3.165h6.5V2.75z" fill="#176496"/><path d="M.7 4.244l.136-.104.135.104-.052-.168.135-.103H.887l-.052-.168-.051.168H.617l.136.103-.053.168zm.898 0l.136-.104.136.104-.053-.168.135-.103h-.166l-.052-.168-.052.168h-.167l.136.103-.053.168zm.992 0l.135-.104.136.104-.053-.168.135-.103h-.165l-.053-.168-.052.168h-.165l.134.103-.053.168zm.983 0l.136-.104.136.104-.052-.168.135-.103H3.76l-.051-.168-.051.168H3.49l.135.103-.053.168zm.987 0l.137-.104.136.104-.053-.168.135-.103h-.167l-.051-.168-.052.168h-.167l.135.103-.052.168zm-3.382.439l.136-.105.135.105-.052-.168.135-.103h-.167l-.052-.168-.05.168h-.168l.135.103-.052.168zm.899 0l.135-.105.136.105-.052-.168.135-.103h-.168l-.05-.168-.052.168h-.167l.135.103-.052.168zm.991 0l.135-.105.136.105-.052-.168.135-.103h-.167l-.052-.168-.051.168h-.167l.135.103-.052.168zm.983 0l.136-.105.136.105-.053-.168.136-.103h-.167l-.052-.168-.051.168h-.167l.135.103-.053.168zm.989 0l.135-.105.135.105-.053-.168.136-.103h-.167l-.052-.168-.05.168h-.168l.135.103-.051.168zm.557-.439l.136-.104.136.104-.053-.168.135-.103h-.166l-.053-.168-.051.168h-.168l.136.103-.052.168zM.686 7.755l.136-.103.136.103-.052-.167.135-.103-.167.001-.052-.168-.051.168H.604l.135.103-.053.166zm.899 0l.136-.103.136.103-.053-.167.135-.103-.167.001-.052-.168-.05.168h-.167l.135.103-.053.166zm.991 0l.136-.103.136.103-.053-.167.135-.103-.167.001-.051-.168-.052.168h-.166l.135.103-.053.166zm.984 0l.136-.103.136.103-.052-.167.134-.103-.167.001-.051-.168-.052.168h-.166l.135.103-.053.166zm.988 0l.136-.103.136.103-.052-.167.134-.103-.167.001-.052-.168-.051.168h-.167l.135.103-.052.166zm1.035 0l.136-.103.136.103-.053-.167.136-.103-.168.001-.051-.168-.051.168H5.5l.136.103-.053.166zM.7 5.122l.136-.105.135.105-.052-.168.135-.103H.887l-.052-.168-.051.169H.617l.136.102-.053.168zm.898 0l.136-.105.136.105-.053-.168.135-.103h-.166l-.052-.168-.052.169h-.167l.136.102-.053.168zm.992 0l.135-.105.136.105-.053-.168.135-.103h-.165l-.053-.168-.052.169h-.165l.134.102-.053.168zm.983 0l.136-.105.136.105-.052-.168.135-.103H3.76l-.051-.168-.051.169H3.49l.135.102-.053.168zm.987 0l.137-.105.136.105-.053-.168.135-.103h-.167l-.051-.168-.052.169h-.167l.135.102-.052.168zm-3.382.439l.136-.104.135.104-.052-.168.135-.103h-.167l-.052-.168-.05.168h-.168l.135.103-.052.168zm.899 0l.135-.104.136.104-.052-.168.135-.103h-.168l-.05-.168-.052.168h-.167l.135.103-.052.168zm.991 0l.135-.104.136.104-.052-.168.135-.103h-.167l-.052-.168-.051.168h-.167l.135.103-.052.168zm.983 0l.136-.104.136.104-.053-.168.136-.103h-.167l-.052-.168-.051.168h-.167l.135.103-.053.168zm.989 0l.135-.104.135.104-.053-.168.136-.103h-.167l-.052-.168-.05.168h-.168l.135.103-.051.168zm.557-.439l.136-.105.136.105-.053-.168.135-.103h-.166l-.053-.168-.051.169h-.168l.136.102-.052.168zM.686 6l.136-.104L.958 6l-.053-.168.136-.103-.167.001-.052-.169-.051.169H.604l.135.102L.686 6zm.899 0l.136-.104.136.104-.053-.168.135-.103-.167.001-.052-.169-.05.169h-.167l.134.102L1.585 6zm.991 0l.136-.104.136.104-.053-.168.135-.103-.167.001-.051-.169-.052.169h-.166l.135.102L2.576 6zm.984 0l.136-.104.136.104-.052-.168.134-.103-.167.001-.051-.169-.052.169h-.166l.135.102L3.56 6zm.988 0l.136-.104.135.104-.051-.168.134-.103-.167.001-.052-.169-.051.169h-.167l.135.102L4.548 6zm-3.384.439l.136-.104.136.104-.052-.167.134-.103h-.167L1.3 6l-.051.169h-.167l.135.104-.053.166zm.899 0l.136-.104.136.104-.053-.167.135-.103H2.25L2.199 6l-.052.169H1.98l.136.104-.053.166zm.992 0l.135-.104.136.104-.053-.167.136-.103h-.167L3.19 6l-.051.169h-.167l.135.104-.052.166zm.983 0l.136-.104.136.104-.052-.167.134-.103h-.166L4.174 6l-.051.169h-.167l.135.104-.053.166zm.987 0l.137-.104.136.104-.053-.167.135-.103h-.166L5.162 6l-.052.169h-.167l.135.104-.053.166zM5.583 6l.136-.104.136.104-.053-.168.136-.103-.168.001-.051-.169-.051.169H5.5l.136.102L5.583 6zm-4.897.878l.136-.103.136.103-.053-.168.136-.103-.167.001-.052-.169-.051.169H.604l.135.102-.053.168zm.899 0l.136-.103.136.103-.053-.168.135-.103-.167.001-.052-.169-.05.169h-.167l.134.102-.052.168zm.991 0l.136-.103.136.103-.053-.168.135-.103-.167.001-.051-.169-.052.169h-.166l.135.102-.053.168zm.984 0l.136-.103.136.103-.052-.168.134-.103-.167.001-.051-.169-.052.169h-.166l.135.102-.053.168zm.988 0l.136-.103.135.103-.051-.168.134-.103-.167.001-.052-.169-.051.169h-.167l.135.102-.052.168zm-3.384.44l.136-.105.136.105-.052-.168.134-.102h-.167l-.051-.17-.051.17h-.167l.135.102-.053.168zm.899 0l.136-.105.136.105-.053-.168.135-.102H2.25l-.051-.17-.052.17H1.98l.136.102-.053.168zm.992 0l.135-.105.136.105-.053-.168.136-.102h-.167l-.052-.17-.051.17h-.167l.135.102-.052.168zm.983 0l.136-.105.136.105-.052-.168.134-.102h-.166l-.052-.17-.051.17h-.167l.135.102-.053.168zm.987 0l.137-.105.136.105-.053-.168.135-.102h-.166l-.052-.17-.052.17h-.167l.135.102-.053.168zm.558-.44l.136-.103.136.103-.053-.168.136-.103-.168.001-.051-.169-.051.169H5.5l.136.102-.053.168z" fill="#fff"/></svg>