<svg width="221" height="515" fill="none" xmlns="http://www.w3.org/2000/svg"><g filter="url(#filter0_d)"><path d="M195.007 372.535l-1.26-4.035 1.276-7.214 8.56-3.266 1.596-2.962 5.646-1.298 8.837-7.222 6.116-1.405 5.645-1.298 5.646-1.298 7.056-1.622 8.435-3.669 8.09-3.157.043 8.209 4.369 5.916-3.57 4.714 7.376 2.63-2.503 4.901 6.402 1.123-1.402 6.811 5.931 1.232c-.636 1.732-1.925 5.46-1.999 6.515l.174.356c.92.877 5.244 1.527 7.547 1.762l-3.536 6.436-3.536 6.436-3.856 2.184-.37 5.276c-.724.871-1.716 2.08-2.719 3.334-1.654 2.069-3.339 4.259-3.911 5.253l-.165.328c-.249.63-1.979 2.154-3.917 3.712a126.963 126.963 0 01-4.45 3.402l-4.919-.608-4.259-.527-4.589-.567-4.59-.567-12.114-3.271-7.99-3.787-7.99-3.786 1.31-5.492-6.183-2.039 2.377-5.304-5.403-4.382 2.755-4.093-3.969-.602-3.97-.601 2.159-4.39-4.176-2.068z" fill="#fff" fill-opacity=".01"/><path d="M193.747 368.5l1.26 4.035m-1.26-4.035l1.276-7.214m-1.276 7.214l37.593-16.86m-37.593 16.86l40.911-6.237m-40.911 6.237l28.631-1.966m-28.631 1.966l9.836-10.48m-9.836 10.48l17.033 2.069m-15.773 1.966l4.176 2.068m-4.176-2.068l36.333-20.895m-36.333 20.895l39.651-10.272m-39.651 10.272l8.576-14.515m-4.4 16.583l-2.159 4.39m2.159-4.39l32.157-22.963m-32.157 22.963l4.4-16.583m-4.4 16.583l11.642-20.843m-11.642 20.843l20.479-28.065m-20.479 28.065l26.595-29.47m-26.595 29.47l5.799-2.017m-5.799 2.017l2.89 2.796m-2.89-2.796l1.811 4.991m-1.811-4.991l9.79 4.304m-11.949.086l10.848-3.611m-10.848 3.611l3.97.601m-3.97-.601l7.958-6.407m-.019 7.61l-2.755 4.093m2.755-4.093l.019-7.61m-.019 7.61l-2.89-2.797m2.89 2.797l2.909-4.814m-2.909 4.814l4.01-1.289m-4.01 1.289l-3.969-.602m3.969.602l2.648 8.475m-2.648-8.475l9.069 6.432m-11.824-2.339l5.403 4.382m-5.403-4.382l22.459-10.427m-22.459 10.427l19.277-.031m-19.277.031l30.17-3.496m-30.17 3.496l6.765-5.382m-6.765 5.382l11.824 2.339m-6.421 2.043l-2.377 5.304m2.377-5.304l5.314-11.035m-5.314 11.035l28.053-18.344m-28.053 18.344l6.421-2.043m-6.421 2.043l25.291.659m-25.291-.659l19.776 2.375m-19.776-2.375l13.457 4.341m-13.457-4.341l3.806 7.343m-3.806-7.343l8.631 5.842m-11.008-.538l6.183 2.039m-6.183-2.039l22.153-2.929m-22.153 2.929l8.798-7.347m-8.798 7.347l16.251-9.717m-16.251 9.717l15.834-.963m-15.834.963l27.144-13.182m-27.144 13.182l11.008.538m-4.825 1.501l-1.31 5.492m1.31-5.492l2.615-9.386m-2.615 9.386l10.068-11.756m-10.068 11.756l15.515-13.489m-15.515 13.489l4.825-1.501m-4.825 1.501l14.67 13.065m-15.98-7.573c5.73 1.354 17.4 4.272 18.235 5.108m-18.235-5.108l6.135-6.993m-6.135 6.993l10.961-8.494m-10.961 8.494c5.492-3.404 16.637-10.26 17.28-10.46m-17.28 10.46l22.795-12.176m-22.795 12.176l27.965-13.785m-27.965 13.785l20.491 2.643m-20.491-2.643l34.755-4.961m-34.755 4.961l44.004-9.25m-44.004 9.25l20.282-.851m-20.282.851l14.303-4.588m-14.303 4.588l7.99 3.786m7.99 3.787l12.114 3.271m-12.114-3.271l2.255-2.465m-2.255 2.465l-9.845-14.566m9.845 14.566l-5.019-16.067m5.019 16.067l1.3-18.033m-1.3 18.033l4.151-12.03m-4.151 12.03l-7.99-3.787m20.104 7.058l6.661-15.805m-6.661 15.805l-4.929-2.868m4.929 2.868l4.253-2.275m-4.253 2.275l15.91-20.094m-15.91 20.094l4.59.567m-4.59-.567l13.432-1.141m4.925 3.41l6.983-20.424m-6.983 20.424l1.083-11.063m-1.083 11.063l-14.104-4.544m14.104 4.544l-4.925-3.41m4.925 3.41c1.166-.85 2.876-2.137 4.45-3.402m-4.45 3.402l-4.571-8.784m4.571 8.784l-4.919-.608m13.286-6.506l-13.292 3.704m13.292-3.704l-7.284-3.949m7.284 3.949c-.249.63-1.979 2.154-3.917 3.712m3.917-3.712c-.131-1.512-.32-3.608-.518-5.693m.518 5.693l-22.471 2.57m22.471-2.57l7.165-14.191m-7.165 14.191c.293-.743 2.205-3.24 4.076-5.581m-4.076 5.581l-12.938-1.67m19.733-7.245l.37-5.276m-.37 5.276l-8.179-4.395m8.179 4.395l-7.039 2.483m7.039-2.483c-.724.871-1.716 2.08-2.719 3.334m3.089-8.61l3.856-2.184m-3.856 2.184l-8.549.881m8.549-.881l-2.65-8.481m2.65 8.481l4.139-11.768m-4.139 11.768l-7.409 7.759m11.265-9.943l-12.405 3.065m12.405-3.065l.283-9.584m-.283 9.584l-6.506-6.297m6.506 6.297l3.536-6.436m3.536-6.436c-2.604-.266-7.795-1.063-7.721-2.118m7.721 2.118l-19.477 15.937m19.477-15.937l-34.835 6.318m34.835-6.318l-15.534.313m15.534-.313l-6.789 3.288m6.789-3.288l-3.536 6.436m-4.185-8.554c.074-1.055 1.363-4.783 1.999-6.515m-1.999 6.515l-7.813 2.431m7.813-2.431l-3.932-7.747m3.932 7.747l-14.482-4.392m14.482 4.392l-22.05-1.985m22.05 1.985l-27.123-.371m27.123.371l-32.197 1.243m32.197-1.243l-37.558 2.948m37.558-2.948l-9.207-6.069m9.207 6.069l-5.857 8.693m5.857-8.693l-13.521 12.405m13.521-12.405l.932 5.406m-.932-5.406l4.185 8.554m-2.186-15.069l-5.931-1.232m5.931 1.232l-16.481 2.123m16.481-2.123l-24.049 4.53m24.049-4.53l-17.624 11.376m17.624-11.376l-9.812 8.946m3.881-10.178l1.402-6.811m-1.402 6.811l-5-7.934m5 7.934l-11.759-5.762m11.759 5.762l-35.701 1.934m35.701-1.934l-18.517-3.589m18.517 3.589l-26.536-1.012m26.536 1.012l-3.881 10.178m3.881-10.178l-17.361 14.372m17.361-14.372l-11.693 12.608m11.693-12.608l-5.275 1.678m6.677-8.489l-6.402-1.123m6.402 1.123l-11.952 10.166m11.952-10.166l-13.161 1.049m13.161-1.049l-19.919 3.222m19.919-3.222l-19.52 12.573m13.118-13.696l2.503-4.901m-2.503 4.901l-6.759 2.172m6.759-2.172l-4.873-7.531m4.873 7.531l-5.816-2.679m5.816 2.679l-5.55 11.289m5.55-11.289l-18.191 15.31m20.694-20.211l-7.376-2.63m7.376 2.63l-9.262 7.073m9.262-7.073l-8.319 2.222m8.319-2.222l-10.73-1.463m10.73 1.463l-20.793 2.037m13.417-4.667l3.57-4.714m-3.57 4.714l-30.152-1.288m30.152 1.288l-17.367-12.013m17.367 12.013l-8.932-15.682m8.932 15.682l-.943 4.852m.943-4.852l-3.354 1.167m6.924-5.881l-4.369-5.916m4.369 5.916l-33.722 3.426m33.722-3.426l-12.502-10.968m12.502 10.968l-16.987 9.381m12.618-15.297l-.043-8.209m.043 8.209l-29.353 9.342m29.353-9.342l-26.035 19.965m26.035-19.965l-5.91 12.964m5.867-21.173l-8.09 3.157m8.09-3.157l-29.31 17.551m29.31-17.551l-25.992 28.174m25.992-28.174l-12.575 23.506m4.485-20.349l-8.435 3.669m8.435-3.669l-21.22 14.394m21.22-14.394l-17.902 25.017m17.902-25.017l-4.485 20.349m-3.95-16.68l-7.056 1.622m7.056-1.622L231.34 351.64m12.785-10.725l-9.467 21.348m9.467-21.348l-21.747 25.619m21.747-25.619l3.95 16.68m-3.95-16.68l-2.759 19.014m2.759-19.014l10.658 14.347m-10.658-14.347l-33.3 12.845m26.244-11.223l-5.729 9.103m5.729-9.103l-2.411 19.726m2.411-19.726l-5.646 1.298m-5.645 1.298l-6.116 1.405m6.116-1.405l5.562 6.507m-5.562-6.507l-3.4 21.401m3.4-21.401l-14.998 25.436m14.998-25.436l22.297 12.462m-22.297-12.462l5.645-1.298m-11.761 2.703l-8.837 7.222m8.837-7.222l11.678 5.102m-11.678-5.102l14.996 15.725m-14.996-15.725l-8.882 24.031m.045-16.809l-5.646 1.298m5.646-1.298l20.515-2.12m-20.515 2.12l23.833 8.503m-23.833-8.503l11.553 12.774m-11.553-12.774l-.045 16.809m-5.601-15.511l-1.596 2.962m1.596-2.962l29.479 7.205m-29.479-7.205l17.199 11.476m-17.199-11.476l5.601 15.511m-7.197-12.549l-8.56 3.266m8.56-3.266l27.757-6.38m-27.757 6.38l31.075 4.243m-31.075-4.243l18.795 8.514m-18.795-8.514l7.197 12.549m-15.757-9.283l39.635.977m-39.635-.977l27.355 5.248m-27.355-5.248l15.757 9.283m20.56-18.929l-8.962 14.894m8.962-14.894l3.318 10.623m-3.318-10.623l16.735 5.955m-16.735-5.955l10.026 8.289m-10.026-8.289l.083-7.805m-9.045 22.699l6.14-2.135m-6.14 2.135l1.145 3.664m-1.145-3.664l-5.799 2.018m5.799-2.018l-5.501 9.832m5.501-9.832l9.62 4.971m-9.62-4.971l16.952 2.615m-16.952-2.615l4.787 4.428m7.493-8.699l4.672 6.886m-4.672-6.886l-6.14 2.136m6.14-2.136l-2.498 2.899m2.498-2.899l3.354-1.167m-3.354 1.167l11.91-.125m-11.91.125l5.69 2.276m-29.568 6.03l-5.798 2.017m5.798-2.017l-2.908 4.813m2.908-4.813l6.097 5.797m-6.097-5.797l2.145 7.067m-2.145-7.067l5.799-2.017m31.496-10.957l6.708-2.333m-6.708 2.333l4.773 7.209m-4.773-7.209l5.74 2.438m-5.74-2.438l-1.507 4.543m1.507-4.543l-3.354 1.167m-3.355 1.167l-9.943-16.094m9.943 16.094l-1.018 4.61m1.018-4.61l3.463 7.452m-3.463-7.452l-3.354 1.167m3.354-1.167l5.202 2.209m-5.202-2.209l12.449.104m-12.449-.104l3.355-1.167m10.062-3.5l4.823 7.369m-4.823-7.369l-.968 4.771m.968-4.771l-9.954 12.119m9.954-12.119l5.766 2.518m-5.766-2.518l3.355-1.167m-53.156 18.491l-2.909 4.813m2.909-4.813l2.89 2.796m-2.89-2.796l11.895 3.78m-11.895-3.78l19.685 1.276m-22.594 3.537l-1.079 2.195m6.878-4.212l1.101 3.525m-1.101-3.525l5.053 2.254m-3.952 1.271l4.865-9.041m-4.865 9.041l3.952-1.271m-3.952 1.271l5.059 7.721m-.194-16.762l3.039 6.5m-3.039-6.5l10.829 3.996m-10.829-3.996l9.685.332m-9.685-.332l-.913 7.77m3.952-1.27l-3.952 1.27m3.952-1.27l7.79-2.504m-7.79 2.504l-.298-7.814m.298 7.814l6.646-6.168m-6.646 6.168c-.699 3.144-2.246 9.599-2.845 10.262m2.845-10.262l10.055 6.159m-10.055-6.159l20.862 2.722m-24.814-1.452l8.56 6.622m-8.56-6.622l19.453 3.157m-19.453-3.157l1.107 8.992m10.635-12.766l-1.144-3.664m1.144 3.664l2.498-2.9m-2.498 2.9l3.666-1.178m-3.666 1.178l3.851-9.463m-3.851 9.463l-8.088-5.31m8.088 5.31l-3.182 10.396m3.182-10.396l7.711 6.931m-7.711-6.931l18.433 3.521m-18.433-3.521l28.58.293m-28.58-.293l-10.635 12.766m10.635-12.766l2.265 8.663m-2.265-8.663l13.072 5.226m1.591-9.939l5.499-1.768m-5.499 1.768l1.018-4.61m-1.018 4.61l-3.666 1.178m3.666-1.178l-7.17-3.987m7.17 3.987l-1.318-8.053m1.318 8.053l7.238-7.011m-7.238 7.011l-1.591 9.939m1.591-9.939l8.844 6.62m4.674-10.965l6.758-2.173m-6.758 2.173l7.701-7.024m-7.701 7.024l.967-4.771m-.967 4.771l-8.019 2.577m8.019-2.577l-14.836-3.708m14.836 3.708l-12.5-.265m12.5.265l-6.106-2.593m6.106 2.593l-8.127-6.042m8.127 6.042l.399 9.351m-.399-9.351l7.967 6.944m-7.967-6.944l-20.47 15.989m20.47-15.989l-15.109 14.284m15.109-14.284l-4.674 10.965m11.432-13.138l.943-4.851m-.943 4.851l-5.791-2.598m5.791 2.598l-14.885-3.869m14.885 3.869l-13.038-.493m13.038.493l-1.468-8.536m1.468 8.536l1.209 9.117m-1.209-9.117l-6.359 11.524m6.359-11.524L243.1 377.383m16.506-14.752l-11.432 13.138m12.375-17.989c-.423.097-4.665 1.542-6.734 2.253m0 0l-8.986 7.348m8.986-7.348l-9.094-1.271m9.094 1.271l4.323-5.938m-13.309 13.286l-4.481-2.842m4.481 2.842l-12.669-2.219m12.669 2.219l-6.817-6.285m6.817 6.285l1.739-5.243m-1.739 5.243l-.108-8.619m.108 8.619l-1.729 10.002m1.729-10.002l8.418 6.774m-8.418-6.774l-23.344 16.877m23.344-16.877l-7.09 11.707m7.09-11.707l3.345 8.388m-7.826-11.23l-8.35 6.966m8.35-6.966l-11.83-.14m11.83.14l6.22-2.401m-14.57 9.367l-2.336-3.443m2.336 3.443l-3.665 1.179m3.665-1.179l3.666-1.178m-3.666 1.178l.162-6.343m-.162 6.343l5.741 7.583m-8.077-11.026l-1.144-3.663m1.144 3.663l-2.497 2.9m2.497-2.9l2.498-2.9m-3.642-.763l-4.995 5.799m4.995-5.799l3.642.763m-8.637 5.036l3.642.764m0 0l1.168 1.722m0 0l3.827-7.522m-3.827 7.522l-1.401 9.841m1.401-9.841l9.406 6.404m-5.579-13.926l3.504 5.165m0 0l-19.085-1.775m19.085 1.775l-3.286 10.466m3.286-10.466l7.436 7.056m-7.436-7.056l25.151 1.421m-25.151-1.421l12.51 5.442m-1.606-13.631l.174.073m-2.021-3.449l2.021 3.449m-25.257 22.047l-7.453 2.37m7.453-2.37l5.447-1.733m-5.447 1.733l-.417 8.754m.417-8.754l5.902 6.788m-5.902-6.788l21.642 1.891m-21.642-1.891l16.587 3.463m-5.694-6.928l-5.446 1.732m5.446-1.732l5.361-1.705m-5.361 1.705l.524 8.537m-.524-8.537l5.694 6.928m-5.694-6.928l35.106-2.222m-35.106 2.222l27.294.208m-27.294-.208l15.805 3.783m-15.805-3.783l10.749 5.356m-10.749-5.356l-4.991 10.253m15.713-13.663l-5.361 1.705m5.361-1.705l5.074-1.614m-5.074 1.614l.027 8.766m-.027-8.766l5.083 7.193m-5.083-7.193l-10.198 11.947m20.345-15.175l7.568-2.407m-7.568 2.407l-5.073 1.614m5.073-1.614l.757 8.61m-.757-8.61l6.425 6.846m-6.425-6.846l-10.12 11.994m10.12-11.994l-5.064 10.421m12.632-12.828l-1.143 9.253m1.143-9.253l6.669 6.823m-6.669-6.823l-12.632 12.828m12.632-12.828l-6.811 11.017m6.811-11.017l5.275-1.677m-52.058 16.557l7.036 6.384m-7.036-6.384l24.04 1.093m-24.04-1.093l18.87 2.702m-18.87-2.702l2.21 7.885m10.69-11.988l.455 8.521m-.455-8.521l5.97 6.805m-5.97-6.805l27.072.24m-27.072-.24l21.251 2.051m-21.251-2.051l-5.864 10.487m16.671-13.924l.333 8.633m-.333-8.633l5.388 7.061m-5.388-7.061l29.745-.517m-29.745.517l21.933 1.913m-21.933-1.913l16.265 3.677m-16.265-3.677l-10.352 11.958m20.787-15.277l.009 8.807m-.009-8.807l5.83 6.996m-5.83-6.996l19.31 2.802m-19.31-2.802l-10.102 11.952m-17.004 5.291l6.319-1.966m-6.319 1.966l-4.826 1.501m4.826-1.501l7.274 13.602m-7.274-13.602l9.17 4.037m-9.17-4.037l14.248 1.826m-14.248-1.826l3.342 3.906m-3.342-3.906l-2.971 12.28m9.29-14.246l5.515-1.716m-5.515 1.716l10.343 9.301m-10.343-9.301l17.475 5.499m-17.475-5.499l2.851 6.003m-2.851-6.003l8.155-.123m-8.155.123l-2.977 5.872m8.492-7.588l5.17-1.609m-5.17 1.609l10.604 1.463m-10.604-1.463l28.874-.785m-28.874.785l-2.664 7.719m2.664-7.719l2.414 5.508m-2.414-5.508l2.64 1.593m2.53-3.202l5.055-1.572m-5.055 1.572l16.039 4.535m-16.039-4.535l23.704.824m-23.704-.824l6.79 8.824m-6.79-8.824l-.342 12.626m.342-12.626l-2.53 3.202m7.585-4.774l5.056-1.573m-5.056 1.573l18.649 2.396m-18.649-2.396l26.313-1.316m-26.313 1.316c.043 1.281.18 4.004.379 4.644m4.677-6.217l5.821-1.811m-5.821 1.811l21.257.257m-21.257-.257l13.593 3.969m-13.593-3.969l5.928 7.68m-5.928-7.68l-3.321 11.969m3.321-11.969l-4.677 6.217m4.677-6.217l1.304 9.825m4.517-11.636l5.668-1.764m-5.668 1.764l15.436 2.068m-15.436-2.068l7.772 5.78m-7.772-5.78l-10.498 8.028m10.498-8.028c.196 2.838.493 8.71.107 9.491m-.107-9.491l22.225-1.219m-22.225 1.219l-4.517 11.636m10.185-13.4l7.812-2.43m-7.812 2.43l6.418-10.93m-6.418 10.93l9.768 3.832m-9.768-3.832l2.104 7.544m-2.104-7.544l-5.561 11.255m5.561-11.255l16.557.545m-8.745-2.975l-1.394-8.5m1.394 8.5l1.956 6.262m-1.956-6.262c-1.997 2.987-5.934 9.163-5.708 9.974m5.708-9.974l8.745 2.975m-59.987 12.967l14.356 9.636m-14.356-9.636l12.1 12.101m-12.1-12.101l1.855 10.779m12.501-1.143l16.109 3.651m-16.109-3.651l-2.256 2.465m2.256-2.465l7.132-3.802m-7.132 3.802l12.908-13.356m-12.908 13.356l-.36-7.1m.36 7.1l-6.188-7.231m6.188 7.231l-12.501 1.143m28.61 2.508l-4.253 2.275m4.253-2.275l9.169-9.894m-9.169 9.894l-1.845-11.255m1.845 11.255l16.834-13.605M246.707 407.8l4.926 3.409m-4.926-3.409a597.204 597.204 0 005.28-1.965m-5.28 1.965l14.301 3.417m-14.301-3.417l.673 5.684m-2.518-16.939l12.779 7.011m-12.779-7.011l-7.132 3.802m7.132-3.802l18.679-2.35m-18.679 2.35l-1.356-5.752m1.356 5.752l-9.32-5.622m9.32 5.622l4.625-2.144m8.154 9.155l-19.911-3.209m19.911 3.209l-1.765-5.65m1.765 5.65l5.9-9.361m-5.9 9.361l-6.008 7.653m6.008-7.653l3.367 7.661m-3.367-7.661l7.04-2.483m-7.04 2.483c-.304.224-2.887 1.233-5.654 2.279m5.654-2.279l11.36-1.632m-14.89-9.668l1.765 5.65m-1.765-5.65l9.43 1.939m-9.43-1.939l7.665-3.711m-7.665 3.711l-10.605-1.463m10.605 1.463l-4.624 2.145m-21.145 12.213l4.93 2.868m-4.93-2.868l-10.245-1.322m15.175 4.19l4.458-9.135m0 0l4.724 9.728m-4.724-9.728l18.146-2.441m-18.146 2.441l5.776-9.554m-5.776 9.554l-7.492-3.298m7.492 3.298l-7.341.308m7.341-.308l-2.414-5.509m7.138 15.237l4.926 3.409m-4.926-3.409l9.179 1.134m-9.179-1.134c.081.846.261 2.6.337 2.842m13.085-15.011l7.665-3.711m-7.665 3.711l8.805 3.167m-8.805-3.167l-3.889 7.929m17.453-21.002l-5.899 9.362m5.899-9.362l-7.664 3.712m7.664-3.712l6.789-3.287m-6.789 3.287l10.042-.139m-15.941 9.501l-1.765-5.65m1.765 5.65c.159.511.527 4.047.866 7.617m-.866-7.617l5.46 7.729m-7.225-13.379l-18.27 2.248m0 0l-13.268 6.256m13.268-6.256l-13.117 9.862m13.117-9.862l-19.096 6.125m19.096-6.125l5.981 3.608m-19.249 2.648l5.304-6.126m-5.304 6.126l-5.828-.131m10.906-2.08l.226-3.915m-.226 3.915l14.171-.437m-25.077 2.517l-6.313 8.374m33.536 5.917l13.048-10.136m-13.048 10.136l-4.253 2.275m4.253-2.275l.354-5.374m-.354 5.374l.006 2.802m-.006-2.802l-8.842 1.708m8.842-1.708l9.375.008m0 0l3.399-9.405m-3.399 9.405l-9.021-5.382m12.694-4.762l4.32.851m-21.621 11.56l4.259.527m-4.259-.527l-4.589-.567m4.589.567l4.607-7.649" stroke="#fff" stroke-width=".5"/></g><path d="M169.417 200.207l5.83-3.935c-1.495.055-3.545-.05-7.435.411m1.605 3.524l-1.605-3.524m1.605 3.524l-6.435-2.846m6.435 2.846c-.201-.645-4.727-.067-6.964.304m5.359-3.828l-4.83.678m4.83-.678l-5.359 3.828m.529-3.15l-.529 3.15m.529-3.15c-1.327.213-2.601.438-3.824.673m3.295 2.477l-3.295-2.477m3.295 2.477c-.575.104-1.215.224-1.905.359m-20.299 6.042l-1.823-2.609m1.823 2.609c1.239-.875 3.529-1.773 6.241-2.619m-6.241 2.619l4.468-5.069m-4.468 5.069a100.982 100.982 0 00-4.147 2.867m4.147-2.867l-5.341-.956m3.518-1.653a87.2 87.2 0 016.291-2.46m-6.291 2.46l8.064-.01m-8.064.01l-2.324 5.476m2.324-5.476c-.621.086-1.855.653-3.518 1.653m24.25-7.922l-.981 3.316m.981-3.316c-.647.125-1.279.252-1.898.381m.917 2.935c.836-.175 1.632-.336 2.371-.48m-2.371.48c-1.051.221-2.164.464-3.303.726m.497-3.25l5.177 2.044m-5.177-2.044c.615-.139 1.244-.277 1.889-.411m-1.889.411c-.642.145-1.268.293-1.878.442m1.381 2.808l2.386-3.661m-2.386 3.661l-3.25-2.332m3.25 2.332c-.774.178-1.56.365-2.347.558m-.903-2.89c.605-.16 1.228-.319 1.869-.476m-1.869.476c-.639.169-1.258.339-1.857.509m3.726-.985l-.966 3.366m0 0l-5.984-1.402m5.984 1.402a105.728 105.728 0 00-6.037 1.659m.053-3.061a95.191 95.191 0 013.224-.979m-3.224.979c-.636.206-1.245.41-1.826.611m5.05-1.59l-3.277 4.04m0 0l-1.773-2.45m-32.443 31.222c.562-1.088 1.704-2.345 2.466-3.45m-2.466 3.45l.829-7.37m-.829 7.37l-3.597-1.317m3.597 1.317c-.744 1.437-1.8 2.868-2.559 4.38m2.559-4.38l-7.005 4.38m4.039 54.438l-4.021-2.104m4.021 2.104l-6.803-9.683m6.803 9.683a119.717 119.717 0 01-1.369-4.011m1.369 4.011l-.945 4.11m.945-4.11c.761 1.447 1.895 3.267 3.348 5.286m-3.348-5.286l1.905 8.645m-1.905-8.645l-2.767.636m29.502 25.227a44.365 44.365 0 01-3.633-1.946m3.633 1.946l-6.247-.294m6.247.294c.101.323.645 2.88.905 4.118m-.905-4.118a96.396 96.396 0 015.763 3.001m37.078 30.839c-.662-1.148-1.691-2.524-3.023-4.063m3.023 4.063l-7.721-2.118m7.721 2.118l-10.256-6.293m10.256 6.293l1.512 4.843m-1.512-4.843l-3.412 4.245m17.267 9.44l.756 2.422a51.016 51.016 0 01-2.935-1.323m2.179-1.099l-2.088-1.034m2.088 1.034l-2.179 1.099m-19.397-16.902c-.55-1.357-1.418-2.755-2.535-4.175m2.535 4.175l2.495 3.752m-2.495-3.752c.91 2.248 2.439 4.385 4.309 6.363m-76.206-88.026a41.85 41.85 0 01-.172-1.258m.172 1.258c.218 1.429.456 2.816.713 4.162m-.713-4.162l5.331 9.166m149.988-17.184c.005-.894-.373-2.497-.999-4.528m.999 4.528l1.47-3.365m-1.47 3.365l2.177 2.528m-2.177-2.528c-.005.979-.261 2.854-.637 5.337m.637-5.337l2.06 9.043m-4.727 35.69c-.597-2.486-.896-5.357-.986-8.424m.986 8.424l2.866-4.984m-2.866 4.984l4.285 3.773m-4.285-3.773a194.463 194.463 0 001.687 6.533m4.742 14.05a40.639 40.639 0 01-.981-2.37m.981 2.37l-.399-9.857m.399 9.857l3.201.561m-3.201-.561c.351 1.124.628 3.314.202 6.009m-2.662 7.1l-5.326 5.55c1.733-1.146 3.657-2.646 5.407-4.469m-.081-1.081a19.758 19.758 0 001.853-3.886m-1.853 3.886l.081 1.081m-.081-1.081l2.862-2.388m2.799-10.16a88.572 88.572 0 01-1.813-4.773m1.813 4.773l-2.999 5.448m2.999-5.448l-5.198-5.726m5.198 5.726a15.058 15.058 0 01-.422 4.856m-5.071-74.098a108.454 108.454 0 00-1.648-4.812m1.648 4.812l-2.469-1.163m2.469 1.163c.421 1.659.636 3.662.707 5.893m-120.66-52.536l-3.315-2.092m3.315 2.092c-.693.503-1.416 1.038-2.161 1.603m-1.437-3.874a49.01 49.01 0 012.404-1.552m-2.404 1.552l.283.179m-.283-.179a75.856 75.856 0 00-4.207 3.111m4.49-2.932l-2.377 6.466m0 0l-6.86.49m6.86-.49a124.252 124.252 0 00-3.592 3.03m3.592-3.03c1.209-.982 2.395-1.91 3.531-2.771m-10.391 3.261l-.647 6.149m.647-6.149a99.552 99.552 0 00-2.764 2.6m2.764-2.6a94.518 94.518 0 014.747-4.024m-5.394 10.173a104.24 104.24 0 013.915-3.609m-3.915 3.609l-2.117-3.549m2.117 3.549l-7.031 1.616m7.031-1.616c-1.747 1.698-3.418 3.456-4.921 5.232m4.921-5.232l-4.581-1.054m2.464-2.495l6.032-.06m-6.032.06c-.819.8-1.642 1.632-2.464 2.495m8.496-2.555l1.479-6.564m0 0l5.644.763m-18.069 11.026l2.11 3.616m-2.11-3.616c.812-.92 1.63-1.81 2.45-2.67m-2.45 2.67c-.379.429-.757.865-1.132 1.307m3.242 2.309l.34-6.286m-.34 6.286l-4.879-.329m4.879.329c-1.048 1.239-2.387 2.349-3.242 3.591m-1.637-3.92l1.637 3.92m-1.637-3.92a87.848 87.848 0 011.637-1.98m-1.637 1.98a82.282 82.282 0 00-4.426 6.053m6.063-2.133v-5.9m0 5.9l-6.063 2.133m0 0l1.038 5.697m-1.038-5.697a71.373 71.373 0 00-3.408 5.697m4.446 0h-4.446m4.446 0l-6.511 4.224m6.511-4.224c-.91 1.812-1.95 3.378-2.786 5.36m-1.66-5.36a62.476 62.476 0 00-2.065 4.224m2.065-4.224l1.66 5.36m-1.66-5.36v9.732m-2.065-5.508l3.725 1.136m-3.725-1.136l2.065 5.508m-2.065-5.508a57.37 57.37 0 00-1.414 3.496m1.414-3.496l.63 10.599m3.095-9.463a61.76 61.76 0 00-1.66 4.372m0 0l-4.686 1.7m4.686-1.7a52.73 52.73 0 00-1.435 5.091m1.435-5.091l-5.983 7.647m1.297-5.947a53.219 53.219 0 011.207-3.712m-1.207 3.712l1.207-3.712m-1.207 3.712a48.026 48.026 0 00-1.297 5.947m1.297-5.947l3.251 3.391m-2.044-7.103l2.044 7.103m0 0c-1.681.539-3.927 2.068-4.548 2.556m4.548-2.556c-2.101 2.509-5.034 7.945-5.042 8.293m5.042-8.293a51.161 51.161 0 00-.693 3.643m-3.855-1.087a44.188 44.188 0 00-.494 5.737m.494-5.737l3.855 1.087m-3.855-1.087l3.477 4.202m-3.971 1.535l3.971-1.535m-3.971 1.535a42.39 42.39 0 00.302 5.986m-.302-5.986l4.708 10.765m-4.708-10.765l3.752 3.274m.597-7.924a51.73 51.73 0 00-.378 3.115m0 0l-3.67 7.521m3.67-7.521a54.493 54.493 0 00-.219 4.809m-3.45 2.712l4.406 4.779m-4.406-4.779l3.45-2.712m.956 7.491c-.297-2.558-.96-5.207-.956-7.491m.956 7.491c-.612.141-1.575 4.087-2.351 5.995m2.351-5.995c.201 1.741.735 3.764 1.097 5.645m-2.053-13.136l-1.395 13.486m0 0a101.35 101.35 0 01-1.17-5.354m1.17 5.354l5.807 7.317m-5.807-7.317c.242.975.495 1.926.757 2.854m-.757-2.854l3.448-.35m-4.618-5.004l4.618 5.004m0 0l-2.092 5.229m2.092-5.229c.206 1.076.467 2.013.731 3.137m-2.823 2.092l4.451 2.438m-4.451-2.438a82.934 82.934 0 01-.599-2.025m.599 2.025a79.135 79.135 0 001.507 4.412m2.944-1.974c-.441-1.54-1.288-3.076-1.628-4.53m1.628 4.53l-1.669 5.141m1.669-5.141c.303 1.057.63 2.135.983 3.234m-6.033-7.697l3.422-.067m-.041 9.671a72.469 72.469 0 01-1.275-3.167m1.275 3.167c.407.944.826 1.857 1.254 2.74m-2.529-5.907l3.927 1.26m.424 8.121l4.293 1.176m-4.293-1.176a57.445 57.445 0 002.85 4.535m-2.85-4.535a62.844 62.844 0 01-1.822-3.474m6.115 4.65l-1.443 3.359m1.443-3.359a73.505 73.505 0 003.869 4.906m-3.869-4.906l3.588 9.556m-5.031-6.197l5.312 1.547m-5.312-1.547a55.241 55.241 0 001.744 2.368m3.568-.821l-.281 4.65m.281-4.65l-3.568.821m3.568-.821l2.231 7.142m-2.231-7.142a76.665 76.665 0 003.477 3.786m-3.758.864a53.175 53.175 0 01-3.287-3.829m3.287 3.829a53.464 53.464 0 002.512 2.492m-2.512-2.492l7.423 2.62m-7.423-2.62l3.758-.864m-1.246 3.356l4.911.128m-4.911-.128a57.492 57.492 0 003.141 2.71m1.77-2.582a71.886 71.886 0 01-3.665-3.484m3.665 3.484c.954.844 1.942 1.67 2.959 2.469m-2.959-2.469l4.143 6.833m-4.143-6.833l-.14 3.847m-3.525-7.331l1.895 6.066m0 0l4.729-.113m-4.729.113c.547.439 1.091.86 1.63 1.265m3.099-1.378l1.184 4.364m-1.184-4.364a54.983 54.983 0 005.784 3.986m-5.784-3.986l3.53 4.035m-2.346.329a80.925 80.925 0 01-4.283-2.986m4.283 2.986l4.6-.378m-4.6.378c.68.445 1.343.868 1.986 1.274m2.614-1.652l1.275 4.084m0 0c-.67-.411-1.298-.8-1.876-1.165-.644-.406-1.316-.826-2.013-1.267m3.889 2.432l-3.529-4.035m3.529 4.035c1.001.613 2.096 1.275 3.263 1.98m-3.263-1.98l8.121.863m-11.65-4.898l-.36 1.603m7.152 4.412l4.858-1.117m-4.858 1.117c.942.568 1.931 1.165 2.956 1.786m1.902-2.903l-1.902 2.903m1.902-2.903c1.115.627 2.232 1.281 3.349 1.958m-3.349-1.958l2.869 5.829m-4.771-2.926l5.251-.945m-5.251.945c1.525.925 3.128 1.903 4.771 2.926m.48-3.871l-.48 3.871m.48-3.871c1.459.884 2.916 1.807 4.36 2.758m-4.36-2.758l4.022 6.729m-4.502-2.858l4.84-1.113m-4.84 1.113c1.478.92 2.989 1.875 4.502 2.858m.338-3.971l-.338 3.971m.338-3.971c.803.529 1.603 1.067 2.397 1.612m-2.397-1.612l3.528 6.543m-3.866-2.572l2.735-2.359m-2.735 2.359c1.292.839 2.587 1.698 3.866 2.572m-3.866-2.572l6.427.253m-3.692-2.612l1.131 4.931m-1.131-4.931a159.55 159.55 0 013.692 2.612m-2.561 2.319c.942.643 1.876 1.295 2.795 1.952m-2.795-1.952l6.527.662m-6.527-.662l12.733 5.724m-10.172-8.043l.234 4.271m-.234-4.271c1.349.983 2.674 1.98 3.966 2.981m-3.732 1.29l3.732-1.29m-3.732 1.29c.761.545 1.511 1.094 2.247 1.647m1.485-2.937l-1.485 2.937m1.485-2.937l1.693 5.422m-1.693-5.422a164.35 164.35 0 013.074 2.443m-4.559.494l7.691 2.125m-7.691-2.125a95.66 95.66 0 013.178 2.485m4.513-.36a154.544 154.544 0 00-3.132-2.619m3.132 2.619a133.61 133.61 0 014.227 3.786m-4.227-3.786c.866 2.252 2.65 6.917 2.852 7.563m-2.852-7.563l-1.343 3.107m-3.17-2.747l1.381-2.979m-1.381 2.979c1.117.913 2.18 1.83 3.17 2.747m-3.17-2.747l8.74 3.426m-7.359-6.405l1.789 5.726m0 0l5.57.679m-5.57-.679c1.615 1.494 3.039 2.987 4.195 4.456m1.375-3.777l-1.375 3.777m1.375-3.777c1.024.96 1.986 1.896 2.877 2.799m-4.252.978l7.233 2.23m-7.233-2.23l4.252-.978m2.981 3.208l-2.203 5.697m2.203-5.697a67.768 67.768 0 00-2.981-3.208m2.981 3.208l-.389 8.308m.389-8.308l2.569 11.088m-4.772-5.391l-.778-8.905m.778 8.905l6.738 3.209m0 0l1.009 3.229 2.386 1.181m-3.395-4.41l-1.966 2.182m1.966-2.182l1.04 4.519m-5.964-5.117a36.764 36.764 0 002.958 2.78m0 0c.969.819 1.979 1.6 3.006 2.337m0 0a57.824 57.824 0 002.393 1.629m-.038-1.738l.038 1.738m-.038-1.738l1.789.887m-1.751.851l2.369-.545m-2.369.545c.838.54 1.674 1.051 2.495 1.528m-.126-2.073l-.618-.306m.618.306l2.365 1.171m-2.983-1.477l.744 2.379m0 0l2.239-.902m-2.239.902c.622.363 1.235.706 1.834 1.03m.405-1.932l-.405 1.932m.405-1.932l2.088 1.034m-2.493.898l1.881-.433.612-.465m-2.493.898c.835.451 1.642.864 2.402 1.235m.091-2.133l-.091 2.133m56.202-129.007a376.877 376.877 0 00-2.538-5.905c.611.303 1.368 1.207 2.206 2.521m.332 3.384l2.744 2.397m-2.744-2.397a380.67 380.67 0 011.797 4.345m-1.797-4.345l-.332-3.384m3.076 5.781l-.947 1.948m.947-1.948c-1.066-2.266-2.124-4.288-3.076-5.781m3.076 5.781c.474 1.005.949 2.058 1.418 3.134m-2.365-1.186l2.365 1.186m-2.365-1.186c.434 1.068.868 2.148 1.292 3.223m1.073-2.037l-1.073 2.037m1.073-2.037a150.374 150.374 0 011.49 3.551m-1.49-3.551l.286 5.558m-1.359-3.521l2.563 1.514m-2.563-1.514c.468 1.189.925 2.37 1.359 3.521m1.204-2.007l-1.204 2.007m1.204-2.007a162.078 162.078 0 011.993 5.165m-3.197-3.158l3.197 3.158m-3.197-3.158c.942 2.499 1.774 4.851 2.376 6.807m.821-3.649l-.821 3.649m3.176 7.056l-2.814 2.809m2.814-2.809c.064 2.015.01 4.216-.117 6.515m-2.697-3.706l2.697 3.706m-2.697-3.706c-.256 1.691-.567 3.664-.891 5.828m.891-5.828l2.148 10.753m.549-7.047l-3.588 2.122m3.588-2.122c-.126 2.28-.323 4.657-.549 7.047m-3.039-4.925l3.039 4.925m-3.039-4.925c-.13.867-.262 1.764-.393 2.686m.393-2.686l2.152 8.589m.887-3.664l-3.432-2.239m3.432 2.239c-.281 2.988-.607 5.995-.89 8.855m-2.542-11.094l2.545 5.903m-2.545-5.903a250.578 250.578 0 00-.763 5.798m.763-5.798l2.542 11.094m.003-5.191l-3.308-.105m0 0l3.305 5.296m-3.305-5.296l2.745 11.913m-2.745-11.913a180.496 180.496 0 00-.473 4.435m3.778.861l-4.063 2.664m4.063-2.664c-.23 2.333-.432 4.569-.56 6.617m-3.503-3.953l3.503 3.953m-3.503-3.953c.08-1.175.176-2.353.285-3.525m-.285 3.525a107.28 107.28 0 00-.21 4.374m.21-4.374l3.641 12.14m-.138-8.187a79.121 79.121 0 00-.108 2.188c-.063 1.816.027 3.842.246 5.999m-.138-8.187l-3.218-7.478m3.218 7.478l-3.714 4.747m3.714-4.747l-3.713.421m-.001 4.326l3.852 3.44m-3.852-3.44a77.996 77.996 0 01.001-4.326m-.001 4.326l5.271 12.197m-1.419-8.757l-3.851-7.766m3.851 7.766c.28 2.756.769 5.729 1.419 8.757m-1.419-8.757l-1.179 11.517m2.598-2.76l-2.598 2.76m2.598-2.76c.496 2.309 1.085 4.65 1.745 6.953m-1.745-6.953l.147 11.645m-2.745-8.885l4.343 4.193m-4.343-4.193c.446 1.609.883 3.097 1.302 4.459m3.041-.266l-1.598 4.692m1.598-4.692l-3.041.266m3.041-.266c.55 1.922 1.15 3.817 1.787 5.645m-3.385-.953c-.443-1.28-.929-2.758-1.443-4.426m1.443 4.426a92.86 92.86 0 001.016 2.795m-1.016-2.795l3.385.953m-2.369 1.842l2.369-1.842m-1.186 10.221l2.577-.592m-2.577.592a18.65 18.65 0 01-.809 3.214m3.386-3.806l-3.386 3.806m3.386-3.806c-.488 1.925-1.329 3.697-2.377 5.304m-1.009-1.498l1.009 1.498m0 0a24.005 24.005 0 01-2.781 3.469" stroke="#fff" stroke-opacity=".8"/><g filter="url(#filter1_d)"><path d="M139.871 205.701l8.085 9.837 22.058-15.035 13.19 14.331 16.525-11.213 22.726 8.185.064 17.964 20.604-.222 11.462 30.239-18.901 12.131 18.23 1.865-7.985 9.355 7.382 8.086-20.069 6.775 18.676 6.521-4.006 8.295 11.846 11.963-9.644 4.776-3.048 1.509 6.727 7.198-18.489-1.374-15.642 9.651-10.03 6.632-15.03-1.304-1.864 13.405-18.122-14.434 6.593-19.25-21.204 3.144-1.752-9.495-22.302-6.171c.09-.377.562-5.845 1.106-12.407l-14.171 2.866 3.575-19.065-16.775 2.634-2.819-23.524-4.996-1.497 4.537-2.334-2.372-19.791 11.624-8.083-2.704-6.944 14.968-5.221-3.443-9.54 13.965 5.583 1.425-16.041z" fill="#fff" fill-opacity=".01"/><path d="M235.78 228.641l-5.798-18.565 15.887 8.892-10.089 9.673zm-14.208-19.66l-6.318-8.928 12.819-9.003-6.501 17.931zm11.088-12.93l-2.705-5.433 15.878 2.406-13.173 3.027zm-54.926 6.57l-2.016-6.457 7.997-1.839-.504-1.614 10.82-2.487-9.433 6.926-.883-2.825-5.981 8.296zm24.842-4.412l-15.835 5.802-1.421-6.162 17.256.36zm-13.074-16.027c.303.968-9.899-4.79-15.038-7.79l13.274 2.139 1.764 5.651zm-37.426 1.249l-15.35-5.555 22.111-5.083-6.761 10.638zm31.506-62.176l-6.571-9.736 13.508-10.025-6.937 19.761zm25.281 17.98l10.755 18.29-8.233 1.892-8.233 1.892-3.656-11.703 11.889 9.811-2.522-20.182zm-1.274 31.436l-2.647-8.475 15.441 4.236-12.794 4.239zm38.485-7.549l-5.849-9.036 12.82-9.003-6.971 18.039zm8.621 17.916l-4.209-3.79 18.322.546-14.113 3.244zm1.38 22.175l-6.294-13.692 9.956 7.66-3.662 6.032 21.124-4.206 4.49-9.034 6.275.72-10.765 8.314-4.489 9.034-16.635-4.828zm12.277 29.62l4.88-10.206 16.349 2.298-21.229 7.908zm52.584-65.723l-5.823-13.801 18.526 10.881-12.703 2.92zm-44.098-13.654l-.833-12.353 7.619-3.049-6.786 15.402zm-12.001-33.576l-5.672-18.161 15.887 8.892-10.215 9.269z" fill="#fff" fill-opacity=".01"/><path d="M152.738 253.352l-6.294-13.693m6.294 13.693l7.466-22.911m-7.466 22.911l19.288-4.434m-19.288 4.434l-39.782-22.432m39.782 22.432l29.161 11.031m-29.161-11.031l25.775 26.02 3.386-14.989m-29.161-11.031l-2.694 25.274m2.694-25.274l-12.5 13.254m12.5-13.254l22.316 29.474m-28.61-43.167l13.76-9.218m-13.76 9.218l-8.025-17.62m8.025 17.62l-6.206 26.947m6.206-26.947l-14.467-2.73m14.467 2.73l25.582 9.259m-25.582-9.259l35.455 24.724m-35.455-24.724l-23.286 17.464m37.046-26.682l11.822 18.477m-11.822-18.477l-20.333-24.74-1.452 16.338m21.785 8.402l-28.227 6.488m28.227-6.488l-35.723-14.282 7.496 20.77m28.227-6.488l9.81-29.938m-9.81 29.938l39.525-26.82m-39.525 26.82l28.254 12.97m-28.254-12.97l47.577 10.259m-47.577-10.259l33.47-4.233m-33.47 4.233l62.315-.671m-50.493 19.148l-2.012-48.415m2.012 48.415l16.432-5.507m-16.432 5.507l9.873 15.465m-43.48-42.344l31.595-21.536m-31.595 21.536l-6.442 14.89m6.442-14.89l-34.383 23.908m34.383-23.908l-25.463 8.881m57.058-30.417l-38.037 36.426m38.037-36.426l18.444 42.908m-18.444-42.908l23.66 25.705m-61.697 10.721l8.261 29.677m-8.261-29.677l-19.021-6.009m19.021 6.009l-8.819 20.194m17.08 9.483l-17.08-9.483m17.08 9.483l34.816 16.22m-34.816-16.22l-11.11 9.632m11.11-9.632l-1.713 21.958m1.713-21.958l21.782 28.3m-49.064-63.986l10.202 26.203m-19.122-11.176l19.122 11.176m-19.122-11.176l5.65 47.146m-5.65-47.146l25.092 30.291m-5.97-19.115l-13.472 35.97m13.472-35.97l5.97 19.115m-5.97-19.115l-21.287 10.949 27.257 8.166m59.33-32.827l5.216-17.203m-5.216 17.203l21.502 30.094m-21.502-30.094l-6.559 20.972m6.559-20.972l4.028 30.65m1.188-47.853l6.055-22.587m-6.055 22.587l14.107 14.492m-14.107-14.492l28.781-14.402m-22.726-8.185l8.052 37.079m-8.052-37.079l22.726 8.185M207.781 240.7l46.804 19.087M207.781 240.7l35.342-11.152M207.781 240.7l14.674-28.894M207.781 240.7l14.812 16.06m20.53-27.212l11.462 30.239m-11.462-30.239l-20.604.222m20.604-.222l-20.53 27.212m20.53-27.212l-7.439 42.37m18.901-12.131l-31.992-3.027m31.992 3.027l-32.066-30.017m32.066 30.017l-18.901 12.131m-25.724 1.587l12.633-16.745m-12.633 16.745l-28.061-9.122m28.061 9.122l25.724-1.587m-25.724 1.587l23.282 24.494m-51.343-33.616l10.587 9.678m-10.587-9.678l40.694-7.623m-40.694 7.623l53.785 7.535m-53.785-7.535l-31.855 14.243m42.442-4.565l15.896 15.379m14.073-77.634l.064 17.964m0 0l.074 26.99m-.074-26.99l13.165 42.148m-13.091-15.158l13.091 15.158m-13.091-15.158l10.649 41.239m2.442-26.081l-27.302 17.522m27.302-17.522l17.627 19.306-20.069 6.775m2.442-26.081l-2.442 26.081m2.442-26.081l18.23 1.865-20.672 24.216m-24.86-8.559l24.86 8.559m-24.86-8.559l-33.328-6.614m58.188 15.173l-11.205 19.013m11.205-19.013l-5.702 28.562m5.702-28.562l26.516 26.779m-26.516-26.779l8.572 27.443m-8.572-27.443l18.676 6.521m-18.676-6.521l-15.365 5.695 23.937 21.748m-19.777-8.43l29.881-12.492m-29.881 12.492l-7.581 9.631m13.084-.082l14.274-1.119m-14.274 1.119l24.378-22.041m-24.378 22.041l-6.165 10.933m20.439-12.052l17.944-.664m-17.944.664l10.104-20.922m-10.104 20.922l17.298 8.568m-17.298-8.568l-6.51 11.445m6.51-11.445l11.979 12.819-18.489-1.374m24.454-12.109l-24.454 12.109m-125.618-43.794l19.442-16.855m-19.442 16.855l28.839-4.529m36.529-5.738l-36.529 5.738m36.529-5.738l-52.168 26.698m52.168-26.698l-13.034 12.08m13.034-12.08l-9.397 32.871m9.397-32.871l.962 36.978m-.962-36.978l-25.01-4.2m25.01 4.2l11.428 28.517m-11.428-28.517l20.862 21.59-57.391-15.852m-9.397-12.326l-6.242 33.286m6.242-33.286l9.397 12.326m-9.397-12.326l20.916 2.388m-27.158 30.898l31.302-6.33m-31.302 6.33l15.639-20.96m15.663 14.63l-15.663-14.63m15.663 14.63l11.469 12.503m-11.469-12.503l5.817 31.537m-21.48-46.167c-.785 9.862-2.4 29.769-2.574 30.501m0 0l26.069-24.159m-26.069 24.159l45.258 12.522m-45.258-12.522l50.531-7.722m-24.462-16.437l13.996 24.898m0 0l-10.359-4.107m10.359 4.107l22.037 9.209m-32.396-13.316l-5.652 19.034m0 0l21.204-3.144m-21.204 3.144l26.477-23.388m-5.273 20.244l5.273-20.244m-5.273 20.244l16.844-2.574m-16.844 2.574l-6.593 19.25m6.593-19.25l13.393 20.279m3.451-22.853l-23.437 21.824m23.437-21.824l-3.451 22.853m3.451-22.853l23.322 8.481m-23.322-8.481l21.609 17.525m-45.046 4.299l18.122 14.434 1.864-13.405m-19.986-1.029l19.986 1.029m0 0l15.03 1.304 10.03-6.632m-25.06 5.328l19.854-25.223m6.919 10.851l-1.713 9.044m1.713-9.044l13.929-.607m-15.642 9.651l15.642-9.651m0 0l-20.848-10.244m-3.071-167.226l-8.233 1.892-3.656-11.703 11.889 9.811zm0 0l8.233-1.892-10.755-18.29 2.522 20.182zm44.69 43.796l-6.294-13.692 9.956 7.66-3.662 6.032zm0 0l16.635 4.828 4.489-9.034m-21.124 4.206l21.124-4.206m0 0l4.49-9.034 6.275.72-10.765 8.314zm-47.217 11.069l5.798 18.565 10.089-9.673-15.887-8.892zm-14.728-10.023l6.318 8.928 6.501-17.931-12.819 9.003zm14.701-9.435l2.705 5.433 13.173-3.027-15.878-2.406zm-54.237 5.546l2.016 6.457 5.981-8.296-7.997 1.839zm7.493-3.453l1.387 4.439 9.433-6.926-10.82 2.487zm3.53 11.3l15.835-5.802-17.256-.36 1.421 6.162zm-12.277-29.619c5.139 3 15.341 8.758 15.038 7.79l-1.764-5.651-13.274-2.139zm-37.738 3.484l15.35 5.555 6.761-10.638-22.111 5.083zm40.285-66.357l6.571 9.736 6.937-19.761-13.508 10.025zm27.931 50.677l2.647 8.475 12.794-4.239-15.441-4.236zm35.283-8.11l5.849 9.036 6.971-18.039-12.82 9.003zm10.261 23.162l4.209 3.79 14.113-3.244-18.322-.546zm22.746 45.379l-4.88 10.206 21.229-7.908-16.349-2.298zm41.881-69.318l5.823 13.801 12.703-2.92-18.526-10.881zm-39.108-12.206l.833 12.353 6.786-15.402-7.619 3.049zm-16.84-39.384l5.672 18.161 10.215-9.269-15.887-8.892z" stroke="#fff" stroke-opacity=".8"/></g><g filter="url(#filter2_d)"><path d="M188.778 247.663l2.1-1.348 2.915-1.968 2.571-1.456 2.57-1.455 2.571-1.456 2.226-.945.139-.049c.512-.177 1.225-.369 1.869-.43.736-.069 1.383.034 1.538.529l.706 2.263.462 3.092.412 2.933.412 2.933.244 2.539.195 2.435-.052 2.723.168 2.124.103 2.572-.136 2.194-.058 3.041-.185 2.638.303 3.391.303 3.391c-.022.351-.048 2.173-.059 3.041l-.058 3.041-.059 3.041-.437 1.831.883 2.825 1.227 2.313.865 1.964.63 2.018.866 1.964 1.353 2.717.132 1.267.876 1.961 1.101 1.91 1.101 1.91.159 2.126 1.446 1.398.664 3.74.989 1.554 1.173 1.842 1.202 1.886 1.202 1.887 1.371 2.153 1.657 2.602 1.297 2.037 1.923 3.018 1.682 2.641 1.442 2.264 1.201 1.887 1.682 2.641-.941.216-9.409 2.163-.941.216a238.57 238.57 0 01-3.43-5.051 200.736 200.736 0 01-2.794-4.332 115.295 115.295 0 01-2.037-3.366c-1.51-2.604-2.551-4.728-2.494-5.541l-5.645 1.298.857 1.533 2.357 4.216 2.571 4.6 3 5.366 1.5 2.683-1.412.324-7.436 5.249-1.653 1.166-2.532-4.711-2.533-4.712-2.591-4.821-2.359-4.389-1.986-3.696-1.242-2.31-1.008-3.229-1.009-3.228a94.071 94.071 0 00-1.916-3.885 114.495 114.495 0 00-3.009-5.428c-.363-.613-.736-1.229-1.117-1.842a83.72 83.72 0 00-2.216-3.384 54.073 54.073 0 00-2.483-3.322c-.953-1.17-1.914-2.222-2.863-3.093-.457-.42-.911-.798-1.36-1.127-.586-.429-1.33-.989-2.203-1.656a428.978 428.978 0 01-4.135-3.211 845.121 845.121 0 01-16.827-13.598 698.94 698.94 0 01-3.07-2.567 438.245 438.245 0 01-3.378-2.872 292.42 292.42 0 01-2.824-2.456 193.86 193.86 0 01-2.1-1.88c-.447-.408-.868-.796-1.259-1.164-.997-.937-1.802-1.737-2.363-2.36-.501-.556-.807-.972-.885-1.219.117-.4.552-.966 1.439-1.628.652-.487 1.549-1.026 2.744-1.589a28.916 28.916 0 011.679-.725 40.48 40.48 0 012.235-.809 51.624 51.624 0 011.669-.521 59.985 59.985 0 011.561-.437 75.036 75.036 0 012.614-.645 100.2 100.2 0 014.466-.904l3.157-1.192 2.783-1.05.099-.043 9.824-4.205 2.784-1.192 2.784-1.192 4.225-1.809 4.225-1.809z" fill="#fff" fill-opacity=".01"/><path d="M140.49 267.413c.078.247.384.663.885 1.219m-.885-1.219l1.538.079m-1.538-.079c.117-.4.552-.966 1.439-1.628m-1.439 1.628l3.565-1.502m14.842-5.756l.732.73m-.732-.73a100.2 100.2 0 00-2.153.409m2.153-.409l-1.25 1.084m1.25-1.084l3.157-1.192m26.161-9.873l.563-1.427m-.563 1.427a97.91 97.91 0 012.486-1.727m-2.486 1.727l-19.395 7.32m19.395-7.32l-3.662.382m3.662-.382l-.894.366m.894-.366l-.645 2.009m.645-2.009l.317 2.09m16.989-11.258c-.542.03-1.183.167-1.895.39m1.895-.39l1.756-.837m-1.756.837l-1.651-.936m1.651.936l.218-1.366m-.218 1.366c.351-.02.67.222.96.689m2.372 48.72c.018-.562.036-1.143.053-1.742m-.053 1.742l.688-1.023m-.688 1.023l1.571 1.802m-1.571-1.802l1.564 3.534m10.427 23.556l-1.217-2.748m1.217 2.748l-.664-3.74m.664 3.74l-1.319-.994m1.319.994l-3.046-.063m3.046.063l-10.35 2.379m10.35-2.379c-.201.322-.426.69-.668 1.092m.668-1.092l.989 1.554m-.989-1.554l.511 2.91m16.31 23.502l-.941.216m.941-.216l-1.682-2.641m1.682 2.641l-2.038-1.478m-20.008-14.217l-12.653-6.608m12.653 6.608l-5.125-8.338m5.125 8.338l-21.121-4.661m21.121 4.661l-20.112-1.433m20.112 1.433l-3.403-10.896m3.403 10.896l-5.645 1.298m5.645-1.298c.025-.359.145-.829.334-1.374m-.334 1.374l2.116 1.676m-2.116-1.676c-.057.813.984 2.937 2.494 5.541m-9.08-4.027l-6.067-8.122m6.067 8.122l1.461-9.852m-1.461 9.852l-14.535-6.175m14.535 6.175l-6.259.141m6.259-.141l8.553-6.517m-8.553 6.517l-2.82-10.013m2.82 10.013l.941-.216m-.941.216l1.798 1.317m-1.798-1.317l1.963 3.702m-1.963-3.702l4.155 5.533m5.659 12.973l-7.436 5.249m7.436-5.249l1.412-.324m-1.412.324l-2.76-5.205m2.76 5.205l-.088-3.007m.088 3.007l-3.088-8.373m-6.001 14.788l1.653-1.166m-1.653 1.166l-2.532-4.711m2.532 4.711l.305-3.53m-.305 3.53l-2.092-7.738m-11.151-16.901l6.451-8.404m-6.451 8.404l13.979-10.134m-13.979 10.134l-1.008-3.229m1.008 3.229l1.502-.034m-1.502.034l1.242 2.31m-3.259-8.767c.731-.889 2.287-2.689 2.663-2.775m-2.663 2.775c-.1-.323.395-1.965.655-2.746m-.655 2.746l2.384-1.248m-2.384 1.248a94.071 94.071 0 00-1.916-3.885m1.916 3.885l-1.294-5.758m1.294 5.758l8.468-1.947m-8.468 1.947l8.276 6.316m-8.276-6.316l1.009 3.228m-15.973-25.309c.449.329.903.707 1.36 1.127m-1.36-1.127l1.411-.324m-1.411.324c-.586-.429-1.33-.989-2.203-1.656m2.203 1.656l-3.269-4.007m25.601 22.232l-2.605-.267m2.605.267c-.176-1.249-.233-3.347.336-4.836m-.336 4.836c-.356-2.161-.469-4.718.104-6.418m-.104 6.418l-.965-2.814m.965 2.814l-2.842-3.794m2.842 3.794l-2.601 1.361m2.601-1.361l4.347.018m-4.347-.018l1.1 1.909m9.25-4.288l4.06.084m-4.06-.084c1.327-.594 4.076-1.802 4.452-1.889m-4.452 1.889l.184-2.638m-.184 2.638a51.358 51.358 0 00-.985-1.072m.985 1.072l-6.003 2.397m6.003-2.397l-1.722 2.558m1.722-2.558l6.973 2.954m-6.973-2.954l5.37 5.893m-39.651-42.999l-18.306-18.251m18.306 18.251l.909-.32m-.909.32l-2.982-1.477m2.982 1.477l-1.411.324m15.491-5.291l-.908.321m.908-.321l-1.241-1.877m1.241 1.877l-.301-1.985m.301 1.985l-3.829 2.271m3.829-2.271l.661 2.923m-.661-2.923l2.575 1.788m-2.575-1.788l-7.174 8.247m7.174-8.247l-2.063 6.309m-16.721-.261l3.293-.757m-3.293.757l6.872 1.016m-6.872-1.016l1.823 2.609m1.823 2.609l3.226-4.202m-3.226 4.202l-1.823-2.609m1.823 2.609l2.48-.94m17.808-6.751l-3.606 1.367m3.606-1.367l-17.062 3.489m17.062-3.489l-4.489-.652m4.489.652l-2.575-1.787m2.99 28.942l-1.447 1.018m1.447-1.018l-2.352.541m2.352-.541l2.663-2.775m-2.663 2.775a41.678 41.678 0 013.322-2.28m-12.446 8.703c.381.613.754 1.229 1.117 1.842m-1.117-1.842l2.375-1.672m-2.375 1.672l4.21 2.06m-4.21-2.06l.177-1.167m-.177 1.167a83.72 83.72 0 00-1.171-1.835m27.563-6.611c-.069-.157.316-.577.517-.767m-.517.767l.782 1.767m-.782-1.767l-.551.776m.551-.776c-.377.012-.8.02-1.253.024m1.253-.024l-.456-1.03m-24.44-21.368l-5.111 1.938m5.111-1.938l3.607-1.367m-3.607 1.367l1.994 4.194m-1.994-4.194l4.932 1.438m-4.932-1.438l6.257 4.243m-6.257-4.243l-1.766-4.038m1.766 4.038l2.724-3.386m-2.724 3.386l-11.108-1.662m9.934-31.153l1.923-.3m-1.923.3l2.1-1.348m-2.1 1.348l-4.225 1.809m4.225-1.809l-5.034 3.256m6.957-3.556l.177-1.048m-.177 1.048c.781-.526 1.628-1.081 2.512-1.643m-2.335.595l2.335-.595m-2.335.595l2.915-1.968m-.58 1.373c.129-.414.425-1.268.58-1.373m-.58 1.373c.822-.522 1.676-1.048 2.538-1.56m-1.958.187l1.958-.187m-1.958.187l2.571-1.456m-.613 1.269l.187-.16m-.187.16a71.437 71.437 0 013.274-1.835m-2.661.566l2.57-1.455m-2.57 1.455l-.426 1.109m.426-1.109l2.661-.566m-.091-.889L195.938 244m2.996-2.564l2.571-1.456m-2.571 1.456l2.886-.448m-2.795 1.337l2.48-2.345m-2.48 2.345c.97-.507 1.913-.962 2.795-1.337m-.315-1.008l2.226-.945m-2.226.945l2.121.332m-1.806.676c.638-.271 1.244-.5 1.806-.676m.105-1.277l-.105 1.277m.105-1.277l.139-.049m3.407.099c-.155-.495-.802-.598-1.538-.529m1.538.529l-.796 1.526m.796-1.526l.706 2.263m-4.113-2.362c.512-.177 1.225-.369 1.869-.43m.742 2.055l1.502.737m-1.502-.737c.322.52.608 1.32.862 2.352m.64-1.615l-.64 1.615m.64-1.615l.462 3.092m-1.102-1.477l1.102 1.477m-1.102-1.477c.177.72.338 1.554.484 2.484m.618-1.007l-.618 1.007m.618-1.007l.412 2.933m-1.03-1.926l1.03 1.926m-1.03-1.926c.149.954.284 2.01.403 3.15m.627-1.224l-.627 1.224m.627-1.224l.412 2.933m-1.039-1.709l.023.213m1.016 1.496l-1.016-1.496m1.016 1.496l-.788 1.047m.788-1.047l.244 2.539m-1.26-4.035c.083.808.159 1.658.228 2.543m0 0l1.032 1.492m-1.032-1.492c.065.822.123 1.675.177 2.554m.855-1.062l-.855 1.062m.855-1.062l.195 2.435m-1.05-1.373l1.05 1.373m-1.05-1.373c.059.968.112 1.968.158 2.992m.892-1.619l-.892 1.619m.892-1.619l-.052 2.723m-.84-1.104l.84 1.104m-.84-1.104c.038.841.072 1.7.103 2.571m.737-1.467l-.737 1.467m.737-1.467l.168 2.124m-.905-.657c.015.427.029.856.042 1.288m-.042-1.288l.905.657m0 0l-.863.631m.863-.631l.103 2.572m-.966-1.941l.966 1.941m-.966-1.941c.025.851.048 1.712.067 2.58m.899-.639l-.899.639m.899-.639l-.136 2.194m-.763-1.555c.018.824.033 1.654.046 2.488m-.046-2.488l.763 1.555m0 0l-.717.933m.717-.933l-.058 3.041m-.659-2.108l.659 2.108m-.659-2.108c.014.892.024 1.788.032 2.685m.627-.577l-.185 2.638m.185-2.638l-.627.577m.442 2.061l-.442-2.061m.442 2.061l-.185 2.638m.185-2.638l.303 3.391m-.745-5.452c.009 1.008.014 2.018.016 3.024m.241 1.675l-.241-1.675m.241 1.675l.16 2.126.631 2.018m-1.032-5.819c.002 1.015 0 2.026-.004 3.029m1.036 2.79l-1.062.676m1.062-.676l-1.049-.624m1.049.624l-.303-3.391m.303 3.391c-.022.351-.048 2.173-.059 3.041m-1.003-2.365l.013-1.3m-.013 1.3l1.003 2.365m-1.003-2.365a569.62 569.62 0 01-.055 3.906m.068-5.206c.006-.717.01-1.439.013-2.166m0 0l.733-.601m.244 6.432l-1.058 1.541m1.058-1.541l-.058 3.041m-1-1.5c-.016.89-.034 1.76-.053 2.607m.053-2.607l1 1.5m0 0l-1.053 1.107m1.053-1.107l-.059 3.041m-.994-1.934c-.024 1.055-.05 2.073-.078 3.046m.078-3.046l.994 1.934m0 0l-1.072 1.112m1.072-1.112l-.437 1.831m-.635-.719l.635.719m0 0l.883 2.825m0 0l-.007 1.732m.007-1.732l1.227 2.313m-1.234-.581l1.234.581m-1.234-.581l.869 1.963m.365-1.382l-.365 1.382m.365-1.382l.865 1.964m-1.23-.582l1.23.582m-1.23-.582l.868 1.963m.362-1.381l-.362 1.381m.362-1.381l.63 2.018m-.992-.637l.992.637m-.992-.637l.869 1.963m.123-1.326l-.123 1.326m.123-1.326l.866 1.964m-.989-.638l.989.638m-.989-.638l.913 2.061m.076-1.423l-.076 1.423m.076-1.423l1.353 2.717m-1.429-1.294l1.429 1.294m-1.429-1.294l.456 1.031m.973.263l.132 1.267m.133 1.267l-1.333-.991m1.333.991l-.668 1.019m.668-1.019l-.133-1.267m.133 1.267l1.095 2.472m-2.428-3.463l-.702-.752m.702.752l.665 2.01m-1.367-2.762l.797-1.054m-.797 1.054l-1.329-1.025m1.329 1.025a66.924 66.924 0 01-2.53-.028m3.897 2.79l1.411-.325m-1.411.325l.378 1.21m.157-3.496l.876 1.961m0 0l-1.033 1.535m1.033-1.535l1.101 1.91m-2.134-.375l1.227 2.314m-1.227-2.314l1.385.243m.749.132l-.749-.132m.749.132l1.101 1.91m-2.008.029l.158-2.071m-.158 2.071l2.008-.029m-2.008.029l2.167 2.097m-2.167-2.097l1.353 2.717m-1.195-4.788l1.85 2.042m-1.85-2.042l2.902 6.558m-1.052-4.516l.159 2.126m0 0l-.814.62m.814-.62l1.446 1.398m-2.26-.778l1.707 1.77m-1.707-1.77l1.605 3.524m-1.605-3.524l-1.252 2.45m1.252-2.45l-1.756.836m4.016-.058l-.553.992m0 0l-.102 1.754m0 0l-1.727.931m1.727-.931l-2.857-1.074m2.857 1.074l-.336 3.769m-1.391-2.838l-1.522-.032m1.522.032l-1.13-2.005m-.392 1.973l.392-1.973m-.392 1.973c-1.051-.674-3.298-2.163-3.876-2.722m3.876 2.722l2.913 2.87m-2.521-4.843l-.504-1.614m.504 1.614c-.477-.236-3.044-.598-4.268-.749m3.764-.865l-3.764.865m3.764-.865c-.477-.237-2.333-.473-3.201-.562m-.563 1.427l.563-1.427m-.563 1.427c-.386.377-1.161 1.218-1.169 1.566m1.169-1.566l-2.051-1.259m2.051 1.259l-3.31-.537m3.873-.89l-2.614.168m2.614-.168c-.691-.6-1.827-1.402-3.155-2.029m1.423 5.022l-.882-2.825m.882 2.825a36.49 36.49 0 00-2.141-2.103m2.141 2.103c-1.75-1.759-2.958-2.71-4.169-3.096m-3.013-2.606l3.013 2.606m-3.013-2.606c1.115-.41 2.322-.386 3.492-.121m-3.492.121l5.759.68m-5.759-.68l-4.297 2.991 1.149 3.348m3.148-6.339c-.882.324-1.655.693-2.315 1.121m2.315-1.121l3.15 1.438m-3.15-1.438l-.128 1.832m-4.66 7.054l1.64-2.547m-1.64 2.547c-.284-1.352-.36-2.518-.237-3.527m.237 3.527l.585-5.916m-.585 5.916l.004 1.628m-.004-1.628l-2.1 1.348m6.704-7.597c-.127.035-2.732.236-4.019.333m4.019-.333c-.817.188-1.34.836-1.663 1.68m1.663-1.68a8.691 8.691 0 011.598-.236m-1.598.236l.056-.805m6.428 1.045l-.541-2.197m.541 2.197l-3.287-.271m3.287.271l-3.15-1.439m1.891 2.161c.14-.753.48-2.391.718-2.919m-.718 2.919l-1.549-3.72m1.549 3.72c-4.334-3.885-6.348-3.152-7.12-.864m7.838-2.055l-2.746 1.926m2.746-1.926a11.053 11.053 0 00-2.267-.801m-.479 2.727c-.075-.065.288-1.845.479-2.727m-.479 2.727a4.57 4.57 0 00-1.599-.205m-5.617.569c.457-.723 1.089-1.33 1.888-1.849m-1.888 1.849l2.356 1.347m-2.356-1.347c-.433.684-.709 1.472-.822 2.389m3.178-1.042l-.232-1.582m.232 1.582l-1.301 2.022m1.301-2.022l-3.178 1.042m2.71-4.238l.236 1.614m-.236-1.614c.063-.04 1.124.326 2.187.711m1.542.569a115.87 115.87 0 00-1.542-.569m3.278-.394l-5.229 1.297m0 0l1.951-.903m-3.02 4.507l-1.877-.98m.241 5.155l-2.104-.28m2.104.28l-2.383 1.247m2.383-1.247l3.701.548m-5.805-.828l-2.008.029m0 0l1.729 1.498m-1.729-1.498l-2.571-1.139m2.571 1.139l-1.949-3.012m3.678 4.51l6.084-.699m-10.384-1.938l.622-1.873m-.622 1.873c-.339-.654-.702-1.335-1.083-2.035m1.705.162l-.538-3.337m0 0l-1.167 3.175m1.167-3.175l-3.093-.218m3.093.218l-1.835-3.732m1.835 3.732l-4.033-3.227m2.866 6.402a112.947 112.947 0 00-1.926-3.393m1.926 3.393l-.668-6.907m-1.258 3.514l1.258-3.514m0 0l-.258-.827m.258.827l-2.198.505m2.198-.505l2.063-1.452m-4.261 1.957a95.724 95.724 0 001.94-1.332m-1.94 1.332l-1.348-.668m3.288-.664l2.321-.625m-2.321.625l2.21-1.524m-2.21 1.524l-2.747-1.249m2.747 1.249l-3.288.664m5.609-1.289l-.111-.899m.111.899l1.792-1.262m-1.903.363l1.882-.432.563-1.427m-2.445 1.859l1.222-.929m1.223-.93l-.542 1.496m.542-1.496l.905.477m-.905-.477l-1.223.93m1.223-.93l1.671-1.105m-2.213 2.601l1.447-1.019m4.11-3.793l.659.495m-.659-.495c.38-.236.897-.544 1.421-.835m-1.421.835l-3.344 2.211m3.344-2.211l1.935-4.77m-1.935 4.77l-1.113-2.339m1.772 2.834c1.068-.345 3.44-.931 4.378-.51m-4.378.51l3.073-1.461m-2.311.131l3.616.82m-3.616-.82c.619-.173 1.482-.185 2.311-.131m2.102.272c.44.042.973.09 1.556.139m-1.556-.139l.847 1.098m-.847-1.098l-.797.679m.797-.679a17.232 17.232 0 00-2.102-.272m10.417.688c-.354.066-1.144.067-2.126.029m0 0l-1.201.997m1.201-.997a85.367 85.367 0 01-2.365-.132m1.164 1.129l-1.164-1.129m1.164 1.129a44.378 44.378 0 01-2.508-.145m1.344-.984l-1.344.984m1.344-.984c-.776-.054-1.559-.115-2.268-.174m.924 1.158l-.924-1.158m.924 1.158a22.563 22.563 0 01-1.633-.199m.709-.959l-.709.959m0 0c-.666-.109-1.234-.246-1.644-.419m-23.443-18.554l.451-.171.821-.312m-1.272.483l1.584 2.971m-1.584-2.971l5.935 4.188m-5.935-4.188l-2.48.94m14.648 21.875l-.793-1.487m3.687-.548l-1.078-1.96m-10.98-19.959l-1.42 4.11m1.42-4.11l.43 7.578m-.43-7.578l-1.732.656m1.732-.656l1.292 2.348m-1.292-2.348l3.345-5.976m-3.345 5.976l-5.997-3.6m25.131 22.342l-1.797-3.804m1.797 3.804l-4.845-1.373m4.845 1.373l-7.44-6.833m-2.976-15.214l1.325 2.805m-1.325-2.805l-1.613 5.561m1.613-5.561l-.883-2.019m.536 27.791l2.273.275.336-2.783m-2.609 2.508l2.609-2.508m-2.609 2.508l-.996-1.868m.996 1.868l.448-6.436m2.161 3.928l-3.605.64m3.605-.64l-5.001-1.978m5.001 1.978l-1.08-1.964m-2.525 2.604l1.444-4.568m-1.444 4.568l-1.396-2.618m1.396 2.618l2.525-2.604m-1.081-1.964l1.081 1.964m-1.081-1.964l-2.84 1.95m2.84-1.95l-4.522-1.203m4.522 1.203l-1.095-1.991m-1.745 3.941l-1.682-3.153m1.682 3.153l-.118-7.326m.118 7.326l1.745-3.941m-3.427.788l1.564-4.173m-1.564 4.173l3.427-.788m-3.427.788l-.99-1.856m2.554-2.317l1.863 3.385m-1.863-3.385l-2.554 2.317m2.554-2.317l-4.12-.619m4.12.619l-1.267-2.304m3.13 5.689l-4.417-1.068m4.417 1.068l-5.983-4.004m1.566 2.936l-1.566-2.936m1.566 2.936l-.376-7.645m-1.19 4.709l1.19-4.709m-1.19 4.709l2.853-1.685m-2.853 1.685l-1.311-2.458m1.311 2.458l-.449-7.688m1.639 2.979l1.663 3.024m-1.663-3.024l-.743-1.348m2.406 4.372l-4.164-.773m0 0l1.758-3.599m-1.758 3.599l-1.85-3.468m1.85 3.468l-2.162-6.922m3.92 3.323l-3.608.131m3.608-.131l-.896-1.631m-2.712 1.762l2.712-1.762m-3.024-1.692l-3.006-1.839m3.006 1.839l5.077-6.632m-5.077 6.632l-8.055-.246m27.124 14.528l-1.107-2.341m1.107 2.341l-3.048 2.431m0 0l1.941-4.772m-1.941 4.772l-2.595-5.46m2.595 5.46l-.271-9.454m2.212 4.682l-4.536-.688m4.536.688l-2.212-4.682m2.212 4.682l-7.131-6.147m2.595 5.459l2.324-3.994m-2.324 3.994l-.326-9.604m.326 9.604l-1.298-2.729m3.622-1.265l-4.919-1.465m4.919 1.465l-6.913-5.659m6.913 5.659l-3.622 1.265m3.622-1.265l-1.325-2.805m-3.594 1.34l2.269-4.145m-2.269 4.145l-1.994-4.194m1.994 4.194l.944-6.95m-.944 6.95l1.297 2.73m-1.297-2.73l3.594-1.34m-1.325-2.805l-4.263-.049m4.263.049l-1.325-2.805m1.325 2.805l1.325 2.805m-5.588-2.854l2.938-2.756m-7.599 27.571l.541-1.913m-.541 1.913a73.43 73.43 0 00-1.045-1.549m1.586-.364l-1.85-2.279m0 0l.264 2.643m-.264-2.643l-2.219-.679m2.219.679l-2.267-2.831m2.531 5.474a54.073 54.073 0 00-2.483-3.322m0 0l-.048-2.152m.048 2.152c-.953-1.17-1.914-2.222-2.863-3.093m2.815.941l-2.815-.941m2.815.941l-2.764-2.392m-.051 1.451l.051-1.451m0 0l-4.68-3.683m4.68 3.683l-3.614-1.332m0 0l-1.066-2.351m1.066 2.351a428.978 428.978 0 01-4.135-3.211m4.135 3.211l-4.426-5.039m3.36 2.688l-3.36-2.688m3.36 2.688l-3.069-.86m-.291-1.828l.291 1.828m-.291-1.828l-3.958-2.983m3.958 2.983l-2.984-.762m3.275 2.59a679.784 679.784 0 01-3.275-2.59m3.275 2.59l-4.249-4.811m0 0l-1.823-.013m1.823.013l.974 2.221m-.974-2.221l-3.957-2.983m3.957 2.983l-4.329-2.033m2.506 2.02c.957.767 1.892 1.515 2.797 2.234m-2.797-2.234a914.83 914.83 0 01-2.506-2.02m2.506 2.02l-2.134-2.97m0 0l-.372.95m.372-.95l-1.225-1.016m.853 1.966a803.362 803.362 0 01-3.45-2.803m3.45 2.803l-3.711-4.337m0 0l.261 1.534m-.261-1.534l2.858 2.371m-2.858-2.371l-1.259.289m1.259-.289l-1.89-1.729m2.151 3.263l2.597.837m-2.597-.837a590.04 590.04 0 01-1.52-1.245m0 0l-.631-2.018m.631 2.018a769.166 769.166 0 01-3.279-2.706m2.648.688l-2.79-1.954m2.79 1.954l-2.648-.688m-.142-1.266l.142 1.266m-.142-1.266l-2.764-2.392m2.764 2.392l-2.928-1.301m3.07 2.567a698.94 698.94 0 01-3.07-2.567m.164-1.091l-.164 1.091m.164-1.091l-1.445-1.398m1.281 2.489l-1.281-2.489m1.281 2.489a438.245 438.245 0 01-3.378-2.872m2.097.383l-2.097-.383m2.097.383l-2.854-2.57m.757 2.187a292.42 292.42 0 01-2.824-2.456m2.824 2.456l-.757-2.187m-5.565-5.011l.139 1.698m-.139-1.698l1.531 1.378m-1.531-1.378c-.638-.43-1.847-1.392-1.571-1.802m1.571 1.802l-2.224-.662m2.363 2.36l1.392-.32m-1.392.32c.391.368.812.756 1.259 1.164m-1.259-1.164c-.997-.937-1.802-1.737-2.363-2.36m3.755 2.04l-.133 1.484m.133-1.484l1.913 1.723m-1.913-1.723l1.967 3.364m-2.1-1.88l2.046.239m-2.046-.239a193.86 193.86 0 002.1 1.88m-.054-1.641l.054 1.641m-.054-1.641l2.121 1.91m-2.067-.269l2.067.269m-7.136-6.813l-.653 1.14m.653-1.14l-.099-1.707m.099 1.707c.121-.179.729-.782 2.027-1.581m15.574-5.026c-.685.113-1.345.231-1.982.354m1.982-.354l-2.885-.321m2.885.321l2.425-1.922m-2.425 1.922l4.443-1.92m-4.443 1.92l.494 1.583m-18.194 3.317l2.126.126m-2.126-.126c.652-.487 1.549-1.026 2.744-1.589m-2.744 1.589l4.076-.937m-1.95 1.063l.618-1.715m-.618 1.715c.53-.327 1.176-.686 1.95-1.063m-1.332-.652l1.332.652m-1.332-.652a28.916 28.916 0 011.679-.725m-.347 1.377l.347-1.377m-.347 1.377a30.98 30.98 0 012.043-.902m-1.696-.475l1.696.475m-1.696-.475a40.48 40.48 0 012.235-.809m-.539 1.284l.539-1.284m-.539 1.284a42.131 42.131 0 013.576-1.244m-3.576 1.244l2.208-1.805m-1.669.521l3.037.04m-3.037-.04a51.624 51.624 0 011.669-.521m1.368.561l.193-.998m-.193.998c.445-.134.908-.267 1.389-.398m-1.389.398l-1.368-.561m1.561-.437l1.196.6m-1.196-.6a75.036 75.036 0 012.614-.645m-2.614.645c-.544.145-1.064.29-1.561.437m2.757.163l1.418-1.245m-1.418 1.245a60.895 60.895 0 012.81-.689m-1.392-.556l1.392.556m-1.392-.556a89.048 89.048 0 012.313-.495m-.921 1.051l.921-1.051m-.921 1.051a72.506 72.506 0 011.824-.376m-.903-.675l.903.675m0 0l2.476 1.229m1.931-3.505l2.783-1.05m-2.783 1.05l2.018.002m0 0l.765-1.052m-.765 1.052l4.748-2.555m-4.748 2.555l6.259-2.56m-5.494 1.508l3.983-1.503m-3.983 1.503l.099-.043m0 0l5.395-1.465m-5.395 1.465l9.824-4.205m-4.429 2.74l4.429-2.74m-4.429 2.74l8.942-3.658m-4.513.918l4.513-.918m-4.513.918l2.784-1.192m1.729.274l1.055-1.466m-1.055 1.466l4.471-1.828m-4.471 1.828l5.28-3.275m-4.225 1.809l-2.784 1.192m2.784-1.192l4.225-1.809m-7.009 3.001l6.2-1.554m0 0l.809-1.447m-.809 1.447l3.577-1.463m-27.198 13.012l2.479-.137m-2.479.137l2.168 2.097m.311-2.234l-.311 2.234m.311-2.234l1.983 4.735m-1.983-4.735l-2.032-1.663 1.721 3.897m.311-2.234l2.293 2.5m-2.604-.266l2.604.266m-2.604-.266l2.294 2.501m.31-2.235l-.31 2.235m.31-2.235l3.177 5.326m-3.177-5.326l2.294 2.501m-2.604-.266l2.604.266m-2.604-.266l3.487 3.091m-.883-2.825l.883 2.825m-.883-2.825l3.613 3.495m-2.73-.67l2.73.67m-2.73-.67l1.806 1.748m.924-1.078l.882 2.825m-.882-2.825l1.869 1.949m-.987.876l2.857 1.074m-2.857-1.074l-1.806-1.747m1.806 1.747l1.635 2.003m1.222-.929l.412 2.933m-.412-2.933l2.151 2.045m-2.151-2.045l-1.87-1.95m2.282 4.883l3.891 1.157m-3.891-1.157l1.739-.888m-1.739.888l-1.634-2.004m1.634 2.004l1.571 1.801m2.32-.644l-2.152-2.045m2.152 2.045l12.263-4.326m-12.263 4.326l1.259 2.417m-1.259-2.417l9.342-2.376m-9.342 2.376l13.832-1.724m-13.832 1.724l-3.79 4.01m-5.176-10.921l2.793.871m0 0l.648 2.879m17.788-1.165l-.333-2.198m-3.453-22.836l.249 1.643m-.249-1.643l1.211 1.724m-.962-.081l1.279 2.171m-1.279-2.171l.322 2.134m.957.037l-.634 2.098m.634-2.098l.316 2.09m-.316-2.09l-.317-2.09m-.317 4.188l1.267 2.082m-1.267-2.082l.3 1.982m-.3-1.982l-.323-2.135m1.59 4.217l-.667 1.883m.667-1.883l.317 2.09m-.317-2.09l-.317-2.09m-.35 3.973l1.3 2.297m-1.3-2.297l.348 2.299m-.348-2.299l-.3-1.983m1.6 4.28l-.605 2.302m.605-2.302l.349 2.299m-.349-2.299l-.316-2.09m-.289 4.392l1.302 2.296m-1.302-2.296l.325 2.149m-.325-2.149l-.347-2.3m1.649 4.596l-.652 2.003m.652-2.003l.301 1.985m-.301-1.985l-.348-2.299m-.304 4.302l1.254 1.968m-1.254-1.968l.307 2.031m-.307-2.031l-.325-2.15m1.579 4.118l-.64 2.093m.64-2.093l.3 1.985m-.3-1.985l-.301-1.986m-.339 4.079l-.307-2.03m0 0l1.247 1.922m-1.879-6.103l1.278 2.132m-1.95-6.581l1.301 2.297m-1.949-6.579l1.284 2.19m-1.907-6.307l1.273 2.127m-9.062 25.873l-5.049 1.593m5.049-1.593l8.083-4.793m-8.083 4.793l-.746 3.262m8.829-8.055l4.49.652m-4.49-.652l6.404-.483m11.623 42.682l4.281.161m-4.281-.161l-3.247 1.891m7.528-1.73l-7.528 1.73m7.528-1.73l7.092 3.335m-7.092-3.335l8.695.396m-16.223 1.334l14.62 1.605m-14.62-1.605l-.192 8.263m.192-8.263l-7.459 5.175m22.079-3.57c.51-.99 1.067-2.002 1.603-2.939m-1.603 2.939c-.681 1.323-1.279 2.608-1.633 3.629m-13.179 3.029l16.415-9.597m-16.415 9.597l-4.757.107m21.172-9.704c.344-.6.679-1.169.987-1.683M198.017 328.9l-.26 2.344m.26-2.344l2.023 3.549m-2.023-3.549l1.726 6.04m11.668 17.467l-1.348-2.364m1.348 2.364l-4.185-3.545m2.748-20.426l.857 1.533m9.428 16.865l-1.5-2.683m1.5 2.683l-4.172-4.881m-.134-16.189l1.782 3.05m9.58 16.398l-.941.216a238.57 238.57 0 01-1.544-2.24m2.485 2.024l9.409-2.163m-9.409 2.163l-2.339-4.004m2.339 4.004l-2.485-2.024m-4.654-25.675l1.657.462m-1.657-.462l1.179 1.818m15.369 23.718l-1.097-1.694m-37.87-10.111l2.283 1.205m-2.283-1.205l1.986 3.696m.297-2.491l-.297 2.491m.297-2.491l2.397 4.207m-2.397-4.207l2.062 6.88m-2.359-4.389l2.694 1.716m-2.694-1.716l2.359 4.389m-2.359-4.389l5.309 6.306m-2.615-4.59l-.335 2.673m.335-2.673l2.615 4.59m-2.615-4.59l2.256 7.494m-2.591-4.821l2.95 1.917m-2.95-1.917l2.591 4.821m.359-2.904l-.359 2.904m.359-2.904l2.614 4.589m-2.614-4.589l2.174 7.616m-2.533-4.712l2.973 1.685m-2.973-1.685l2.533 4.712m.44-3.027l-.44 3.027m.44-3.027l2.397 4.208m-2.837-1.181l2.837 1.181m.768-20.074l.165 2.385m-.165-2.385l2.357 4.216m-2.192-1.831l2.192 1.831m-2.192-1.831l2.331 4.395m-.139-2.564l.139 2.564m-.139-2.564l2.571 4.6m-2.571-4.6l2.899 7.768m-2.76-5.204l2.432 2.036m-2.432-2.036l2.76 5.204m-.328-3.168l.328 3.168m-.328-3.168l3 5.366m-2.672-2.198l2.672 2.198m-1.024-15.337l.378 3.865m-.378-3.865l2.897 4.958m-2.897-4.958l2.415 7.231m-2.037-3.366l2.519 1.093m-2.519-1.093a115.295 115.295 0 002.037 3.366m.482-2.273l-.482 2.273m.482-2.273l2.005 3.432m-2.005-3.432l2.312 6.605m-2.794-4.332l2.487 1.159m-2.487-1.159a200.736 200.736 0 002.794 4.332m-.307-3.173l.307 3.173m-.307-3.173l2.339 4.004m-2.339-4.004l2.193 5.984m-1.886-2.811l2.032.831m-2.032-.831a248.98 248.98 0 001.886 2.811m.146-1.98l-.146 1.98m-2.997-25.213l-.478 1.356m.478-1.356l1.173 1.842m-1.173-1.842l.614 3.043m-1.092-1.687l1.651.486m-1.651-.486l1.092 1.687m.559-1.201l-.559 1.201m.559-1.201l1.202 1.886m-1.202-1.886l.72 3.174m-1.279-1.973l1.761.685m-1.761-.685l1.279 1.973m.482-1.288l-.482 1.288m.482-1.288l1.202 1.887m-1.684-.599l1.684.599m-1.684-.599l1.288 1.988m.396-1.389l-.396 1.389m.396-1.389l1.371 2.153m-1.371-2.153l1.205 3.858m-1.601-2.469l1.767.764m-1.767-.764l1.601 2.469m.166-1.705l-.166 1.705m.166-1.705l1.657 2.602m-1.657-2.602l1.405 4.13m-1.571-2.425l1.823.897m-1.823-.897l1.571 2.425m.252-1.528l-.252 1.528m.252-1.528l1.297 2.037m-1.549-.509l1.549.509m-1.549-.509l1.707 2.635m-.158-2.126l.158 2.126m-.158-2.126l1.923 3.018m-1.923-3.018l1.866 4.761m-1.708-2.635l1.765.892m-1.765-.892l1.708 2.635m.057-1.743l-.057 1.743m.057-1.743l1.682 2.641m-1.682-2.641l1.535 4.199m-1.592-2.456l1.739.898m-1.739-.898l1.592 2.456m.147-1.558l-.147 1.558m.147-1.558l1.442 2.264m-1.589-.706l1.589.706m-1.589-.706l1.336 2.062m.253-1.356l-.253 1.356m.253-1.356l1.201 1.887m-1.454-.531l1.454.531m-1.454-.531l1.098 1.694m.356-1.163l-.356 1.163" stroke="#fff" stroke-width=".5"/></g><path d="M162.641 370.956l-4.176 4.288m4.176-4.288l-1.044 4.704m1.044-4.704l-4.499 1.649m.323 17.168l-2.279-6.873m2.279 6.873l-3.322-2.169m3.322 2.169l1.044-4.704m-7.689.366l-4.058 3.531m4.058-3.531l-.588-4.213m.588 4.213l4.366-2.535m-4.366 2.535l4.366-5.07m-4.366 5.07l-2.999-2.22m2.999 2.22l-3.529.655m3.529-.655l3.323 2.169m-3.323-2.169l7.689-.366m-11.747 3.897l.529-2.876m-.529 2.876l-.073-4.566m.073 4.566l-.886-2.486m.886 2.486l-.941-4.818m-1.47-1.942l1.735.504m-1.735-.504l1.47 1.942m-1.47-1.942l1-.531m-1 .531l.36 1.009m-.36-1.009l2.317-.114m-2.317.114l-3.91-3.481m3.91 3.481l1.068-2.786m-1.068 2.786l-3.675-1.11m-3.676-1.11l3.441-1.261M138 379.986l8.419-.566m-8.419.566l3.676 1.11m16.789-5.852l-5.689 3.733m5.689-3.733l-3.065 2.533m3.065-2.533l-3.739 1.985m3.739-1.985l-4.822-.991m4.822.991l2.088 5.121m-2.088-5.121l-2.279 5.121m2.279-5.121l3.132.416m-3.132-.416l-.323-2.639m-9.321 10.61l3.087-4.49m-3.087 4.49l-1.735-.505m1.735.505l-1.132 1.185m1.132-1.185l1.518-1.255m-1.518 1.255l.926-3.331m-.926 3.331l-1.235-2.171m1.235 2.171l-2.687 1.185m2.687-1.185l-.172.933m3.259-5.423l-4.822 3.985m4.822-3.985l.868.252m-.868-.252l-2.161 1.159m2.161-1.159l-.676 2.497m.676-2.497l3.492-.948m-3.492.948l1.551-.823m-1.551.823l-1.569 3.235m-3.782 3.626l1.734.504m-1.734-.504l.264-1.438m-.264 1.438l1.132-1.186m-1.132 1.186l-.423-1.186m.423 1.186l1.111-3.494m-1.111 3.494l2.092-1.438m-2.092 1.438l.319.894m.21-3.77l-.265 1.438m.265-1.438l.5-1.666m-.5 1.666l-.735-1.035m.735 1.035l6.557-3.481m-6.557 3.481l-1.375.505m1.375-.505l-.952 1.69m.952-1.69l.582-.618m.623 3.998l.358-1.942m-.358 1.942l-.602-1.69m5.954-5.171l-.867-.252m.867.252l-2.411 1.993m2.411-1.993l-.184-1.327m.184 1.327l1.083-2m-1.083 2l-3.896.655m3.896-.655l-6.057 1.815m6.057-1.815l.879-.726m-7.701 5.645l5.955-5.171m-5.955 5.171l-.47-2.473m.47 2.473h1.828m-1.063-3.104l-1.235.631m1.235-.631l2.161-1.16m-2.161 1.16l3.646.178m-3.646-.178l-1.875 2.171m1.875-2.171l2.595-1.034m-2.595 1.034l-1.167-1.624m6.357-.443l-2.595 1.033m-2.492 4.39h-1.555m1.555 0l-.813 2.08m2.871-6.596l1.485 1.338m-1.485-1.338l.592 2.076m-.592-2.076l-2.079 2.208m2.079-2.208l-3.328-.464m4.813 1.802l-.893.738m.893-.738l4.954-.857m-4.954.857l3.911 6.382m-3.911-6.382l4.954 1.678m-.786-5.123l-.878.726m-1.063-.601l1.267-.673m0 0l3.416-4.624m-3.416 4.624l-7.184-.74m7.184.74l-8.307 2.191m8.307-2.191l-1.083-2.976m-3.304 7.707l-4.628 1.255m4.628-1.255l-2.671.132m-1.957 1.123l.423 1.185m2.515-.252l-1.773 2.332m-5.435-7.755l4.978.695m-4.978-.695l3.051-1.118m5.689 2.403l3.462-5.757m0 0l4.499-1.648m-4.499 1.648l-6.101 2.236m6.101-2.236l-7.224 5.167m14.134.945l-4.367 2.535m4.367-2.535h-4.367m4.367 0l-5.41 7.239m5.41-7.239l1.044-4.705m-1.044 4.705l-1.044 4.704m-3.323-2.169l-1.043 4.704m1.043-4.704v-2.535m0 2.535l3.323 2.169m-3.323-4.704l5.411-4.705m-5.411 4.705l-1.664-1.862m-6.98-2.014l-1.123 2.931m1.123-2.931l-3.05 1.118m1.927 1.813l-1.927-1.813m1.927 1.813l-4.743 1.676m-26.987-232.534l-6.284 1.468m6.284-1.468l-3.993 3.346m3.993-3.346l-4.79-.856m-11.183 14.241l2.714-6.756m-2.714 6.756l-1.279-3.41m1.279 3.41l3.993-3.347m-6.55-3.473l-5.684.905m5.683-.905l2.327-3.744m-2.327 3.744l5.272.064m-5.272-.064l6.963-2.016m-6.963 2.016l-.98-3.292m.98 3.292l-3.331-1.194m3.331 1.194l1.279 3.41m-1.279-3.41l6.551 3.473m-12.234-2.568l2.352-2.099m-2.352 2.099l2.984-3.781m-2.984 3.781l.93-2.474m-.93 2.474l2.441-4.413m.09-2.315l1.086 1.265m-1.087-1.265l-.089 2.315m.09-2.315l1.173.056m-1.174-.056l-.377 1.004m.377-1.004l1.977 1.044m-1.977-1.044l-.885-4.773m.885 4.773l2.734-1.761m-2.734 1.761l-2.274-2.714m-2.275-2.714l3.664.655m-3.664-.655l7.283 3.667m-7.283-3.667l2.275 2.714m17.674 3.44l-7.157.27m7.157-.27l-4.204.573m4.204-.573l-4.391-.207m4.391.207l-3.295-3.179m3.295 3.179l-1.703 5.224m1.703-5.224l-5.284 3.081m5.284-3.081l2.291 1.878m-2.291-1.878l1.494-2.324m-14.72 4.129l5.526-2.168m-5.526 2.168l-1.087-1.266m1.087 1.266l-1.72.416m1.72-.416l2.081-.284m-2.082.284l2.981-2.278m-2.98 2.278l.435-2.387m-.436 2.387l-2.994-.347m2.995.347l-.764.681m6.29-2.849l-6.613.902m6.613-.902l.543.633m-.543-.633l-2.546-.11m2.546.11l-2.22 1.716m2.22-1.716l3.496.936m-3.496-.936l1.821.086m-1.821-.086l-3.445 1.884m-5.52 1.117l1.087 1.265m-1.087-1.265l1.176-1.049m-1.176 1.049l1.72-.417m-1.72.417l.444-1.18m-.444 1.18l3.242-2.32m-3.242 2.32l2.675-.152m-2.675.152l-.334.89m2.686-2.989l-1.176 1.05m1.176-1.05l1.522-1.121m-1.522 1.121l.087-1.209m-.087 1.209l7.7.363m-7.7-.363l-1.464-.261m1.464.261l-1.908.919m1.908-.919l.89-.221m-2.155 3.585l1.588-1.417m-1.588 1.417l.632-1.682m8.333-1.319l-.544-.632m.544.632l-3.307.451m3.307-.451l.734-1.179m-.734 1.179l2.222-1.109m-2.222 1.109l-3.633-1.375m3.633 1.375l-6.178-1.484m6.178 1.484l1.204-.164m-10.08.851l8.332-1.319m-8.332 1.319l1.263-2.259m-1.263 2.259l1.5.897m1.198-3.068l-1.435-.088m1.435.088l2.545.109m-2.545-.109l2.871 1.935m-2.871-1.935l-2.986.86m2.986-.86l2.817.426m-2.817-.426l.125-1.905m5.509 2.757l-2.817-.426m-4.972 2.377l-1.275-.763m1.275.763l-2.053 1.307m6.753-4.001l.326 1.826m-.326-1.826l-.899 1.994m.9-1.994l-3.178.791m3.177-.791l-2.42-2.014m2.746 3.84l-1.225.168m1.225-.168l4.636 1.728m-4.636-1.728l-1.048 7.154m1.048-7.154l2.945 3.808m2.771-4.588l-1.205.165m-.47-1.015l1.488.07m0 0l5.885-2.117m-5.885 2.117l-5.399-4.132m5.399 4.132l-8.275-2.28m8.275 2.28l1.096-2.972m-7.85 4.7l-4.632-1.243m4.632 1.243l-2.278-1.203m-2.354-.04l-.444 1.18m2.231 1.028l-3.01 1.042m.715-9.027l3.62 3.012m-3.62-3.012l3.248.58m3.063 4.763l6.679-3.023m0 0l4.789.855m-4.789-.855l-6.495-1.16m6.495 1.16l-9.37.692m10.962 7.711l-5.272-.063m5.272.063l-3.581-2.143m3.581 2.143l-9.265 3.283m9.265-3.283l3.994-3.346m-3.994 3.346l-3.993 3.346m-1.279-3.409l-3.993 3.346m3.993-3.346l1.691-2.08m-1.691 2.08l1.279 3.409m.412-5.489l7.575-1.203m-7.575 1.203l-.125-2.343m-4.381-5.077l-2.876 1.852m2.876-1.852l-3.247-.58m.371 2.432l-.371-2.432m.371 2.432l-5.008-.953m-45.569 84.537l-2.127 3.085m2.127-3.085l-3.073 1.508m3.073-1.508l-.213 2.722m-12.077 3.308l5.284-.184m-5.284.184l2.212 1.323m-2.212-1.323l3.073-1.507m1.35 4.153l-1.622 2.869m1.622-2.869l3.07-.541m-3.07.541l.861-2.83m-.86 2.83l2.633-3.344m-2.634 3.344l2.18 1.142m-2.18-1.142l.279 2.005m-.279-2.005l-2.211-1.323m2.211 1.323l-1.35-4.153m-.272 7.022l1.901-.864m-1.9.864l3.208-.886m-3.209.886l1.924-.033m-1.924.033l3.567-.477m1.665.386l-.715-.818m.715.818l-1.665-.386m1.665.386l.163-.638m-.163.638l-.78.014m.78-.014l-.404-1.252m.404 1.252l3.252 1.369m-3.252-1.369l1.726-1.131m-1.726 1.131l1.545 1.725m1.544 1.725l.163-2.081m-.163 2.081l-1.363-4.581m1.363 4.581l-1.544-1.725m.585-10.094l-1.423 3.775m1.423-3.775l-1.132 2.14m1.132-2.14l-.607 2.386m.607-2.386l1.7 2.358m-1.7-2.358l-4.018-.07m4.018.07l-3.106 2.247m3.106-2.247l-.946-1.577m.946 1.577l1.914-.363m-5.474 7.096l2.495-2.548m-2.495 2.548l.715.818m-.715-.818l-.593.841m.593-.841l.56-1.06m-.56 1.06l2.136-1.167m-2.136 1.167l1.776.215m-1.776-.215l-.268 1.666m.268-1.666l-.617.28m3.112-2.828l-1.78 3.366m1.78-3.366l-.358-.41m.358.41l-.36 1.381m.36-1.381l-1.605.865m1.605-.865l-.067-2.045m.067 2.045l.252-.99m-.252.99l-1.935 1.488m-1.746 2.742l-.715-.819m.715.819l.95-.432m-.95.432l.593-.841m-.593.841l.918-.016m-.918.016l2.212-1.298m-2.212 1.298l.569-1.402m-.569 1.402l-.692.012m2.593-.876l-.95.432m.95-.432l1.062-.603m-1.062.603l.878.18m-.878-.18l1.065-4.185m-1.065 4.185l-.066.832m.066-.832l-.983.848m.983-.848l.311-.434m-2.927.479l1.284-.583m-1.284.583l1.308-.022m2.373-4.208l.357.409m-.357-.409l-.89 1.684m.89-1.684l.967-.171m-.967.171l1.173-.98m-1.173.98l.356 2.2m-.356-2.2l-.004 3.582m.004-3.582l.324-.613m-2.34 5.23l2.373-4.208m-2.372 4.208l1.828-.252m-1.828.252l-.382-.97m2.394-.065l-.184.783m.184-.783l.359-1.382m-.36 1.382l-.886-1.898m.886 1.898l-1.127 1.435m1.127-1.435l.181-1.586m-.18 1.586l1.38.29m-1.02-3.463l-.18 1.587m-2.55 2.212l.325.825m-.325-.825l-1.285.853m4.014-2.861l-1.246-.516m1.246.516l-1.576.107m1.576-.107l-1.11 1.551m1.11-1.551l1.02 1.672m-2.266-2.188l-.33.623m.33-.623l-.436-2.803m.436 2.803l-5.281-.782m5.28.782l-2.208-2.289m3.747-.621l-.324.613m.643.442l.206-.809m0 0l2.52-2.749m-2.52 2.749l2.018 3.662m-2.018-3.662l.203 4.852m-.203-4.852l2.307-.028m-4.7 3.315l.09 2.71m-.09-2.71l.466 1.444m-.377 1.266l-.917.016m-.35-1.386l-1.26 1.414m6.56 1.311l-1.526-2.5m1.526 2.5l.145-1.845m-2.87-2.531l3.303-3.004m0 0l.214-2.721m-.214 2.721l-.289 3.69m.29-3.69l-2.105 4.88m-3.614-7.308l-.86 2.831m.86-2.831l.912 2.317m-.912-2.317l-3.933 4.338m3.933-4.338l3.072-1.507m-3.072 1.507l-3.072 1.508m2.211 1.323l-3.072 1.507m3.072-1.507l1.773-.514m-1.773.514l-2.211-1.323m3.984.809l2.16-3.824m-2.16 3.824l1.65.506m2.867 3.295l-1.815 1.19m1.815-1.19l-.144 1.845m-1.67-.655l1.67.655m-1.67-.655l-.182 2.856m37.174 40.866l-2.478 2.572m2.478-2.572l-.62 2.822m.62-2.822l-2.67.989m.192 10.301l-1.353-4.124m1.353 4.124l-1.972-1.302m1.972 1.302l.62-2.823m-4.564.22l-2.408 2.119m2.408-2.119l-.35-2.528m.35 2.528l2.591-1.521m-2.591 1.521l2.591-3.042m-2.591 3.042l-1.78-1.332m1.78 1.332l-2.094.393m2.094-.393l1.972 1.301m-1.972-1.301l4.563-.22m-6.971 2.339l.314-1.726m-.314 1.726l-.044-2.74m.044 2.74l-.527-1.492m.527 1.492l-.559-2.891m-.872-1.165l1.03.302m-1.03-.302l.872 1.165m-.872-1.165l.593-.319m-.593.319l.213.605m-.213-.605l1.375-.069m-1.375.069l-2.32-2.089m2.32 2.089l.633-1.672m-.633 1.672l-2.182-.666M65 290.59l2.042-.757M65 290.59l4.996-.34m-4.996.34l2.181.666m9.965-3.512l-3.377 2.24m3.377-2.24l-1.82 1.52m1.82-1.52l-2.22 1.192m2.22-1.192l-2.862-.594m2.862.594l1.239 3.073m-1.24-3.073l-1.352 3.073m1.353-3.073l1.858.25m-1.858-.25l-.192-1.583m-5.532 6.366l1.832-2.694m-1.832 2.694l-1.03-.303m1.03.303l-.672.711m.672-.711l.9-.753m-.9.753l.55-1.998m-.55 1.998l-.733-1.303m.733 1.303l-1.595.711m1.595-.711l-.102.56m1.934-3.254l-2.862 2.391m2.862-2.391l.515.151m-.515-.151l-1.282.696m1.282-.696l-.401 1.498m.401-1.498l2.073-.569m-2.073.569l.92-.494m-.92.494l-.931 1.941m-2.245 2.176l1.03.302m-1.03-.302l.157-.863m-.157.863l.672-.712m-.672.712l-.25-.712m.25.712l.66-2.097m-.66 2.097l1.242-.863m-1.242.863l.19.536m.124-2.262l-.157.863m.157-.863l.297-1m-.297 1l-.436-.621m.436.621l3.892-2.088m-3.892 2.088l-.816.303m.816-.303l-.565 1.014m.565-1.014l.346-.371m.37 2.399l.212-1.165m-.212 1.165l-.358-1.014m3.534-3.102l-.515-.152m.515.152l-1.431 1.195m1.43-1.195l-.109-.797m.11.797l.642-1.2m-.642 1.2l-2.313.393m2.313-.393l-3.595 1.088m3.595-1.088l.521-.436m-4.57 3.387l3.534-3.103m-3.534 3.103l-.279-1.484m.28 1.484h1.084m-.631-1.863l-.733.379m.733-.379l1.283-.695m-1.283.695l2.164.107m-2.164-.107l-1.113 1.303m1.113-1.303l1.54-.62m-1.54.62l-.693-.974m3.773-.266l-1.54.62m-1.479 2.634h-.923m.923 0l-.483 1.248m1.705-3.957l.88.802m-.88-.802l.35 1.245m-.35-1.245l-1.234 1.324m1.234-1.324l-1.976-.279m2.857 1.081l-.53.443m.53-.443l2.94-.514m-2.94.514l2.32 3.829m-2.32-3.829l2.94 1.007m-.466-3.074l-.522.436m-.63-.361l.751-.403m0 0l2.028-2.775m-2.028 2.775l-4.263-.444m4.263.444l-4.93 1.314m4.93-1.314l-.642-1.786m-1.961 4.624l-2.747.753m2.747-.753l-1.585.079m-1.162.674l.251.711m1.493-.151l-1.053 1.399m-3.225-4.653l2.954.417m-2.954-.417l1.81-.671m3.377 1.442l2.055-3.454m0 0l2.67-.989m-2.67.989l-3.62 1.342m3.62-1.342l-4.288 3.1m8.389.567l-2.592 1.521m2.592-1.521h-2.592m2.592 0l-3.211 4.343m3.21-4.343l.62-2.823m-.62 2.823l-.619 2.822m-1.972-1.301l-.62 2.822m.62-2.822v-1.521m0 1.521l1.972 1.301m-1.972-2.822l3.211-2.823m-3.21 2.823l-.989-1.117m-4.142-1.208l-.667 1.758m.667-1.758l-1.81.67m1.143 1.088l-1.143-1.088m1.143 1.088l-2.815 1.006M21 163.007l3.08 2.038M21 163.007l3.31.436m-3.31-.436l1.242 2.256m11.995-.511l-4.76 1.298m4.76-1.298l-1.45 1.734m1.45-1.734l-3.31-.436m.41 3.905l2.55 1.993m-2.55-1.993l-2.933.384m2.933-.384l-1.86-2.171m1.86 2.171l-3.631-2.12m3.63 2.12l-1.491 1.571m1.492-1.571l.528 1.782m-.528-1.782l1.45-1.735m-1.45 1.735l-.41-3.905m2.96 5.898l-2.022-.211m2.021.211l-3.19.13m3.19-.13l-1.72.502m1.72-.502l-3.349.576m-1.328.787l.318-.893m-.318.893l1.328-.787m-1.328.787l-.391-.498m.39.498l.699-.203m-.698.203l-.126-1.176m.126 1.176l-2.356 2.06m2.356-2.06l-1.97-.487m1.97.487l-.703 1.893m-.703 1.892l-.95-1.725m.95 1.725l-.563-4.272m.563 4.272l.703-1.892m-4.425-8.425l2.723 2.82m-2.723-2.82l1.832 1.508m-1.832-1.508l1.462 1.863m-1.462-1.863l-.597 2.473m.597-2.473l3.538-1.166m-3.538 1.166l3.625 1.056m-3.625-1.056l.228-1.602m-.228 1.602l-1.839.218m7.603 4.529l-3.2-1.481m3.2 1.481l-.318.892m.318-.892l.851.552m-.851-.552l-.907-.748m.907.748l-2.347-.405m2.347.405l-1.493.672m1.493-.672l.882 1.343m-.882-1.343l.656.068m-3.856-1.549l2.882 2.373m-2.882-2.373l.159-.446m-.16.446l.854 1.076m-.853-1.076l1.759.294m-1.76-.294l-.731-1.758m.732 1.758l-.607-.772m.607.772l2.293.733m2.61 1.852l.317-.893m-.318.893l-1.01-.106m1.01.106l-.85-.552m.85.552l-.82.239m.82-.239l-2.464-.495m2.464.495l-1.046-1.036m1.046 1.036l.62-.18m-2.64-.032l1.01.106m-1.01-.106l-1.175-.22m1.175.22l-.71.395m.71-.395l-2.564-3.266m2.564 3.266l.38.69m-.38-.69l1.2.451m-1.2-.451l-.444-.283m2.782-.398l-1.364-.143m1.364.143l-1.169.341m-3.733-2.926l-.16.447m.16-.447l1.44 1.187m-1.44-1.187l-.925.121m.925-.121l-1.42-.51m1.42.51l.535 1.969m-.535-1.969l1.389 3.046m-1.39-3.046l-.524-.432m4.099 3.804l-3.733-2.925m3.733 2.925l-1.72.289m1.72-.289l-.036-.93m-2.15.604l.467.615m-.466-.615l-.854-1.077m.854 1.077l.052-1.859m-.052 1.859l1.555.91m-1.555-.91l-.774-1.3m.774 1.3l-1.112.626m-.436-3.225l.774 1.299m3.118 1.18l.031.791m-.03-.791l1.47.372m-4.669-1.329l.906-.782m-.906.782l1.44-.343m-1.44.343l1.585 1.014m-1.585-1.014l-.258 1.703m1.164-2.485l.534.439m-.534-.439l-.698-2.504m.698 2.504l4.383-2.119m-4.383 2.119l1.074-2.555m-3.565.503l.525.433m-.4.553l-.495-.631m0 0l-3.3-1.645m3.3 1.645l-.374 3.67m.374-3.67l1.697 4.182m-1.697-4.182l-2.059.61m5.454 1.526l.969 2.33m-.97-2.33l.146 1.357m.824.973l.82-.239m-.226-1.275l1.665.856m-5.313 2.921l.387-2.547m-.387 2.547l-.842-1.53m1.567-2.943l-4.094-1.646m0 0l-1.242-2.255m1.242 2.255l1.685 3.06m-1.685-3.06l3.756 3.572m.379-7.211l1.859 2.171m-1.86-2.171l.088 2.222m-.087-2.222l5.168 2.607m-5.168-2.607l-3.31-.436m3.31.436l3.309.437m-1.45 1.734l3.309.436m-3.31-.436l-1.771.051m1.772-.051l1.45-1.734m-3.223 1.785l-3.396-2.658m3.396 2.658l-1.267.885m-1.27 3.592l2.072.512m-2.071-.512l.842 1.529m1.229-1.017l-1.229 1.017m1.229-1.017l1.266 2.38m36.519 200.059l4.994 3.587m-4.994-3.587l5.482.901m-5.482-.901l1.917 3.861m20.014-.26l-8.015 1.948m8.015-1.948l-2.532 2.848m2.532-2.848l-5.483-.9m.419 6.596l4.112 3.485m-4.112-3.485l-4.911.501m4.91-.501l-2.95-3.748m2.95 3.748l-5.905-3.75m5.906 3.75l-2.59 2.571m2.59-2.571l.76 3.028m-.76-3.028l2.532-2.848m-2.532 2.848l-.419-6.596m4.531 10.081l-3.351-.457m3.351.457l-5.322.058m5.322-.058l-2.898.758m2.898-.758l-5.617.802m-2.265 1.259l.59-1.487m-.59 1.487l2.265-1.259m-2.265 1.259l-.618-.858m.618.858l1.176-.307m-1.176.307l-.131-1.988m.13 1.988l-4.061 3.351m4.062-3.351l-3.247-.918m3.247.918l-1.298 3.152m-1.297 3.152l-1.467-2.953m1.467 2.953l-.652-7.222m.652 7.222l1.297-3.152m-6.805-14.408L74.365 382m-4.346-4.884l2.95 2.631m-2.95-2.631l2.31 3.209m-2.31-3.209l-1.16 4.135m1.16-4.135l5.971-1.786m-5.97 1.786l5.966 1.96m-5.967-1.96l.488-2.686m-.488 2.686l-3.077.274m12.36 8.007l-5.232-2.653m5.231 2.653l-.59 1.488m.59-1.488l1.381.972m-1.38-.972l-1.462-1.303m1.461 1.303l-3.881-.798m3.881.798l-2.532 1.057m2.532-1.057l1.38 2.306m-1.38-2.306l1.088.148m-6.319-2.801l4.641 4.141m-4.64-4.141l.294-.744m-.295.744l1.35 1.855m-1.35-1.855l2.91.583m-2.91-.583l-1.101-2.997m1.101 2.997l-.958-1.331m.958 1.331l3.77 1.35m4.223 3.248l.59-1.488m-.59 1.488l-1.676-.229m1.676.229l-1.38-.973m1.38.973l-1.383.361m1.383-.361l-4.072-.958m4.072.958l-1.674-1.797m1.674 1.797l1.043-.273m-4.395-.184l1.676.228m-1.676-.228l-1.942-.431m1.942.431l-1.207.629m1.207-.629l-4.05-5.629m4.05 5.629l.587 1.18m-.587-1.18l1.97.818m-1.97-.818l-.72-.501m4.662-.53l-2.264-.309m2.264.309l-1.97.515m-6.023-5.113l-.295.744m.295-.744l2.32 2.071m-2.32-2.071l-1.548.157m1.548-.157l-2.33-.931m2.33.931l.76 3.343m-.76-3.343l2.109 5.198m-2.109-5.198l-.845-.754m6.572 6.611L74.365 382m6.022 5.113l-2.883.401m2.883-.401l.002-1.568m-3.62.909l.735 1.06m-.735-1.06l-1.35-1.855m1.35 1.855l.212-3.127m-.212 3.127l2.53 1.611m-2.53-1.611l-1.202-2.227m1.202 2.227l-1.894 1m-.51-5.454l1.202 2.227m5.115 2.142l-.002 1.334m.002-1.334l2.424.7m-7.686-2.47l1.56-1.272m-1.56 1.272l2.42-.505m-2.42.505l2.57 1.785m-2.57-1.785l-.545 2.855m2.106-4.127l.86.767m-.86-.767l-.995-4.251m.995 4.251l7.443-3.349m-7.443 3.349l1.96-4.249m-5.972.669l.846.755m-.703.911l-.782-1.088m0 0l-5.388-2.935m5.388 2.935l-.87 6.162m.87-6.162l2.545 7.129m-2.546-7.129l-3.47.926m8.981 2.843l1.458 3.971m-1.458-3.971l.15 2.29m1.308 1.681l1.382-.362m-.291-2.158l2.717 1.524m-9.046 4.654l.815-4.269m-.815 4.269l-1.3-2.618m2.807-4.878l-6.707-2.976m0 0l-1.918-3.861m1.918 3.861l2.6 5.236m-2.6-5.236l6.015 6.203m1.115-12.124l2.951 3.748m-2.95-3.748l-.005 3.746m.004-3.746l8.434 4.648m-8.434-4.648l-5.483-.9m5.483.9l5.483.9m-2.532 2.848l5.483.9m-5.483-.9l-2.955-.002m2.955.002l2.532-2.848m-5.487 2.846l-5.479-4.646m5.479 4.646l-2.171 1.426m-2.355 5.985l3.415.967m-3.415-.967l1.3 2.618m2.115-1.651l-2.115 1.651m2.115-1.651l1.95 4.07" stroke="#fff" stroke-width=".5" stroke-linecap="round" stroke-linejoin="round"/><defs><filter id="filter0_d" x="93.486" y="233.72" width="289.94" height="281.154" filterUnits="userSpaceOnUse" color-interpolation-filters="sRGB"><feFlood flood-opacity="0" result="BackgroundImageFix"/><feColorMatrix in="SourceAlpha" values="0 0 0 0 0 0 0 0 0 0 0 0 0 0 0 0 0 0 127 0" result="hardAlpha"/><feOffset/><feGaussianBlur stdDeviation="50"/><feColorMatrix values="0 0 0 0 0.133333 0 0 0 0 0.711111 0 0 0 0 1 0 0 0 1 0"/><feBlend in2="BackgroundImageFix" result="effect1_dropShadow"/><feBlend in="SourceGraphic" in2="effect1_dropShadow" result="shape"/></filter><filter id="filter1_d" x=".55" y=".079" width="434.396" height="466.118" filterUnits="userSpaceOnUse" color-interpolation-filters="sRGB"><feFlood flood-opacity="0" result="BackgroundImageFix"/><feColorMatrix in="SourceAlpha" values="0 0 0 0 0 0 0 0 0 0 0 0 0 0 0 0 0 0 127 0" result="hardAlpha"/><feOffset/><feGaussianBlur stdDeviation="50"/><feColorMatrix values="0 0 0 0 0.133333 0 0 0 0 0.711111 0 0 0 0 1 0 0 0 1 0"/><feBlend in2="BackgroundImageFix" result="effect1_dropShadow"/><feBlend in="SourceGraphic" in2="effect1_dropShadow" result="shape"/></filter><filter id="filter2_d" x="75.225" y="168.292" width="197.835" height="215.651" filterUnits="userSpaceOnUse" color-interpolation-filters="sRGB"><feFlood flood-opacity="0" result="BackgroundImageFix"/><feColorMatrix in="SourceAlpha" values="0 0 0 0 0 0 0 0 0 0 0 0 0 0 0 0 0 0 127 0" result="hardAlpha"/><feOffset dx="-15" dy="-20"/><feGaussianBlur stdDeviation="25"/><feColorMatrix values="0 0 0 0 0.1875 0 0 0 0 0.729167 0 0 0 0 1 0 0 0 1 0"/><feBlend in2="BackgroundImageFix" result="effect1_dropShadow"/><feBlend in="SourceGraphic" in2="effect1_dropShadow" result="shape"/></filter></defs></svg>