<svg width="252" height="283" fill="none" xmlns="http://www.w3.org/2000/svg"><path d="M121.696 240.579l-.874-3.264.885-5.833 5.938-2.64 1.107-2.395 3.916-1.049 6.129-5.84 4.242-1.136 3.916-1.05 3.916-1.049 4.895-1.311 5.85-2.967 5.612-2.553.029 6.637 3.031 4.784-2.476 3.812 5.116 2.126-1.736 3.963 4.44.908-.972 5.507 4.114.996c-.441 1.401-1.335 4.415-1.387 5.268l.121.288c.638.709 3.638 1.235 5.235 1.425l-2.453 5.204-2.453 5.204-2.674 1.766-.256 4.265c-.503.704-1.191 1.682-1.886 2.696-1.148 1.673-2.317 3.444-2.713 4.248l-.115.265c-.172.51-1.373 1.742-2.717 3.002a92.551 92.551 0 01-3.086 2.75l-3.413-.492-2.954-.425-3.183-.459-3.183-.458-8.403-2.645-5.542-3.062-5.542-3.062.908-4.44-4.289-1.649 1.649-4.289-3.747-3.543 1.911-3.31-2.753-.486-2.754-.486 1.497-3.549-2.896-1.672z" fill="#22B5FF" fill-opacity=".01"/><path d="M120.822 237.315l.874 3.264m-.874-3.264l.885-5.833m-.885 5.833l26.076-13.632m-26.076 13.632l28.377-5.043m-28.377 5.043l19.859-1.589m-19.859 1.589l6.823-8.473m-6.823 8.473l11.815 1.674m-10.941 1.59l2.896 1.672m-2.896-1.672l25.202-16.896m-25.202 16.896l27.503-8.307m-27.503 8.307l5.949-11.737m-3.053 13.409l-1.497 3.549m1.497-3.549l22.306-18.568m-22.306 18.568l3.053-13.409m-3.053 13.409l8.076-16.853m-8.076 16.853l14.205-22.693m-14.205 22.693l18.447-23.829m-18.447 23.829l4.023-1.631m-4.023 1.631l2.005 2.261m-2.005-2.261l1.257 4.035m-1.257-4.035l6.791 3.479m-8.288.07l7.524-2.92m-7.524 2.92l2.754.486m-2.754-.486l5.52-5.18m-.013 6.152l-1.911 3.31m1.911-3.31l.013-6.152m-.013 6.152l-2.005-2.26m2.005 2.26l2.017-3.892m-2.017 3.892l2.781-1.042m-2.781 1.042l-2.753-.486m2.753.486l1.836 6.853m-1.836-6.853l6.29 5.202m-8.201-1.892l3.747 3.543m-3.747-3.543l15.578-8.431m-15.578 8.431l13.371-.025m-13.371.025l20.927-2.827m-20.927 2.827l4.692-4.352m-4.692 4.352l8.201 1.892m-4.454 1.651l-1.649 4.289m1.649-4.289l3.686-8.922m-3.686 8.922l19.459-14.832m-19.459 14.832l4.454-1.651m-4.454 1.651l17.543.533m-17.543-.533l13.718 1.92m-13.718-1.92l9.335 3.51m-9.335-3.51l2.64 5.938m-2.64-5.938l5.988 4.724m-7.637-.435l4.289 1.649m-4.289-1.649l15.367-2.369m-15.367 2.369l6.103-5.94m-6.103 5.94l11.273-7.857m-11.273 7.857l10.984-.779m-10.984.779l18.829-10.659m-18.829 10.659l7.637.435m-3.348 1.214l-.908 4.44m.908-4.44l1.814-7.589m-1.814 7.589l6.984-9.506m-6.984 9.506l10.762-10.907m-10.762 10.907l3.348-1.214m-3.348 1.214l10.176 10.564m-11.084-6.124c3.974 1.095 12.069 3.455 12.648 4.131m-12.648-4.131l4.256-5.654m-4.256 5.654l7.603-6.868m-7.603 6.868c3.809-2.752 11.539-8.296 11.986-8.458m-11.986 8.458l15.811-9.845m-15.811 9.845l19.397-11.145m-19.397 11.145l14.213 2.138m-14.213-2.138l24.107-4.011m-24.107 4.011l30.522-7.479m-30.522 7.479l14.068-.688m-14.068.688l9.921-3.709m-9.921 3.709l5.542 3.062m5.542 3.062l8.403 2.645m-8.403-2.645l1.564-1.993m-1.564 1.993l-6.828-11.778m6.828 11.778l-3.481-12.992m3.481 12.992l.902-14.582m-.902 14.582l2.879-9.728m-2.879 9.728l-5.542-3.062m13.945 5.707l4.62-12.78m-4.62 12.78l-3.42-2.319m3.42 2.319l2.95-1.84m-2.95 1.84l11.035-16.248m-11.035 16.248l3.183.458m-3.183-.458l9.316-.923m3.417 2.757l4.843-16.514m-4.843 16.514l.75-8.945m-.75 8.945l-9.783-3.674m9.783 3.674l-3.417-2.757m3.417 2.757a92.551 92.551 0 003.086-2.75m-3.086 2.75l-3.171-7.102m3.171 7.102l-3.413-.492m9.216-5.26l-9.22 2.995m9.22-2.995l-5.053-3.193m5.053 3.193c-.172.51-1.373 1.742-2.717 3.002m2.717-3.002a722.242 722.242 0 00-.359-4.603m.359 4.603l-15.586 2.078m15.586-2.078l4.97-11.474m-4.97 11.474c.203-.601 1.529-2.62 2.828-4.513m-2.828 4.513l-8.974-1.35m13.688-5.859l.256-4.265m-.256 4.265l-5.674-3.553m5.674 3.553l-4.883 2.008m4.883-2.008c-.503.704-1.191 1.682-1.886 2.696m2.142-6.961l2.674-1.766m-2.674 1.766l-5.93.712m5.93-.712l-1.838-6.858m1.838 6.858l2.871-9.516m-2.871 9.516l-5.139 6.273m7.813-8.039l-8.604 2.478m8.604-2.478l.197-7.75m-.197 7.75l-4.512-5.092m4.512 5.092l2.453-5.204m2.453-5.204c-1.807-.215-5.407-.86-5.356-1.713m5.356 1.713l-13.51 12.886m13.51-12.886l-24.163 5.108m24.163-5.108l-10.775.253m10.775-.253l-4.709 2.658m4.709-2.658l-2.453 5.204m-2.903-6.917c.052-.853.946-3.867 1.387-5.268m-1.387 5.268l-5.419 1.966m5.419-1.966l-2.727-6.264m2.727 6.264l-10.044-3.551m10.044 3.551l-15.294-1.605m15.294 1.605l-18.813-.3m18.813.3l-22.333 1.005m22.333-1.005l-26.051 2.384m26.051-2.384l-6.386-4.907m6.386 4.907l-4.062 7.029m4.062-7.029l-9.378 10.03m9.378-10.03l.647 4.371m-.647-4.371l2.903 6.917m-1.516-12.185l-4.114-.996m4.114.996l-11.431 1.717m11.431-1.717l-16.681 3.663m16.681-3.663l-12.225 9.199m12.225-9.199l-6.806 7.234m2.692-8.23l.972-5.507m-.972 5.507l-3.468-6.415m3.468 6.415l-8.156-4.659m8.156 4.659l-24.763 1.564m24.763-1.564l-12.844-2.902m12.844 2.902l-18.406-.818m18.406.818l-2.692 8.23m2.692-8.23l-12.042 11.621m12.042-11.621l-8.111 10.195m8.111-10.195l-3.659 1.357m4.631-6.864l-4.44-.908m4.44.908l-8.289 8.22m8.289-8.22l-9.128.848m9.128-.848l-13.816 2.605m13.816-2.605l-13.539 10.166m9.099-11.074l1.736-3.963m-1.736 3.963l-4.688 1.756m4.688-1.756l-3.38-6.089m3.38 6.089l-4.034-2.167m4.034 2.167l-3.849 9.128m3.849-9.128l-12.618 12.379m14.354-16.342l-5.116-2.126m5.116 2.126l-6.424 5.719m6.424-5.719l-5.77 1.796m5.77-1.796l-7.443-1.183m7.443 1.183l-14.423 1.647m9.307-3.773l2.476-3.812m-2.476 3.812l-20.914-1.042m20.914 1.042l-12.046-9.713m12.046 9.713l-6.196-12.68m6.196 12.68l-.654 3.922m.654-3.922l-2.327.943m4.803-4.755l-3.031-4.784m3.031 4.784l-23.39 2.77m23.39-2.77l-8.672-8.868m8.672 8.868l-11.783 7.585m8.752-12.369l-.029-6.637m.029 6.637l-20.359 7.554m20.359-7.554l-18.058 16.143m18.058-16.143l-4.099 10.482m4.07-17.119l-5.612 2.553m5.612-2.553l-20.33 14.191m20.33-14.191l-18.029 22.78m18.029-22.78l-8.723 19.006m3.111-16.453l-5.85 2.967m5.85-2.967l-14.718 11.638m14.718-11.638l-12.417 20.227m12.417-20.227l-3.111 16.453m-2.739-13.486l-4.895 1.311m4.895-1.311l-8.868 8.671m8.868-8.671l-6.567 17.26m6.567-17.26l-15.085 20.714m15.085-20.714l2.739 13.486m-2.739-13.486l-1.914 15.373m1.914-15.373l7.392 11.599m-7.392-11.599l-23.098 10.386m18.203-9.075l-3.973 7.36m3.973-7.36l-1.672 15.949m1.672-15.949l-3.916 1.049m-3.916 1.05l-4.242 1.136m4.242-1.136l3.859 5.261m-3.859-5.261l-2.358 17.304m2.358-17.304l-10.402 20.567m10.402-20.567l15.466 10.076m-15.466-10.076l3.916-1.05m-8.158 2.186l-6.129 5.84m6.129-5.84l8.101 4.125m-8.101-4.125l10.402 12.714m-10.402-12.714l-6.16 19.431m.031-13.591l-3.916 1.049m3.916-1.049l14.23-1.715m-14.23 1.715l16.531 6.874m-16.531-6.874l8.013 10.328m-8.013-10.328l-.031 13.591m-3.885-12.542l-1.107 2.395m1.107-2.395l20.447 5.825m-20.447-5.825l11.929 9.279m-11.929-9.279l3.885 12.542m-4.992-10.147l-5.938 2.64m5.938-2.64l19.253-5.159m-19.253 5.159l21.554 3.43m-21.554-3.43l13.036 6.884m-13.036-6.884l4.992 10.147m-10.93-7.507l27.492.79m-27.492-.79l18.974 4.244m-18.974-4.244l10.93 7.507m14.261-15.306l-6.217 12.043m6.217-12.043l2.301 8.589m-2.301-8.589l11.607 4.815m-11.607-4.815l6.954 6.702m-6.954-6.702l.057-6.311m-6.274 18.354l4.259-1.727m-4.259 1.727l.794 2.963m-.794-2.963l-4.022 1.631m4.022-1.631l-3.815 7.95m3.815-7.95l6.673 4.02m-6.673-4.02l11.759 2.114m-11.759-2.114l3.32 3.581m5.198-7.035l3.241 5.568m-3.241-5.568l-4.259 1.727m4.259-1.727l-1.733 2.345m1.733-2.345l2.327-.943m-2.327.943l8.261-.101m-8.261.101l3.947 1.841m-20.509 4.876l-4.022 1.631m4.022-1.631l-2.018 3.891m2.018-3.891l4.229 4.687m-4.229-4.687l1.487 5.714m-1.487-5.714l4.022-1.632m21.846-8.859l4.653-1.887m-4.653 1.887l3.311 5.829m-3.311-5.829l3.982 1.971m-3.982-1.971l-1.045 3.673m1.045-3.673l-2.326.944m-2.327.943l-6.897-13.013m6.897 13.013l-.706 3.728m.706-3.728l2.402 6.026m-2.402-6.026l-2.326.944m2.326-.944l3.608 1.786m-3.608-1.786l8.635.084m-8.635-.084l2.327-.943m6.979-2.831l3.346 5.959m-3.346-5.959l-.671 3.858m.671-3.858l-6.904 9.8m6.904-9.8l4 2.036m-4-2.036l2.327-.943m-36.87 14.952l-2.018 3.892m2.018-3.892l2.004 2.26m-2.004-2.26l8.251 3.056m-8.251-3.056l13.654 1.031m-15.672 2.861l-.748 1.774m4.77-3.406l.764 2.85m-.764-2.85l3.505 1.823m-2.741 1.027l3.375-7.31m-3.375 7.31l2.741-1.027m-2.741 1.027l3.509 6.244m-.134-13.554l2.108 5.256m-2.108-5.256l7.511 3.231m-7.511-3.231l6.717.269m-6.717-.269l-.634 6.283m2.742-1.027l-2.742 1.027m2.742-1.027l5.403-2.025m-5.403 2.025l-.207-6.319m.207 6.319l4.609-4.987m-4.609 4.987c-.485 2.542-1.558 7.761-1.974 8.298m1.974-8.298l6.974 4.98m-6.974-4.98l14.47 2.201m-17.212-1.174l5.938 5.354m-5.938-5.354l13.494 2.552m-13.494-2.552l.768 7.271m7.377-10.323l-.794-2.962m.794 2.962l1.732-2.344m-1.732 2.344l2.543-.952m-2.543.952l2.671-7.652m-2.671 7.652l-5.61-4.294m5.61 4.294l-2.207 8.406m2.207-8.406l5.349 5.604m-5.349-5.604l12.785 2.847m-12.785-2.847l19.824.237m-19.824-.237l-7.377 10.323m7.377-10.323l1.571 7.005m-1.571-7.005l9.067 4.226m1.104-8.037l3.814-1.429m-3.814 1.429l.706-3.727m-.706 3.727l-2.543.953m2.543-.953l-4.974-3.223m4.974 3.223l-.914-6.511m.914 6.511l5.02-5.669m-5.02 5.669l-1.104 8.037m1.104-8.037l6.134 5.353m3.242-8.866l4.688-1.757m-4.688 1.757l5.342-5.68m-5.342 5.68l.671-3.858m-.671 3.858l-5.562 2.084m5.562-2.084l-10.29-2.998m10.29 2.998l-8.67-.214m8.67.214l-4.235-2.096m4.235 2.096l-5.637-4.885m5.637 4.885l.277 7.561m-.277-7.561l5.527 5.615m-5.527-5.615l-14.198 12.928m14.198-12.928l-10.48 11.55m10.48-11.55l-3.242 8.866m7.93-10.623l.654-3.923m-.654 3.923l-4.017-2.101m4.017 2.101l-10.325-3.128m10.325 3.128l-9.044-.399m9.044.399l-1.019-6.902m1.019 6.902l.839 7.372m-.839-7.372l-4.411 9.318m4.411-9.318l-11.45 11.928m11.45-11.928l-7.93 10.623m8.584-14.546c-.294.079-3.236 1.248-4.671 1.822m0 0l-6.233 5.942m6.233-5.942l-6.308-1.027m6.308 1.027l2.998-4.801m-9.231 10.743l-3.108-2.298m3.108 2.298l-8.788-1.794m8.788 1.794l-4.728-5.082m4.728 5.082l1.206-4.24m-1.206 4.24l-.075-6.969m.075 6.969l-1.2 8.087m1.2-8.087l5.839 5.477m-5.839-5.477l-16.192 13.646m16.192-13.646l-4.918 9.466m4.918-9.466l2.32 6.782m-5.428-9.08l-5.792 5.633m5.792-5.633l-8.206-.114m8.206.114l4.314-1.942m-10.106 7.575l-1.62-2.784m1.62 2.784l-2.542.953m2.542-.953l2.543-.953m-2.543.953l.112-5.129m-.112 5.129l3.982 6.131m-5.602-8.915l-.794-2.963m.794 2.963l-1.733 2.345m1.733-2.345l1.732-2.345m-2.526-.618l-3.465 4.69m3.465-4.69l2.526.618m-5.991 4.072l2.526.618m0 0l.811 1.392m0 0l2.654-6.082m-2.654 6.082l-.972 7.957m.972-7.957l6.524 5.178m-3.87-11.26l2.431 4.176m0 0l-13.238-1.436m13.238 1.436l-2.279 8.462m2.279-8.462l5.157 5.705m-5.157-5.705l17.446 1.149m-17.446-1.149l8.677 4.4m-1.114-11.022l.121.06m-1.402-2.789l1.402 2.789m-17.519 17.826l-5.17 1.917m5.17-1.917l3.778-1.401m-3.778 1.401l-.289 7.078m.289-7.078l4.094 5.488m-4.094-5.488l15.012 1.529m-15.012-1.529l11.505 2.801m-3.949-5.603l-3.778 1.401m3.778-1.401l3.718-1.378m-3.718 1.378l.363 6.903m-.363-6.903l3.949 5.603m-3.949-5.603l24.35-1.796m-24.35 1.796l18.931.169m-18.931-.169l10.962 3.059m-10.962-3.059l7.456 4.331m-7.456-4.331l-3.462 8.29m10.898-11.047l-3.718 1.379m3.718-1.379l3.52-1.305m-3.52 1.305l.02 7.088m-.02-7.088l3.526 5.816m-3.526-5.816l-7.073 9.66m14.112-12.27l5.25-1.946m-5.25 1.946l-3.519 1.305m3.519-1.305l.525 6.962m-.525-6.962l4.456 5.536m-4.456-5.536l-7.019 9.698m7.019-9.698l-3.513 8.426m8.763-10.372l-.794 7.482m.794-7.482l4.625 5.517m-4.625-5.517l-8.763 10.372m8.763-10.372l-4.725 8.908m4.725-8.908l3.658-1.356m-36.109 13.388l4.881 5.161m-4.881-5.161l16.675.884m-16.675-.884l13.089 2.184m-13.089-2.184l1.534 6.375m7.414-9.693l.316 6.889m-.316-6.889l4.141 5.502m-4.141-5.502l18.778.194m-18.778-.194l14.74 1.658m-14.74-1.658l-4.067 8.479m11.563-11.258l.231 6.981m-.231-6.981l3.738 5.709m-3.738-5.709l20.632-.418m-20.632.418l15.213 1.547m-15.213-1.547l11.282 2.973m-11.282-2.973l-7.18 9.668m14.418-12.352l.006 7.121m-.006-7.121l4.044 5.657m-4.044-5.657l13.394 2.266m-13.394-2.266l-7.007 9.665m-11.794 4.277l4.383-1.59m-4.383 1.59l-3.347 1.214m3.347-1.214l5.045 10.999m-5.045-10.999l6.36 3.264m-6.36-3.264l9.882 1.477m-9.882-1.477l2.318 3.159m-2.318-3.159l-2.061 9.93m6.444-11.52l3.825-1.387m-3.825 1.387l7.174 7.521m-7.174-7.521l12.121 4.447m-12.121-4.447l1.977 4.854m-1.977-4.854l5.656-.099m-5.656.099l-2.065 4.749m5.89-6.136l3.586-1.3m-3.586 1.3l7.356 1.183m-7.356-1.183l20.028-.635m-20.028.635l-1.848 6.241m1.848-6.241l1.674 4.454m-1.674-4.454l1.831 1.288m1.755-2.588l3.507-1.272m-3.507 1.272l11.125 3.666m-11.125-3.666l16.442.665m-16.442-.665l4.71 7.134m-4.71-7.134l-.237 10.208m.237-10.208l-1.755 2.588m5.262-3.86l3.506-1.272m-3.506 1.272l12.935 1.937m-12.935-1.937l18.251-1.064m-18.251 1.064c.029 1.036.124 3.238.263 3.755m3.243-5.027l4.038-1.464m-4.038 1.464l14.745.208m-14.745-.208l9.429 3.209m-9.429-3.209l4.112 6.21m-4.112-6.21l-2.303 9.678m2.303-9.678l-3.243 5.027m3.243-5.027l.904 7.944m3.134-9.408l3.931-1.426m-3.931 1.426l10.707 1.672m-10.707-1.672l5.391 4.673m-5.391-4.673l-7.281 6.491m7.281-6.491c.136 2.295.342 7.043.074 7.674m-.074-7.674l15.416-.986m-15.416.986l-3.134 9.408m7.065-10.834l5.419-1.965m-5.419 1.965l4.452-8.838m-4.452 8.838l6.776 3.098m-6.776-3.098l1.46 6.099m-1.46-6.099l-3.857 9.1m3.857-9.1l11.485.44m-6.066-2.405l-.967-6.873m.967 6.873l1.357 5.063m-1.357-5.063c-1.385 2.415-4.116 7.409-3.959 8.064m3.959-8.064l6.066 2.405m-41.608 10.485l9.957 7.792m-9.957-7.792l8.392 9.785m-8.392-9.785l1.286 8.716m8.671-.924l11.174 2.951m-11.174-2.951l-1.565 1.993m1.565-1.993l4.947-3.075m-4.947 3.075l8.954-10.8m-8.954 10.8l-.25-5.742m.25 5.742l-4.292-5.847m4.292 5.847l-8.671.924m19.845 2.027l-2.95 1.84m2.95-1.84l6.359-7.999m-6.359 7.999l-1.28-9.1m1.28 9.1l11.676-11m-11.676 11l3.416 2.757m-3.416-2.757c.968-.413 2.345-1.008 3.662-1.588m-3.662 1.588l9.919 2.764m-9.919-2.764l.466 4.597m-1.746-13.697l8.863 5.669m-8.863-5.669l-4.947 3.074m4.947-3.074l12.956-1.9m-12.956 1.9l-.94-4.651m.94 4.651l-6.465-4.546m6.465 4.546l3.207-1.734m5.656 7.403l-13.81-2.595m13.81 2.595l-1.224-4.568m1.224 4.568l4.093-7.569m-4.093 7.569l-4.167 6.188m4.167-6.188l2.336 6.195m-2.336-6.195l4.884-2.008m-4.884 2.008c-.21.181-2.002.997-3.921 1.843m3.921-1.843l7.881-1.32m-10.329-7.817l1.224 4.569m-1.224-4.569l6.541 1.568m-6.541-1.568l5.317-3.001m-5.317 3.001l-7.355-1.183m7.355 1.183l-3.208 1.734m-14.666 9.876l3.419 2.319m-3.419-2.319l-7.106-1.069m10.525 3.388l3.093-7.387m0 0l3.277 7.866m-3.277-7.866l12.586-1.973m-12.586 1.973l4.007-7.725m-4.007 7.725l-5.197-2.667m5.197 2.667l-5.092.249m5.092-.249l-1.675-4.454m4.952 12.32l3.416 2.757m-3.416-2.757l6.366.917m-6.366-.917c.056.684.181 2.102.233 2.298m9.076-12.137l5.317-3.001m-5.317 3.001l6.108 2.56m-6.108-2.56l-2.697 6.411m12.106-16.982l-4.092 7.57m4.092-7.57l-5.316 3.001m5.316-3.001l4.709-2.658m-4.709 2.658l6.965-.112m-11.057 7.682l-1.224-4.569m1.224 4.569c.111.413.366 3.272.601 6.159m-.601-6.159l3.788 6.249m-5.012-10.818l-12.672 1.818m0 0l-9.204 5.058m9.204-5.058l-9.099 7.974m9.099-7.974l-13.246 4.953m13.246-4.953l4.147 2.917m-13.351 2.141l3.679-4.953m-3.679 4.953l-4.042-.105m7.564-1.682l.157-3.166m-.157 3.166l9.829-.354m-17.393 2.036l-4.379 6.771m23.261 4.784l9.051-8.196m-9.051 8.196l-2.95 1.84m2.95-1.84l.246-4.345m-.246 4.345l.004 2.265m-.004-2.265l-6.133 1.381m6.133-1.381l6.503.007m0 0l2.358-7.605m-2.358 7.605l-6.257-4.352m8.805-3.851l2.997.688m-14.998 9.348l2.954.425m-2.954-.425l-3.183-.459m3.183.459l3.196-6.185m-57.272-166.265l4.044-3.182c-1.038.045-2.459-.04-5.157.332m1.113 2.85l-1.113-2.85m1.113 2.85l-4.464-2.301m4.464 2.301c-.14-.522-3.279-.054-4.831.245m3.718-3.094l-3.351.548m3.351-.549l-3.718 3.095m.367-2.546l-.367 2.546m.367-2.546c-.92.172-1.804.354-2.652.544m2.285 2.002l-2.285-2.002m2.285 2.002c-.399.084-.843.181-1.321.29m-14.08 4.886l-1.265-2.109m1.265 2.109c.86-.707 2.447-1.433 4.33-2.117m-4.33 2.117l3.099-4.098m-3.099 4.098a70.5 70.5 0 00-2.876 2.318m2.876-2.318l-3.705-.773m2.44-1.336a55.566 55.566 0 014.364-1.989m-4.364 1.989l5.594-.008m-5.594.008l-1.611 4.427m1.611-4.427c-.43.069-1.286.527-2.44 1.336m16.82-6.405l-.68 2.681m.68-2.681c-.448.1-.887.203-1.316.308m.636 2.373c.58-.142 1.132-.272 1.645-.389m-1.645.389c-.729.179-1.5.375-2.29.587m.344-2.628l3.59 1.652m-3.59-1.652c.426-.113.863-.224 1.31-.332m-1.31.332a61.5 61.5 0 00-1.303.358m.958 2.27l1.655-2.96m-1.655 2.96l-2.254-1.886m2.254 1.886c-.536.144-1.082.295-1.627.451m-.627-2.337c.42-.129.852-.257 1.296-.384m-1.296.384a66.4 66.4 0 00-1.288.412m2.584-.796l-.67 2.721m0 0l-4.15-1.133m4.15 1.133a65.07 65.07 0 00-4.187 1.342m.036-2.475a59.502 59.502 0 012.237-.792m-2.237.792c-.44.166-.863.331-1.266.494m3.503-1.286l-2.273 3.267m0 0l-1.23-1.981M64.31 127.806c.39-.879 1.182-1.895 1.71-2.789m-1.71 2.789l.575-5.958m-.575 5.958l-2.495-1.064m2.495 1.064c-.516 1.163-1.249 2.319-1.776 3.542m1.776-3.542l-4.86 3.542m2.802 44.017l-2.788-1.701m2.788 1.701l-4.718-7.829m4.718 7.829a107.872 107.872 0 01-.95-3.243m.95 3.243l-.655 3.323m.655-3.323c.528 1.171 1.315 2.642 2.322 4.274m-2.322-4.274l1.322 6.991m-1.322-6.991l-1.919.514m20.463 20.398a29.571 29.571 0 01-2.52-1.573m2.52 1.573l-4.333-.237m4.334.237c.07.262.447 2.329.627 3.33m-.627-3.33a63.63 63.63 0 013.997 2.427m25.718 24.936c-.459-.929-1.173-2.042-2.097-3.286m2.097 3.286l-5.355-1.713m5.355 1.713l-7.114-5.089m7.114 5.089l1.049 3.916m-1.049-3.916l-2.366 3.432m11.976 7.633l.525 1.958a32.844 32.844 0 01-2.036-1.07m1.511-.888l-1.448-.836m1.448.836l-1.511.888m-13.454-13.666c-.382-1.098-.984-2.228-1.759-3.376m1.759 3.376l1.731 3.034m-1.731-3.034c.631 1.817 1.691 3.546 2.989 5.145m-52.859-71.175c-.044-.34-.084-.679-.12-1.017m.12 1.017a105.9 105.9 0 00.495 3.365m-.495-3.365l3.697 7.411m104.037-13.894c.003-.724-.259-2.02-.693-3.662m.693 3.662l1.019-2.722m-1.019 2.722l1.51 2.043m-1.51-2.043c-.004.791-.182 2.307-.442 4.315m.442-4.315l1.429 7.311m-3.279 28.858c-.414-2.01-.622-4.332-.684-6.811m.684 6.811l1.988-4.03m-1.988 4.03l2.972 3.051m-2.972-3.051c.392 1.906.786 3.67 1.17 5.283m3.289 11.36a35.64 35.64 0 01-.68-1.917m.68 1.917l-.277-7.97m.277 7.97l2.22.454m-2.22-.454c.244.909.436 2.679.14 4.859m-1.846 5.741l-3.695 4.487a23.369 23.369 0 003.751-3.614m-.056-.873a17.313 17.313 0 001.285-3.143m-1.285 3.143l.056.873m-.056-.873l1.984-1.931m1.942-8.215a79.727 79.727 0 01-1.257-3.86m1.257 3.86l-2.08 4.405m2.08-4.405l-3.605-4.63m3.605 4.63a14.132 14.132 0 01-.293 3.926m-3.517-59.914a97.906 97.906 0 00-1.143-3.891m1.143 3.891l-1.712-.94m1.712.94c.292 1.342.441 2.962.491 4.765m-83.693-42.479l-2.3-1.691m2.3 1.691c-.481.407-.983.84-1.5 1.296m-.996-3.132a34.172 34.172 0 011.667-1.255m-1.667 1.255l.196.145m-.196-.145a53.524 53.524 0 00-2.918 2.516m3.114-2.371l-1.649 5.228m0 0l-4.758.396m4.758-.396a91.185 91.185 0 00-2.491 2.45m2.491-2.45a97.979 97.979 0 012.45-2.241m-7.208 2.637l-.449 4.972m.45-4.972a75.317 75.317 0 00-1.918 2.103m1.917-2.103a69.222 69.222 0 013.293-3.253m-3.742 8.225a77.815 77.815 0 012.716-2.918m-2.716 2.918l-1.468-2.869m1.468 2.869l-4.877 1.307m4.877-1.307a57.523 57.523 0 00-3.413 4.231m3.413-4.231l-3.177-.852m1.709-2.017l4.184-.049m-4.184.049a74.449 74.449 0 00-1.71 2.017m5.894-2.066l1.026-5.307m0 0l3.915.616m-12.534 8.916l1.464 2.924m-1.464-2.924a73 73 0 011.7-2.159m-1.7 2.159a73.14 73.14 0 00-.785 1.056m2.249 1.868l.236-5.083m-.236 5.083l-3.384-.266m3.384.266c-.727 1.001-1.656 1.899-2.25 2.903m-1.134-3.169l1.135 3.169m-1.135-3.169a71.03 71.03 0 011.135-1.602m-1.135 1.602a67.018 67.018 0 00-3.07 4.894m4.205-1.725v-4.771m0 4.771l-4.205 1.725m0 0l.72 4.606m-.72-4.606a60.371 60.371 0 00-2.364 4.606m3.084 0h-3.084m3.084 0l-4.517 3.416m4.517-3.416c-.632 1.465-1.353 2.731-1.933 4.335m-1.151-4.335a54.605 54.605 0 00-1.433 3.416m1.433-3.416l1.151 4.335m-1.151-4.335v7.87m-1.433-4.454l2.584.919m-2.584-.919l1.433 4.454m-1.433-4.454c-.352.928-.68 1.87-.98 2.827m.98-2.827l.437 8.57m2.147-7.651a55.308 55.308 0 00-1.151 3.535m0 0l-3.25 1.374m3.25-1.374a48.415 48.415 0 00-.996 4.116m.996-4.116l-4.15 6.183m.9-4.809c.247-1.015.527-2.015.837-3.001m-.837 3.001l.837-3.001m-.837 3.001a44.507 44.507 0 00-.9 4.809m.9-4.809l2.254 2.742m-1.417-5.743l1.417 5.743m0 0c-1.166.435-2.723 1.671-3.154 2.067m3.154-2.067c-1.457 2.029-3.49 6.424-3.497 6.705m3.497-6.705a47.17 47.17 0 00-.48 2.946m-2.674-.879a41.53 41.53 0 00-.343 4.638m.343-4.638l2.674.879m-2.674-.879l2.412 3.397m-2.755 1.241l2.755-1.241m-2.755 1.241a39.936 39.936 0 00.21 4.841m-.21-4.841l3.266 8.705m-3.266-8.705l2.603 2.647m.414-6.406a48.168 48.168 0 00-.262 2.518m0 0l-2.545 6.082m2.545-6.082a51.215 51.215 0 00-.152 3.888m-2.393 2.194l3.056 3.864m-3.056-3.864l2.393-2.194m.663 6.058c-.206-2.069-.666-4.211-.663-6.058m.663 6.058c-.425.113-1.093 3.304-1.63 4.847m1.63-4.847c.14 1.407.51 3.043.76 4.564m-1.423-10.622l-.968 10.905m0 0a93.081 93.081 0 01-.811-4.329m.811 4.329l4.028 5.916m-4.028-5.916c.168.788.343 1.557.525 2.308m-.525-2.308l2.391-.283m-3.202-4.046l3.202 4.046m0 0l-1.45 4.228m1.45-4.228c.144.87.325 1.627.508 2.536m-1.958 1.692l3.087 1.971m-3.087-1.971a79.249 79.249 0 01-.416-1.637m.416 1.637c.33 1.242.679 2.43 1.045 3.567m2.042-1.596c-.306-1.245-.893-2.487-1.13-3.663m1.13 3.663l-1.157 4.157m1.157-4.157c.21.855.437 1.726.682 2.615m-4.185-6.223l2.373-.055m-.027 7.82c-.305-.823-.6-1.677-.885-2.561m.885 2.561c.282.764.572 1.502.87 2.215m-1.755-4.776l2.724 1.019m.294 6.566l2.977.951m-2.977-.951a48.16 48.16 0 001.977 3.668m-1.977-3.668a53.353 53.353 0 01-1.264-2.809m4.241 3.76l-1 2.717m1-2.717a58.888 58.888 0 002.685 3.968m-2.685-3.968l2.49 7.727m-3.49-5.01l3.685 1.251m-3.685-1.251c.398.666.801 1.303 1.21 1.914m2.475-.663l-.196 3.759m.196-3.759l-2.476.663m2.476-.663l1.547 5.774m-1.547-5.774a60.26 60.26 0 002.411 3.061m-2.607.698a41.916 41.916 0 01-2.28-3.096m2.28 3.096a40.878 40.878 0 001.743 2.015m-1.743-2.015l5.15 2.118m-5.15-2.118l2.607-.698m-.864 2.713l3.406.103m-3.406-.103a42.59 42.59 0 002.178 2.191m1.228-2.088a54.281 54.281 0 01-2.542-2.816m2.542 2.816a47.69 47.69 0 002.053 1.997m-2.053-1.997l2.874 5.526m-2.874-5.526l-.097 3.111m-2.445-5.927l1.314 4.904m0 0l3.28-.091m-3.28.091c.38.356.757.696 1.131 1.023m2.15-1.114l.821 3.529m-.821-3.529a38.493 38.493 0 004.011 3.223m-4.011-3.223l2.448 3.262m-1.627.267a56.528 56.528 0 01-2.97-2.415m2.97 2.415l3.19-.306m-3.19.306c.472.359.931.701 1.377 1.03m1.813-1.336l.885 3.302m0 0c-.465-.332-.9-.646-1.301-.942l-1.397-1.024m2.698 1.966l-2.448-3.263m2.448 3.263a402.37 402.37 0 002.263 1.601m-2.263-1.601l5.633.698m-8.081-3.961l-.25 1.297m4.961 3.567l3.37-.903m-3.37.903c.654.46 1.34.942 2.05 1.444m1.32-2.347l-1.32 2.347m1.32-2.347a81.649 81.649 0 012.323 1.583m-2.323-1.583l1.99 4.713m-3.31-2.366l3.643-.764m-3.642.764c1.058.748 2.17 1.539 3.309 2.366m.333-3.13l-.333 3.13m.333-3.13a95.626 95.626 0 013.024 2.23m-3.024-2.23l2.79 5.441m-3.123-2.311l3.357-.9m-3.357.9c1.025.744 2.073 1.516 3.123 2.311m.234-3.211l-.234 3.211m.234-3.211c.557.428 1.112.863 1.663 1.304m-1.663-1.304l2.447 5.29m-2.681-2.079l1.897-1.907m-1.897 1.907a139.46 139.46 0 012.681 2.079m-2.681-2.079l4.458.204m-2.561-2.111l.784 3.986m-.784-3.986c.864.691 1.72 1.397 2.56 2.111m-1.776 1.875a108.2 108.2 0 011.939 1.579m-1.939-1.579l4.527.536m-4.527-.536l8.832 4.629m-7.055-6.504l.162 3.454m-.162-3.454a116.39 116.39 0 012.75 2.411m-2.588 1.043l2.588-1.043m-2.588 1.043c.527.441 1.048.885 1.558 1.331m1.03-2.374l-1.03 2.374m1.03-2.374l1.175 4.384m-1.175-4.384c.728.657 1.44 1.317 2.133 1.975m-3.163.399l5.335 1.719m-5.335-1.719c.76.666 1.499 1.336 2.205 2.01m3.13-.291c-.7-.701-1.425-1.408-2.172-2.118m2.172 2.118a98.762 98.762 0 012.932 3.061m-2.932-3.061c.601 1.821 1.838 5.593 1.978 6.115m-1.978-6.115l-.931 2.512m-2.199-2.221l.958-2.409m-.958 2.409c.775.738 1.512 1.48 2.199 2.221m-2.199-2.221l6.062 2.77m-5.104-5.179l1.241 4.63m0 0l3.863.549m-3.863-.549c1.12 1.208 2.107 2.415 2.909 3.603m.954-3.054l-.954 3.054m.954-3.054c.71.776 1.378 1.533 1.996 2.264m-2.95.79l5.017 1.803m-5.017-1.803l2.95-.79m2.067 2.593l-1.527 4.607m1.527-4.607a52.197 52.197 0 00-2.067-2.593m2.067 2.593l-.269 6.718m.269-6.718l1.783 8.966m-3.31-4.359l-.54-7.2m.54 7.2l4.673 2.595m0 0l.7 2.61 1.655.956m-2.355-3.566l-1.363 1.764m1.363-1.764l.721 3.654m-4.136-4.138a27.5 27.5 0 002.052 2.248m0 0a34.87 34.87 0 002.084 1.89m0 0c.55.46 1.106.899 1.66 1.316m-.026-1.404l.026 1.404m-.026-1.404l1.241.716m-1.215.688l1.644-.44m-1.644.44c.582.437 1.162.85 1.731 1.236m-.087-1.676l-.429-.248m.429.248l1.64.947m-2.069-1.195l.516 1.924m0 0l1.553-.729m-1.553.729c.431.293.857.571 1.272.832m.281-1.561l-.281 1.561m.281-1.561l1.448.836m-1.729.725l1.305-.349.424-.376m-1.729.725a42.09 42.09 0 001.666.999m.063-1.724l-.063 1.724m38.983-104.311a346.813 346.813 0 00-1.76-4.775c.424.245.949.977 1.53 2.039m.23 2.736l1.904 1.938m-1.904-1.938c.406 1.125.827 2.309 1.247 3.513m-1.247-3.513l-.23-2.736m2.134 4.674l-.657 1.575m.657-1.575c-.74-1.832-1.473-3.467-2.134-4.674m2.134 4.674c.328.813.658 1.664.983 2.534m-1.64-.959l1.64.959m-1.64-.959c.301.863.602 1.737.896 2.607m.744-1.648l-.744 1.648m.744-1.648c.352.944.699 1.909 1.034 2.871m-1.034-2.871l.198 4.494m-.942-2.846l1.778 1.223m-1.778-1.223c.325.96.642 1.916.942 2.846m.836-1.623l-.836 1.623m.836-1.623c.497 1.428.965 2.848 1.382 4.176m-2.218-2.553l2.218 2.553m-2.218-2.553c.654 2.021 1.231 3.923 1.649 5.504m.569-2.951l-.569 2.951m2.203 5.705l-1.952 2.272m1.952-2.272c.044 1.63.007 3.409-.081 5.268m-1.871-2.996l1.871 2.996m-1.871-2.996c-.178 1.367-.393 2.963-.618 4.712m.618-4.712l1.49 8.694m.381-5.698l-2.489 1.716m2.489-1.716a175.385 175.385 0 01-.381 5.698m-2.108-3.982l2.108 3.982m-2.108-3.982c-.09.701-.182 1.426-.273 2.172m.273-2.172l1.492 6.945m.616-2.963l-2.381-1.81m2.381 1.81c-.196 2.416-.421 4.848-.617 7.16m-1.764-8.97l1.765 4.773m-1.765-4.773a234.953 234.953 0 00-.529 4.688m.529-4.688l1.764 8.97m.001-4.197l-2.294-.085m0 0l2.293 4.282m-2.293-4.282l1.904 9.633m-1.904-9.633c-.12 1.178-.231 2.378-.328 3.586m2.621.696l-2.819 2.155m2.819-2.155c-.16 1.887-.301 3.695-.389 5.351m-2.43-3.196l2.43 3.196m-2.43-3.196c.055-.951.122-1.903.198-2.851m-.198 2.851c-.069 1.187-.119 2.37-.146 3.536m.146-3.536l2.526 9.815m-.096-6.619a73.975 73.975 0 00-.075 1.769c-.044 1.468.019 3.106.171 4.85m-.096-6.619l-2.232-6.047m2.232 6.047l-2.576 3.838m2.576-3.838l-2.576.34m0 3.498l2.672 2.781m-2.672-2.781a72.835 72.835 0 010-3.498m0 3.498l3.656 9.862m-.984-7.081l-2.672-6.279m2.672 6.279c.193 2.229.533 4.632.984 7.081m-.984-7.081l-.818 9.313m1.802-2.232l-1.802 2.232m1.802-2.232c.344 1.867.752 3.76 1.21 5.622m-1.21-5.622l.102 9.416m-1.904-7.184l3.012 3.39m-3.012-3.39c.309 1.301.612 2.504.903 3.605m2.109-.215l-1.108 3.794m1.108-3.794l-2.109.215m2.109-.215a95.807 95.807 0 001.24 4.564m-2.348-.77c-.308-1.035-.645-2.23-1.001-3.579m1.001 3.579c.258.868.495 1.622.705 2.259m-.705-2.259l2.348.77m-1.643 1.489l1.643-1.489m-.823 8.265l1.787-.479m-1.787.479c-.111.816-.29 1.69-.561 2.598m2.348-3.077l-2.348 3.077m2.348-3.077a15.508 15.508 0 01-1.649 4.289m-.699-1.212l.699 1.212m0 0a19.137 19.137 0 01-1.928 2.804" stroke="#22B5FF" stroke-width=".5"/><path d="M83.452 105.681l5.608 7.954 15.3-12.157 9.15 11.588 11.461-9.067 15.764 6.619.044 14.525 14.292-.18 7.95 24.451-13.11 9.808 12.645 1.508-5.539 7.564 5.121 6.538-13.921 5.479 12.954 5.273-2.778 6.706 8.217 9.674-6.69 3.861-2.114 1.22 4.666 5.82-12.825-1.11-10.849 7.803-6.958 5.362-10.425-1.054-1.292 10.839-12.571-11.671 4.573-15.565-14.707 2.542-1.215-7.677-15.47-4.99c.062-.305.39-4.726.767-10.032l-9.829 2.318 2.48-15.416-11.636 2.13-1.955-19.021-3.466-1.211 3.147-1.886-1.645-16.003 8.063-6.536-1.876-5.615 10.383-4.221-2.388-7.714 9.686 4.514.988-12.97z" fill="#22B5FF" fill-opacity=".01"/><path d="M149.978 124.229l-4.022-15.01 11.02 7.19-6.998 7.82zm-9.856-15.895l-4.382-7.22 8.892-7.279-4.51 14.499zm7.692-10.455l-1.877-4.394 11.013 1.946-9.136 2.448zm-38.099 5.312l-1.399-5.221 5.548-1.487-.35-1.305 7.505-2.011-6.543 5.6-.612-2.284-4.149 6.708zm17.231-3.568l-10.984 4.692-.985-4.982 11.969.29zm-9.068-12.959c.21.783-6.867-3.873-10.431-6.298l9.207 1.73 1.224 4.568zm-25.96 1.01L81.27 83.182l15.337-4.11-4.69 8.602zM113.771 37.4l-4.557-7.871 9.369-8.107-4.812 15.979zm17.536 14.538l7.46 14.79-5.711 1.53-5.71 1.53-2.536-9.464 8.246 7.933-1.749-16.319zm-.884 25.419l-1.836-6.853 10.711 3.426-8.875 3.427zm26.694-6.104l-4.056-7.307 8.892-7.279-4.836 14.586zm5.98 14.487l-2.919-3.066 12.709.442-9.79 2.623zm.958 17.93l-4.366-11.072 6.906 6.194-2.54 4.878 14.652-3.402 3.114-7.304 4.353.582-7.467 6.722-3.114 7.305-11.538-3.903zm8.515 23.949l3.385-8.252 11.34 1.858-14.725 6.394zm36.474-53.142l-4.039-11.159 12.85 8.798-8.811 2.361zm-30.588-11.04l-.578-9.988 5.285-2.465-4.707 12.453zm-8.324-27.148l-3.934-14.685 11.02 7.19-7.086 7.495z" fill="#22B5FF" fill-opacity=".01"/><path d="M92.377 144.21l-4.365-11.071m4.365 11.071l5.179-18.525m-5.179 18.525l13.379-3.585m-13.379 3.585l-27.593-18.138m27.593 18.138l20.227 8.92m-20.227-8.92l17.879 21.039 2.348-12.119m-20.227-8.92l-1.869 20.437m1.87-20.437l-8.67 10.717m8.67-10.717l15.478 23.832m-19.844-34.903l9.544-7.454m-9.544 7.454l-5.567-14.247m5.567 14.247l-4.305 21.788m4.305-21.788l-10.035-2.208m10.034 2.208l17.745 7.486m-17.745-7.486l24.593 19.991m-24.593-19.991L71.86 147.26m25.696-21.575l8.2 14.94m-8.2-14.94l-14.104-20.004-1.007 13.211m15.11 6.793l-19.578 5.246m19.579-5.246l-24.778-11.548 5.199 16.794m19.579-5.246l6.804-24.207m-6.804 24.207l27.415-21.686m-27.415 21.686l19.598 10.487m-19.598-10.487l33 8.295m-33-8.295l23.215-3.423m-23.215 3.423l43.223-.542m-35.023 15.482l-1.396-39.147m1.396 39.147l11.398-4.453m-11.398 4.453l6.848 12.505m-30.159-34.238l21.915-17.414m-21.915 17.414l-4.468 12.039m4.468-12.039l-23.849 19.331m23.85-19.331l-17.662 7.18m39.576-24.594l-26.383 29.453m26.383-29.453l12.794 34.694m-12.794-34.694l16.411 20.784m-42.794 8.669l5.73 23.996m-5.73-23.996l-13.194-4.859m13.194 4.859L71.86 147.26m11.847 7.667L71.86 147.26m11.847 7.667l24.149 13.115m-24.149-13.115l-7.706 7.788m7.706-7.788l-1.188 17.755m1.188-17.755l15.108 22.883m-34.031-51.738l7.076 21.188m-13.264-9.037l13.264 9.037m-13.264-9.037l3.92 38.121m-3.92-38.121l17.405 24.492M71.86 147.26l-9.345 29.084m9.345-29.084L76 162.715m-4.14-15.455l-14.766 8.852 18.907 6.603m41.153-26.543l3.617-13.91m-3.617 13.91l14.914 24.334m-14.914-24.334l-4.55 16.958m4.55-16.958l2.793 24.783m.824-38.693l4.2-18.263m-4.2 18.263l9.785 11.718m-9.785-11.718l19.964-11.644m-15.764-6.619l5.585 29.981m-5.585-29.981l15.764 6.619m-10.179 23.362l32.465 15.434m-32.465-15.434l24.515-9.017m-24.515 9.017l10.179-23.362m-10.179 23.362l10.275 12.986m14.24-22.003l7.95 24.451m-7.95-24.451l-14.292.18m14.292-.18l-14.24 22.003m14.24-22.003l-5.16 34.259m13.11-9.808l-22.19-2.448m22.19 2.448l-22.242-24.271m22.242 24.271l-13.11 9.808m-17.843 1.284l8.763-13.54m-8.763 13.54l-19.464-7.376m19.464 7.376l17.843-1.284m-17.843 1.284l16.149 19.805m-35.613-27.181l7.343 7.825m-7.343-7.825l28.227-6.164m-28.227 6.164l37.307 6.092m-37.307-6.092l-22.096 11.517m29.439-3.692l11.026 12.435m9.762-62.772l.044 14.525m0 0l.052 21.823m-.052-21.823l9.132 34.079m-9.08-12.256l9.08 12.256m-9.08-12.256l7.386 33.345m1.694-21.089l-18.938 14.168m18.938-14.168l12.227 15.61-13.921 5.479m1.694-21.089l-1.694 21.089m1.694-21.089l12.645 1.508-14.339 19.581m-17.244-6.921l17.244 6.921m-17.244-6.921l-23.117-5.348m40.361 12.269l-7.772 15.373m7.772-15.373l-3.955 23.094m3.955-23.094l18.393 21.653m-18.393-21.653l5.946 22.19m-5.946-22.19l12.954 5.273m-12.954-5.273l-10.658 4.604 16.604 17.586m-13.718-6.817l20.726-10.1m-20.726 10.1l-5.258 7.787m9.075-.066l9.901-.904m-9.901.904l16.909-17.821m-16.909 17.821l-4.276 8.84m14.177-9.744l12.447-.537m-12.447.537l7.008-16.917m-7.008 16.917l11.998 6.927m-11.998-6.927l-4.516 9.254m4.516-9.254l8.309 10.364-12.825-1.11m16.963-9.791l-16.963 9.791m-87.132-35.411l13.486-13.629m-13.486 13.629l20.004-3.662m25.337-4.64l-25.337 4.64m25.337-4.64L71.671 189.63m36.185-21.588l-9.04 9.768m9.04-9.768l-6.518 26.579m6.518-26.579l.667 29.9m-.667-29.9l-17.348-3.395m17.348 3.395l7.927 23.058m-7.927-23.058l14.471 17.458-39.808-12.818M76 162.715l-4.33 26.915M76 162.715l6.518 9.967M76 162.715l14.507 1.932M71.671 189.63l21.712-5.119M71.67 189.63l10.848-16.948m10.864 11.829l-10.864-11.829m10.864 11.829l7.955 10.11m-7.955-10.11l4.035 25.5m-14.9-37.329c-.544 7.974-1.664 24.07-1.785 24.662m0 0l18.082-19.534m-18.082 19.534l31.392 10.125m-31.392-10.125l35.05-6.244m-16.968-13.29l9.708 20.132m0 0l-7.185-3.321m7.185 3.321l15.286 7.446m-22.471-10.767l-3.92 15.39m0 0l14.707-2.542m-14.707 2.542l18.365-18.911m-3.658 16.369l3.658-16.369m-3.658 16.369l11.684-2.081m-11.684 2.081l-4.573 15.565m4.573-15.565l9.29 16.397m2.394-18.478l-16.257 17.646m16.257-17.646l-2.394 18.478m2.394-18.478l16.177 6.857m-16.177-6.857l14.989 14.17m-31.246 3.476l12.571 11.671 1.292-10.839m-13.863-.832l13.863.832m0 0l10.425 1.054 6.958-5.362m-17.383 4.308l13.772-20.395m4.799 8.774l-1.188 7.313m1.188-7.313l9.661-.49m-10.849 7.803l10.849-7.803m0 0l-14.46-8.284m-2.131-135.214l-5.71 1.53-2.536-9.463 8.246 7.933zm0 0l5.711-1.53-7.46-14.789 1.749 16.32zm30.999 35.413l-4.366-11.072 6.906 6.194-2.54 4.878zm0 0l11.538 3.903 3.114-7.305m-14.652 3.402l14.652-3.402m0 0l3.114-7.304 4.353.582-7.467 6.722zm-32.751 8.951l4.022 15.01 6.998-7.82-11.02-7.19zm-10.216-8.105l4.382 7.22 4.51-14.499-8.892 7.279zm10.197-7.629l1.877 4.394 9.136-2.448-11.013-1.946zm-37.621 4.485l1.399 5.221 4.149-6.708-5.548 1.487zm5.198-2.792l.962 3.59 6.543-5.601-7.505 2.01zm2.448 9.137l10.984-4.692-11.969-.29.985 4.982zm-8.515-23.95c3.564 2.426 10.641 7.082 10.431 6.299l-1.224-4.569-9.207-1.73zM81.27 83.182l10.647 4.492 4.69-8.601-15.337 4.11zm27.943-53.653l4.557 7.872 4.812-15.979-9.369 8.107zm19.373 40.975l1.836 6.853 8.875-3.427-10.711-3.426zm24.474-6.558l4.056 7.307 4.836-14.586-8.892 7.28zm7.117 18.728l2.919 3.065 9.79-2.623-12.709-.442zm15.777 36.693l-3.385 8.252 14.725-6.394-11.34-1.858zm29.05-56.049l4.039 11.16 8.811-2.362-12.85-8.798zm-27.127-9.869l.578 9.988 4.707-12.453-5.285 2.465zm-11.68-31.845l3.934 14.685 7.086-7.495-11.02-7.19z" stroke="#22B5FF" stroke-width=".5"/><path d="M117.376 139.61l1.456-1.089 2.022-1.591 1.783-1.178 1.783-1.177 1.783-1.177 1.545-.764.096-.04a5.25 5.25 0 011.296-.347c.511-.056.959.028 1.067.428l.49 1.829.32 2.5.286 2.372.286 2.372.169 2.053.135 1.969-.036 2.201.117 1.718.071 2.079-.094 1.774-.041 2.459-.128 2.133.21 2.742.21 2.741c-.015.284-.033 1.758-.04 2.459l-.041 2.46-.04 2.459-.303 1.48.612 2.284.851 1.87.6 1.588.437 1.632.601 1.588.938 2.197.092 1.024.607 1.586.764 1.544.763 1.544.111 1.719 1.003 1.131.46 3.024.687 1.256.813 1.49.834 1.525.833 1.526.951 1.741 1.15 2.103.9 1.647 1.333 2.441 1.167 2.136 1 1.83.833 1.525 1.167 2.136-.652.175-6.527 1.749-.652.175a218.56 218.56 0 01-2.38-4.084 174.224 174.224 0 01-1.938-3.503 101.11 101.11 0 01-1.413-2.722c-1.047-2.105-1.769-3.823-1.73-4.48l-3.915 1.049.594 1.24 1.635 3.409 1.783 3.719 2.081 4.339 1.04 2.169-.978.263-5.159 4.243-1.146.943-1.757-3.809-1.756-3.81-1.797-3.898-1.636-3.549-1.378-2.989-.862-1.867-.699-2.611-.7-2.61a94.675 94.675 0 00-4.191-9.02 68.208 68.208 0 00-1.537-2.736 43.769 43.769 0 00-1.722-2.686c-.661-.946-1.328-1.797-1.986-2.501a11.68 11.68 0 00-.943-.911c-.407-.347-.923-.8-1.528-1.339a414.814 414.814 0 01-5.14-4.691 702.128 702.128 0 01-3.679-3.439 673.455 673.455 0 01-3.447-3.273 540.09 540.09 0 01-4.403-4.264 319.369 319.369 0 01-2.344-2.322c-.69-.692-1.347-1.357-1.958-1.986-.52-.535-1.008-1.044-1.457-1.521a80.6 80.6 0 01-.873-.94 32.519 32.519 0 01-1.64-1.909c-.347-.45-.56-.785-.613-.985.081-.324.382-.781.998-1.317.452-.393 1.074-.829 1.903-1.285.35-.192.738-.388 1.165-.586a25.71 25.71 0 011.55-.654 36.147 36.147 0 012.24-.775c.567-.176 1.17-.35 1.813-.521a60.368 60.368 0 013.098-.731l2.19-.964 1.931-.849.068-.034 6.814-3.401 1.931-.964 1.931-.963 2.931-1.463 2.931-1.463z" fill="#22B5FF" fill-opacity=".01"/><path d="M83.882 155.58c.054.2.266.535.614.985m-.614-.985l1.066.064m-1.066-.064c.081-.324.382-.781.998-1.317m-.998 1.317l2.473-1.215m10.294-4.654l.508.59m-.508-.59a64.33 64.33 0 00-1.493.33m1.493-.33l-.867.877m.867-.877l2.19-.964m18.146-7.983l.391-1.154m-.391 1.154a66.181 66.181 0 011.725-1.396m-1.725 1.396l-13.453 5.919m13.453-5.919l-2.54.309m2.54-.309l-.62.296m.62-.296l-.447 1.625m.447-1.625l.22 1.69m11.784-9.103c-.376.024-.82.136-1.314.316m1.314-.316l1.218-.676m-1.218.676l-1.145-.757m1.145.757l.151-1.104m-.151 1.104c.243-.016.465.179.666.558m1.645 39.393c.013-.454.025-.925.037-1.409m-.037 1.409l.478-.827m-.478.827l1.09 1.457m-1.09-1.457l1.085 2.857m7.232 19.047l-.844-2.222m.844 2.222l-.46-3.024m.46 3.024l-.915-.804m.915.804l-2.112-.051m2.112.051l-7.179 1.924m7.179-1.924c-.139.26-.295.558-.463.883m.463-.883l.687 1.256m-.687-1.256l.355 2.353m11.313 19.003l-.652.175m.652-.175l-1.167-2.136m1.167 2.136l-1.414-1.195m-13.878-11.495l-8.776-5.343m8.776 5.343l-3.555-6.742m3.555 6.742l-14.65-3.769m14.65 3.769l-13.95-1.159m13.95 1.159l-2.36-8.811m2.36 8.811l-3.915 1.049m3.915-1.049c.018-.291.101-.671.232-1.112m-.232 1.112l1.468 1.355m-1.468-1.355c-.039.657.683 2.375 1.73 4.48m-6.298-3.256l-4.208-6.567m4.208 6.567l1.013-7.966m-1.013 7.966l-10.082-4.993m10.082 4.993l-4.341.114m4.341-.114l5.933-5.27m-5.933 5.27L129.469 197m1.956 8.096l.653-.175m-.653.175l1.247 1.065m-1.247-1.065l1.362 2.993m-1.362-2.993l2.882 4.474m3.926 10.49l-5.159 4.243m5.159-4.243l.978-.263m-.978.263l-1.915-4.209m1.915 4.209l-.062-2.432m.062 2.432l-2.143-6.771m-4.162 11.957l1.146-.943m-1.146.943l-1.757-3.809m1.757 3.809l.212-2.854m-.212 2.854l-1.451-6.256m-7.735-13.666l4.475-6.795m-4.475 6.795l9.696-8.194m-9.696 8.194l-.699-2.611m.699 2.611l1.042-.028m-1.042.028l.862 1.867m-2.261-7.088c.507-.719 1.586-2.174 1.848-2.244m-1.848 2.244c-.069-.261.274-1.589.455-2.221m-.455 2.221l1.654-1.009m-1.654 1.009a83.155 83.155 0 00-1.329-3.142m1.329 3.142l-.897-4.656m.897 4.656l5.874-1.574m-5.874 1.574l5.741 5.107m-5.741-5.107l.7 2.61m-11.079-20.464c.311.266.626.571.943.911m-.943-.911l.979-.262m-.979.262c-.407-.347-.923-.8-1.528-1.339m1.528 1.339l-2.267-3.24m17.757 17.976l-1.807-.216m1.807.216c-.122-1.01-.162-2.706.233-3.91m-.233 3.91c-.247-1.747-.325-3.815.072-5.189m-.072 5.189l-.67-2.275m.67 2.275l-1.971-3.068m1.971 3.068l-1.804 1.1m1.804-1.1l3.015.015m-3.015-.015l.763 1.544m6.416-3.468l2.816.068m-2.816-.068c.92-.48 2.827-1.457 3.088-1.527m-3.088 1.527l.128-2.133m-.128 2.133a42.918 42.918 0 00-.683-.866m.683.866L129.469 197m4.164-1.939l-1.195 2.069m1.195-2.069l4.837 2.389m-4.837-2.389l3.725 4.765m-27.503-34.767l-12.698-14.758m12.698 14.758l.63-.26m-.63.26l-2.069-1.195m2.069 1.195l-.979.262m10.745-4.278l-.63.259m.63-.259l-.861-1.518m.861 1.518l-.209-1.606m.209 1.606l-2.656 1.836m2.656-1.836l.458 2.363m-.458-2.363l1.786 1.445m-1.786-1.445l-4.976 6.668m4.976-6.668l-1.431 5.101m-11.598-.211l2.284-.612m-2.284.612l4.767.821m-4.767-.821l1.264 2.109m1.265 2.11l2.238-3.398m-2.238 3.398l-1.265-2.11m1.265 2.11l1.72-.76m12.352-5.459l-2.501 1.105m2.501-1.105l-11.834 2.821m11.834-2.821l-3.114-.527m3.114.527l-1.786-1.445m2.074 23.402l-1.004.823m1.004-.823l-1.632.437m1.632-.437l1.847-2.244m-1.847 2.244a29.012 29.012 0 012.304-1.844m-8.633 7.037c.265.496.523.994.775 1.49m-.775-1.49l1.648-1.352m-1.648 1.352l2.92 1.666m-2.92-1.666l.123-.943m-.123.943a68.208 68.208 0 00-.812-1.483m19.119-5.346c-.049-.127.218-.466.358-.62m-.358.62l.542 1.429m-.542-1.429l-.382.627m.382-.627c-.262.009-.555.016-.87.019m.87-.019l-.317-.833m-16.952-17.277l-3.545 1.567m3.545-1.567l2.502-1.106m-2.502 1.106l1.383 3.391m-1.383-3.391l3.421 1.162m-3.421-1.162l4.34 3.43m-4.34-3.43l-1.225-3.265m1.225 3.265l1.889-2.738m-1.889 2.738l-7.705-1.345m6.891-25.189l1.334-.242m-1.334.242l1.456-1.089m-1.456 1.089l-2.931 1.463m2.931-1.463l-3.492 2.633m4.826-2.875l.122-.847m-.122.847a77.578 77.578 0 011.742-1.329m-1.62.482l1.62-.482m-1.62.482l2.022-1.591m-.402 1.109c.089-.334.295-1.025.402-1.109m-.402 1.109a69.27 69.27 0 011.761-1.261m-1.359.152l1.359-.152m-1.359.152l1.783-1.178m-.424 1.026l.129-.13m-.129.13a46.658 46.658 0 012.271-1.484m-1.847.458l1.783-1.177m-1.783 1.177l-.295.896m.295-.896l1.847-.458m-.064-.719l-2.078 2.073m2.078-2.073l1.783-1.177m-1.783 1.177l2.002-.362m-1.938 1.081l1.719-1.896m-1.719 1.896a25.893 25.893 0 011.938-1.081m-.219-.815l1.545-.764m-1.545.764l1.472.269m-1.253.546c.443-.219.863-.404 1.253-.546m.073-1.033l-.073 1.033m.073-1.033l.096-.04m2.363.081c-.108-.4-.556-.484-1.067-.428m1.067.428l-.552 1.234m.552-1.234l.49 1.829m-2.853-1.91a5.25 5.25 0 011.296-.347m.515 1.662l1.042.595m-1.042-.595c.223.42.422 1.067.598 1.901m.444-1.306l-.444 1.306m.444-1.306l.32 2.5m-.764-1.194l.764 1.194m-.764-1.194c.122.583.234 1.256.335 2.009m.429-.815l-.429.815m.429-.815l.286 2.372m-.715-1.557l.715 1.557m-.715-1.557c.104.771.197 1.624.28 2.546m.435-.989l-.435.989m.435-.989l.286 2.372m-.721-1.383l.016.173m.705 1.21l-.705-1.21m.705 1.21l-.547.846m.547-.846l.169 2.053m-.874-3.263c.057.653.11 1.34.158 2.056m0 0l.716 1.207m-.716-1.207c.045.665.086 1.355.123 2.065m.593-.858l-.593.858m.593-.858l.135 1.969m-.728-1.111l.728 1.111m-.728-1.111c.041.783.077 1.591.11 2.419m.618-1.308l-.618 1.308m.618-1.308l-.036 2.201m-.582-.893l.582.893m-.582-.893c.026.681.05 1.375.071 2.079m.511-1.186l-.511 1.186m.511-1.186l.117 1.718m-.628-.532l.029 1.042m-.029-1.042l.628.532m0 0l-.599.51m.599-.51l.071 2.079m-.67-1.569l.67 1.569m-.67-1.569c.018.688.033 1.384.047 2.086m.623-.517l-.623.517m.623-.517l-.094 1.774m-.529-1.257c.012.666.023 1.337.032 2.012m-.032-2.012l.529 1.257m0 0l-.497.755m.497-.755l-.041 2.459m-.456-1.704l.456 1.704m-.456-1.704c.009.721.016 1.445.022 2.17m.434-.466l-.128 2.133m.128-2.133l-.434.466m.306 1.667l-.306-1.667m.306 1.667l-.128 2.133m.128-2.133l.21 2.742m-.516-4.409c.006.816.009 1.632.011 2.446m.167 1.354l-.167-1.354m.167 1.354l.111 1.719.437 1.631m-.715-4.704c.001.82 0 1.638-.003 2.449m.718 2.255l-.736.547m.736-.547l-.727-.504m.727.504l-.21-2.741m.21 2.741c-.015.284-.033 1.758-.04 2.459m-.696-1.912l.009-1.051m-.009 1.051l.696 1.912m-.696-1.912a588.43 588.43 0 01-.038 3.158m.047-4.209c.004-.579.007-1.164.009-1.751m0 0l.508-.486m.17 5.2l-.734 1.246m.734-1.246l-.041 2.46m-.693-1.214c-.011.72-.024 1.424-.037 2.109m.037-2.109l.693 1.214m0 0l-.73.895m.73-.895l-.04 2.459m-.69-1.564c-.016.853-.035 1.676-.054 2.462m.054-2.462l.69 1.564m0 0l-.744.898m.744-.898l-.303 1.48m-.441-.582l.441.582m0 0l.612 2.284m0 0l-.005 1.4m.005-1.4l.851 1.87m-.856-.47l.856.47m-.856-.47l.603 1.588m.253-1.118l-.253 1.118m.253-1.118l.6 1.588m-.853-.47l.853.47m-.853-.47l.602 1.587m.251-1.117l-.251 1.117m.251-1.117l.437 1.632m-.688-.515l.688.515m-.688-.515l.603 1.587m.085-1.072l-.085 1.072m.085-1.072l.601 1.588m-.686-.516l.686.516m-.686-.516l.633 1.667m.053-1.151l-.053 1.151m.053-1.151l.938 2.197m-.991-1.046l.991 1.046m-.991-1.046l.316.833m.675.213l.092 1.024m.092 1.025l-.924-.802m.924.802l-.464.823m.464-.823l-.092-1.025m.092 1.025l.759 1.999m-1.683-2.801l-.488-.608m.488.608l.46 1.625m-.948-2.233l.553-.852m-.553.852l-.921-.829m.921.829c-.54.005-1.143 0-1.755-.023m2.703 2.256l.979-.262m-.979.262l.263.979m.109-2.827l.607 1.586m0 0l-.716 1.241m.716-1.241l.764 1.544m-1.48-.303l.851 1.871m-.851-1.871l.96.197m.52.106l-.52-.106m.52.106l.763 1.544m-1.392.024l.109-1.674m-.109 1.674l1.392-.024m-1.392.024l1.503 1.695m-1.503-1.695l.938 2.197m-.829-3.871l1.283 1.65m-1.283-1.65l2.013 5.302m-.73-3.652l.111 1.719m0 0l-.565.502m.565-.502l1.003 1.131m-1.568-.629l1.184 1.431m-1.184-1.431l1.113 2.849m-1.113-2.849l-.868 1.981m.868-1.981l-1.218.676m2.786-.047l-.384.802m0 0l-.071 1.418m0 0l-1.197.753m1.197-.753l-1.981-.868m1.981.868l-.232 3.048m-.965-2.295l-1.056-.026m1.056.026l-.784-1.621m-.272 1.595l.272-1.595m-.272 1.595c-.729-.545-2.287-1.749-2.688-2.201m2.688 2.201l2.021 2.321m-1.749-3.916l-.35-1.305m.35 1.305c-.331-.191-2.111-.483-2.96-.606m2.61-.699l-2.61.699m2.61-.699c-.331-.191-1.618-.383-2.22-.455m-.39 1.154l.39-1.154m-.39 1.154c-.268.305-.806.986-.811 1.267m.811-1.267l-1.423-1.017m1.423 1.017l-2.296-.434m2.686-.72l-1.813.137m1.813-.137a10.016 10.016 0 00-2.188-1.64m.987 4.061l-.612-2.284m.612 2.284a27.751 27.751 0 00-1.485-1.701m1.485 1.701c-1.214-1.423-2.052-2.191-2.892-2.504m-2.09-2.107l2.09 2.107m-2.09-2.107c.773-.332 1.611-.312 2.422-.098m-2.422.098l3.995.55m-3.995-.55l-2.981 2.419.797 2.707m2.184-5.126a7.59 7.59 0 00-1.606.907m1.606-.907l2.185 1.163m-2.185-1.163l-.089 1.481m-3.232 5.704l1.137-2.059m-1.137 2.059c-.197-1.093-.25-2.035-.164-2.852m.164 2.852l.406-4.784m-.406 4.784l.003 1.316m-.003-1.316l-1.456 1.09m4.649-6.142c-.088.028-1.895.19-2.787.268m2.787-.268c-.566.151-.929.676-1.153 1.358m1.153-1.358a5.253 5.253 0 011.109-.192m-1.109.192l.039-.652m4.459.846l-.375-1.777m.375 1.777l-2.28-.22m2.28.22l-2.185-1.164m1.312 1.747c.097-.609.332-1.933.498-2.36m-.498 2.36l-1.075-3.008m1.075 3.008c-3.007-3.141-4.404-2.549-4.939-.698m5.437-1.662l-1.905 1.557m1.905-1.557a7 7 0 00-1.573-.648m-.332 2.205c-.052-.052.2-1.492.332-2.205m-.332 2.205a2.752 2.752 0 00-1.109-.166m-3.896.46a4.636 4.636 0 011.309-1.494m-1.309 1.494l1.634 1.09m-1.634-1.09c-.301.554-.492 1.191-.57 1.932m2.204-.842l-.161-1.279m.161 1.279l-.903 1.635m.903-1.635l-2.204.842m1.879-3.426l.164 1.305m-.164-1.305c.044-.033.78.263 1.517.574m1.07.46a110.8 110.8 0 00-1.07-.46m2.274-.318l-3.627 1.049m0 0l1.353-.731m-2.095 3.645l-1.301-.793m.167 4.168l-1.459-.226m1.459.226l-1.653 1.009m1.653-1.009l2.567.444m-4.026-.67l-1.393.023m0 0l1.199 1.212m-1.199-1.212l-1.784-.921m1.784.921l-1.352-2.435m2.551 3.647l4.22-.565m-7.203-1.568l.432-1.514m-.432 1.514a94.675 94.675 0 00-.751-1.645m1.183.131l-.374-2.698m0 0l-.809 2.567m.809-2.567l-2.145-.176m2.145.176l-1.272-3.018m1.272 3.018l-2.797-2.609m1.988 5.176a95.636 95.636 0 00-1.336-2.743m1.336 2.743l-.463-5.585m-.873 2.842l.873-2.842m0 0l-.179-.668m.179.668l-1.525.409m1.525-.409l1.43-1.174m-2.955 1.583c.233-.174.994-.791 1.346-1.077m-1.346 1.077l-.935-.54m2.281-.537l1.609-.506m-1.609.506l1.533-1.232m-1.533 1.232l-1.905-1.011m1.905 1.011l-2.281.537m3.89-1.043l-.076-.726m.076.726l1.244-1.02m-1.32.294l1.305-.35.39-1.154m-1.695 1.504l.847-.752m.848-.752l-.375 1.21m.375-1.21l.628.386m-.628-.386l-.848.752m.848-.752l1.16-.894m-1.535 2.104l1.003-.824m2.851-3.067l.457.4m-.457-.4c.264-.191.623-.44.986-.675m-.986.675l-2.319 1.787m2.319-1.787l1.342-3.857m-1.342 3.857l-.772-1.892m1.229 2.292c.741-.279 2.386-.753 3.037-.412m-3.037.412l2.132-1.181m-1.603.106l2.508.663m-2.508-.663c.429-.14 1.028-.15 1.603-.106m1.457.22c.306.033.676.072 1.08.112m-1.08-.112l.588.888m-.588-.888l-.552.549m.552-.549a10.196 10.196 0 00-1.457-.22m7.225.556c-.245.054-.793.054-1.474.023m0 0l-.834.806m.834-.806a49.87 49.87 0 01-1.641-.106m.807.912l-.807-.912m.807.912a26.068 26.068 0 01-1.739-.116m.932-.796l-.932.796m.932-.796c-.538-.044-1.081-.093-1.573-.141m.641.937l-.641-.937m.641.937a13.664 13.664 0 01-1.133-.161m.492-.776l-.492.776m0 0c-.461-.088-.856-.2-1.14-.339m-16.261-15.003l.313-.138.57-.252m-.883.39l1.099 2.403m-1.099-2.403l4.117 3.387m-4.117-3.387l-1.72.761m10.16 17.687l-.549-1.202m2.557-.444l-.748-1.584m-7.616-16.138l-.985 3.323m.985-3.323l.298 6.127m-.298-6.127l-1.201.53m1.201-.53l.896 1.898m-.896-1.898l2.32-4.832m-2.32 4.832l-4.16-2.912m17.432 18.066l-1.247-3.076m1.247 3.076l-3.361-1.111m3.361 1.111l-5.161-5.525m-2.064-12.302l.919 2.268m-.919-2.268l-1.119 4.497m1.119-4.497l-.613-1.632m.373 22.471l1.576.222.233-2.25m-1.809 2.028l1.809-2.028m-1.809 2.028l-.691-1.51m.691 1.51l.31-5.204m1.499 3.176l-2.5.518m2.5-.518l-3.469-1.599m3.469 1.599l-.75-1.588m-1.75 2.106l1.001-3.694m-1.001 3.694l-.969-2.117m.969 2.117l1.75-2.106m-.749-1.588l.749 1.588m-.749-1.588l-1.97 1.577m1.97-1.577l-3.137-.973m3.137.973l-.76-1.61m-1.21 3.187l-1.167-2.55m1.167 2.55l-.081-5.924m.081 5.924l1.21-3.187m-2.377.637l1.086-3.374m-1.086 3.374l2.377-.637m-2.377.637l-.686-1.5m1.772-1.874l1.291 2.737m-1.291-2.737l-1.772 1.874m1.772-1.874l-2.859-.501m2.859.501l-.88-1.863m2.171 4.6l-3.063-.863m3.063.863l-4.15-3.238m1.087 2.375l-1.087-2.375m1.087 2.375l-.261-6.182m-.826 3.807l.826-3.807m-.826 3.807l1.979-1.362m-1.979 1.362l-.909-1.987m.909 1.987l-.311-6.216m1.137 2.409l1.153 2.445m-1.153-2.445l-.515-1.09m1.668 3.535l-2.888-.625m0 0l1.22-2.91m-1.22 2.91l-1.283-2.804m1.283 2.804l-1.499-5.597m2.719 2.687l-2.503.106m2.503-.106l-.622-1.319m-1.881 1.425l1.881-1.425m-2.097-1.368l-2.085-1.487m2.085 1.487l3.521-5.362m-3.521 5.362l-5.588-.199m18.814 11.747l-.767-1.893m.767 1.893l-2.114 1.965m0 0l1.347-3.858m-1.347 3.858l-1.8-4.414m1.8 4.414l-.188-7.644m1.535 3.786l-3.147-.556m3.147.556l-1.535-3.786m1.535 3.786l-4.947-4.97m1.8 4.414l1.612-3.23m-1.612 3.23l-.226-7.766m.226 7.766l-.9-2.207m2.512-1.023l-3.412-1.184m3.412 1.184l-4.795-4.575m4.795 4.575l-2.512 1.023m2.512-1.023l-.919-2.268m-2.493 1.084l1.574-3.352m-1.574 3.352l-1.383-3.391m1.383 3.391l.655-5.62m-.655 5.62l.9 2.207m-.9-2.207l2.493-1.084m-.919-2.268l-2.957-.039m2.957.039l-.919-2.268m.919 2.268l.919 2.268m-3.876-2.307l2.038-2.229M116.34 189.6l.376-1.548m-.376 1.548c-.238-.424-.48-.842-.725-1.253m1.101-.295l-1.284-1.842m0 0l.183 2.137m-.183-2.137l-1.539-.549m1.539.549l-1.572-2.289m1.755 4.426a43.769 43.769 0 00-1.722-2.686m0 0l-.033-1.74m.033 1.74c-.661-.946-1.328-1.797-1.986-2.501m1.953.761l-1.953-.761m1.953.761l-1.917-1.934m-.036 1.173l.036-1.173m0 0l-3.246-2.978m3.246 2.978l-2.507-1.077m0 0l-.739-1.901m.739 1.901a294.907 294.907 0 01-2.868-2.597m2.868 2.597l-3.071-4.074m2.332 2.173l-2.332-2.173m2.332 2.173l-2.129-.696m-.203-1.477l.203 1.477m-.203-1.477l-2.744-2.412m2.744 2.412l-2.069-.617m2.272 2.094a414.814 414.814 0 01-2.272-2.094m2.272 2.094l-2.947-3.889m0 0l-1.265-.011m1.265.011l.675 1.795m-.675-1.795l-2.745-2.413m2.745 2.413l-3.004-1.644m1.739 1.633c.664.62 1.313 1.225 1.94 1.806m-1.94-1.806c-.57-.534-1.151-1.079-1.739-1.633m1.739 1.633l-1.48-2.402m0 0l-.259.769m.259-.769l-.85-.821m.591 1.59c-.789-.744-1.59-1.502-2.392-2.266m2.392 2.266l-2.574-3.507m0 0l.182 1.241m-.181-1.241l1.982 1.917m-1.983-1.917l-.873.234m.873-.234l-1.31-1.398m1.492 2.639l1.801.676m-1.801-.676a709.17 709.17 0 01-1.055-1.007m0 0l-.437-1.632m.437 1.632a540.09 540.09 0 01-2.274-2.189m1.837.557l-1.936-1.58m1.936 1.58l-1.837-.557m-.099-1.023l.099 1.023m-.099-1.023l-1.917-1.934m1.917 1.934l-2.03-1.052m2.129 2.075a461.177 461.177 0 01-2.13-2.075m.114-.882l-.113.882m.113-.882l-1.002-1.131m.889 2.013l-.89-2.013m.89 2.013a319.369 319.369 0 01-2.344-2.322m1.455.309l-1.455-.309m1.455.309l-1.98-2.077m.525 1.768c-.69-.692-1.347-1.357-1.958-1.986m1.958 1.986l-.525-1.768m-3.86-4.052l.097 1.373m-.097-1.373l1.062 1.114m-1.062-1.114c-.443-.348-1.28-1.126-1.09-1.457m1.09 1.457l-1.542-.536m1.639 1.909l.965-.259m-.965.259c.271.297.563.611.873.94m-.873-.94a32.519 32.519 0 01-1.64-1.909m2.605 1.65l-.092 1.199m.092-1.199l1.327 1.393m-1.327-1.393l1.365 2.72m-1.457-1.521l1.42.194m-1.42-.194c.45.477.937.986 1.457 1.521m-.038-1.327l.038 1.327m-.038-1.327l1.471 1.545m-1.433-.218l1.433.218m-4.95-5.509l-.452.921m.453-.921l-.07-1.381m.07 1.381c.083-.145.505-.632 1.406-1.279m10.802-4.064c-.475.092-.933.187-1.374.287m1.374-.287l-2-.26m2 .26l1.682-1.554m-1.682 1.554l3.082-1.552m-3.082 1.552l.343 1.28m-12.62 2.682l1.475.102m-1.475-.102c.452-.393 1.074-.829 1.903-1.285m-1.903 1.285l2.827-.757m-1.352.859l.428-1.387m-.428 1.387c.367-.264.815-.555 1.352-.859m-.924-.528l.924.528m-.924-.528c.35-.192.738-.388 1.165-.586m-.24 1.114l.24-1.114m-.24 1.114a20.1 20.1 0 011.416-.73m-1.176-.384l1.176.384m-1.176-.384a25.71 25.71 0 011.55-.654m-.374 1.038l.374-1.038m-.374 1.038c.716-.335 1.54-.675 2.48-1.006m-2.48 1.006l1.532-1.459m-1.158.421l2.107.032m-2.107-.032c.364-.141.75-.281 1.157-.421m.95.453l.133-.807m-.133.807c.308-.108.63-.215.963-.321m-.963.321l-.95-.453m1.084-.354l.83.486m-.83-.486c.566-.176 1.17-.35 1.812-.521m-1.813.521c-.377.117-.738.235-1.082.354m1.912.132l.983-1.007m-.983 1.007a36.293 36.293 0 011.95-.557m-.967-.45l.966.45m-.966-.45a60.67 60.67 0 011.605-.401m-.639.851l.64-.851m-.64.851a42.76 42.76 0 011.266-.304m-.627-.547l.626.547m0 0l1.718.993m1.34-2.834l1.93-.849m-1.93.849l1.399.002m0 0l.531-.851m-.531.851l3.293-2.066m-3.293 2.066l4.341-2.07m-3.81 1.219l2.762-1.215m-2.762 1.215l.068-.034m0 0l3.742-1.185m-3.742 1.185l6.814-3.401m-3.072 2.216l3.072-2.216m-3.072 2.216l6.203-2.957m-3.131.741l3.131-.741m-3.131.741l1.931-.964m1.2.223l.731-1.186m-.731 1.186l3.101-1.479m-3.101 1.479l3.662-2.649m-2.931 1.463l-1.931.963m1.931-.963l2.931-1.463m-4.862 2.426l4.301-1.256m0 0l.561-1.17m-.561 1.17l2.481-1.183M97.5 151.581l1.72-.111m-1.72.111l1.504 1.696m.215-1.807l-.215 1.807m.215-1.807l1.376 3.829m-1.376-3.829l-1.41-1.344 1.195 3.151m.215-1.807l1.591 2.022m-1.806-.215l1.806.215m-1.806-.215l1.591 2.022m.215-1.807l-.215 1.807m.215-1.807l2.203 4.306m-2.203-4.306l1.591 2.022m-1.806-.215l1.806.215m-1.806-.215l2.418 2.499m-.612-2.284l.612 2.284m-.612-2.284l2.506 2.826m-1.894-.542l1.894.542m-1.894-.542l1.253 1.413m.641-.871l.612 2.284m-.612-2.284l1.297 1.576m-.685.708l1.981.869m-1.981-.869l-1.253-1.413m1.253 1.413l1.134 1.62m.847-.751l.286 2.371m-.286-2.371l1.493 1.653m-1.493-1.653l-1.296-1.577m1.582 3.948l2.699.935m-2.699-.935l1.207-.718m-1.207.718l-1.133-1.62m1.133 1.62l1.09 1.457m1.609-.522l-1.492-1.653m1.492 1.653l8.506-3.497m-8.506 3.497l.874 1.955m-.874-1.955l6.48-1.92m-6.48 1.92l9.594-1.393m-9.594 1.393l-2.629 3.243m-3.59-8.831l1.938.705m0 0l.449 2.328m12.338-.942l-.231-1.777m-2.395-18.465l.173 1.329m-.173-1.329l.84 1.394m-.667-.065l.887 1.755m-.887-1.755l.223 1.726m.664.029l-.44 1.696m.44-1.696l.219 1.69m-.219-1.69l-.22-1.69m-.22 3.386l.879 1.684m-.879-1.684l.208 1.603m-.208-1.603l-.224-1.725m1.103 3.409l-.463 1.523m.463-1.523l.22 1.69m-.22-1.69l-.22-1.69m-.243 3.213l.902 1.856m-.902-1.856l.241 1.859m-.241-1.859l-.208-1.604m1.11 3.46l-.419 1.862m.419-1.862l.242 1.859m-.242-1.859l-.219-1.689m-.2 3.551l.902 1.856m-.902-1.856l.225 1.738m-.225-1.738l-.242-1.859m1.144 3.715l-.451 1.62m.451-1.62l.209 1.606m-.209-1.606l-.241-1.859m-.21 3.479l.869 1.591m-.869-1.591l.212 1.642m-.212-1.642l-.226-1.738m1.095 3.329l-.444 1.693m.444-1.693l.208 1.605m-.208-1.605l-.209-1.605m-.235 3.298l-.213-1.642m0 0l.865 1.554m-1.303-4.934l.886 1.724m-1.353-5.321l.903 1.856m-1.352-5.319l.891 1.771m-1.323-5.099l.883 1.719m-6.285 20.92l-3.503 1.288m3.503-1.288l5.606-3.875m-5.606 3.875l-.518 2.638m6.124-6.513l3.114.527m-3.114-.527l4.442-.391M129.469 197l2.969.13m-2.969-.13l-2.252 1.529m5.221-1.399l-5.221 1.399m5.221-1.399l4.92 2.696m-4.92-2.696l6.032.32m-11.253 1.079l10.141 1.297m-10.141-1.297l-.133 6.681m.133-6.681l-5.174 4.184m15.315-2.887c.354-.801.74-1.618 1.112-2.376m-1.112 2.376c-.473 1.07-.888 2.109-1.133 2.934m-9.141 2.45l11.386-7.76m-11.386 7.76l-3.3.086m14.686-7.846c.238-.485.47-.946.684-1.361m-15.37 9.207l-.18 1.895m.18-1.895l1.403 2.87m-1.403-2.87l1.198 4.884m8.092 14.123l-.934-1.911m.934 1.911l-2.903-2.866m1.907-16.516l.594 1.24m6.539 13.636l-1.04-2.169m1.04 2.169l-2.893-3.946m-.093-13.091l1.236 2.467m6.645 13.259l-.652.175c-.322-.537-.685-1.149-1.072-1.812m1.724 1.637l6.527-1.749m-6.527 1.749l-1.622-3.238m1.622 3.238l-1.724-1.637m-3.228-20.76l1.15.373m-1.15-.373l.818 1.47m10.661 19.178l-.762-1.37m-26.267-8.176l1.583.975m-1.583-.975l1.378 2.989m.205-2.014l-.205 2.014m.205-2.014l1.663 3.402m-1.663-3.402l1.431 5.563m-1.636-3.549l1.868 1.388m-1.868-1.388l1.636 3.549m-1.636-3.549l3.681 5.099m-1.813-3.711l-.232 2.161m.232-2.161l1.813 3.711m-1.813-3.711l1.565 6.059m-1.797-3.898l2.045 1.55m-2.045-1.55l1.797 3.898m.248-2.348l-.248 2.348m.248-2.348l1.814 3.711m-1.814-3.711l1.508 6.158m-1.756-3.81l2.062 1.363m-2.062-1.363l1.756 3.81m.306-2.447l-.306 2.447m.306-2.447l1.663 3.402m-1.969-.955l1.969.955m.532-16.231l.115 1.928m-.115-1.928l1.635 3.409m-1.52-1.481l1.52 1.481m-1.52-1.481l1.616 3.553m-.096-2.072l.096 2.072m-.096-2.072l1.783 3.719m-1.783-3.719l2.011 6.281m-1.915-4.209l1.687 1.647m-1.687-1.647l1.915 4.209m-.228-2.562l.228 2.562m-.228-2.562l2.081 4.339m-1.853-1.777l1.853 1.777m-.71-12.401l.262 3.125m-.262-3.125l2.009 4.008m-2.009-4.008l1.675 5.847m-1.413-2.722l1.747.883m-1.747-.883c.427.858.908 1.781 1.413 2.722m.334-1.839l-.334 1.839m.334-1.839l1.391 2.776m-1.391-2.776l1.604 5.342m-1.938-3.503l1.725.937m-1.725-.937a174.224 174.224 0 001.938 3.503m-.213-2.566l.213 2.566m-.213-2.566l1.623 3.237m-1.623-3.237l1.521 4.838m-1.308-2.272l1.41.671m-1.41-.671c.452.796.894 1.563 1.308 2.272m.102-1.601l-.102 1.601m-2.078-20.387l-.332 1.097m.332-1.097l.813 1.49m-.813-1.49l.426 2.461m-.758-1.364l1.145.393m-1.145-.393l.758 1.364m.387-.971l-.387.971m.387-.971l.834 1.525m-.834-1.525l.5 2.566m-.887-1.595l1.221.554m-1.221-.554l.887 1.595m.334-1.041l-.334 1.041m.334-1.041l.833 1.526m-1.167-.485l1.167.485m-1.167-.485l.893 1.608m.274-1.123l-.274 1.123m.274-1.123l.951 1.741m-.951-1.741l.836 3.12m-1.11-1.997l1.225.618m-1.225-.618l1.11 1.997m.115-1.379l-.115 1.379m.115-1.379l1.15 2.103m-1.15-2.103l.975 3.339m-1.09-1.96l1.265.724m-1.265-.724l1.09 1.96m.175-1.236l-.175 1.236m.175-1.236l.9 1.647m-1.075-.411l1.075.411m-1.075-.411l1.184 2.131m-.109-1.72l.109 1.72m-.109-1.72l1.333 2.441m-1.333-2.441l1.294 3.85m-1.185-2.13l1.224.721m-1.224-.721l1.185 2.13m.039-1.409l-.039 1.409m.039-1.409l1.167 2.136m-1.167-2.136l1.065 3.395m-1.104-1.986l1.206.727m-1.206-.727l1.104 1.986m.102-1.259l-.102 1.259m.102-1.259l1 1.83m-1.102-.571l1.102.571m-1.102-.571l.927 1.667m.175-1.096l-.175 1.096m.175-1.096l.833 1.525m-1.008-.429l1.008.429m-1.008-.429l.761 1.37m.247-.941l-.247.941" stroke="#22B5FF" stroke-width=".3"/><path d="M75.062 231.269l-2.896 3.467m2.896-3.467l-.724 3.804m.724-3.804l-3.12 1.333m.224 13.882l-1.58-5.558m1.58 5.558l-2.305-1.754m2.305 1.754l.724-3.804m-5.333.296l-2.815 2.855m2.815-2.855l-.408-3.406m.408 3.406l3.028-2.05m-3.028 2.05l3.028-4.1m-3.028 4.1l-2.08-1.795m2.08 1.795l-2.448.53m2.448-.53l2.304 1.754m-2.304-1.754l5.333-.296m-8.148 3.151l.367-2.325m-.367 2.325l-.051-3.691m.051 3.691l-.615-2.01m.615 2.01l-.653-3.895m-1.02-1.571l1.204.408m-1.203-.408l1.02 1.571m-1.02-1.571l.693-.429m-.693.429l.25.816m-.25-.816l1.607-.092m-1.607.092l-2.712-2.814m2.712 2.814l.74-2.253m-.74 2.253l-2.55-.897m-2.55-.898l2.388-1.019m-2.387 1.019l5.84-.458m-5.84.458l2.55.898m11.645-4.732l-3.947 3.019m3.947-3.019l-2.126 2.048m2.126-2.048l-2.594 1.605m2.594-1.605l-3.345-.801m3.345.801l1.448 4.14m-1.448-4.14l-1.58 4.14m1.58-4.14l2.172.337m-2.172-.337l-.224-2.134m-6.466 8.579l2.142-3.63m-2.142 3.63l-1.203-.408m1.203.408l-.785.959m.785-.959l1.053-1.014m-1.053 1.014l.643-2.693m-.643 2.693l-.856-1.756m.856 1.756l-1.864.959m1.864-.959l-.119.755m2.26-4.385l-3.344 3.222m3.345-3.222l.601.204m-.601-.204l-1.5.937m1.5-.937l-.47 2.019m.47-2.019l2.422-.767m-2.422.767l1.076-.666m-1.076.666l-1.089 2.616m-2.623 2.931l1.203.408m-1.203-.408l.183-1.162m-.183 1.162l.785-.958m-.785.958l-.294-.958m.294.958l.77-2.825m-.77 2.825l1.451-1.162m-1.451 1.162l.221.723m.146-3.048l-.184 1.163m.184-1.163l.347-1.348m-.347 1.348l-.51-.837m.51.837l4.548-2.814m-4.548 2.814l-.954.408m.954-.408l-.66 1.367m.66-1.367l.404-.5m.432 3.233l.248-1.57m-.248 1.57l-.418-1.366m4.13-4.181l-.602-.204m.602.204l-1.672 1.611m1.672-1.611l-.127-1.074m.127 1.074l.751-1.618m-.75 1.618l-2.703.529m2.702-.529l-4.201 1.466m4.201-1.466l.61-.588m-5.342 4.565l4.13-4.181m-4.13 4.181l-.326-2m.326 2h1.268m-.737-2.511l-.857.511m.857-.511l1.499-.937m-1.5.937l2.53.145m-2.53-.145l-1.3 1.756m1.3-1.756l1.8-.835m-1.8.835l-.809-1.313m4.41-.357l-1.8.835m-1.729 3.55h-1.079m1.079 0l-.564 1.681m1.992-5.333l1.03 1.082m-1.03-1.082l.41 1.679m-.41-1.679l-1.442 1.785m1.442-1.785l-2.309-.376m3.339 1.458l-.62.597m.62-.597l3.436-.694m-3.436.694l2.712 5.16m-2.712-5.16l3.436 1.356m-.545-4.142l-.61.587m-.737-.486l.88-.544m0 0l2.369-3.739m-2.37 3.739l-4.983-.598m4.983.598l-5.762 1.771m5.762-1.771l-.75-2.406m-2.293 6.232l-3.21 1.014m3.21-1.014l-1.852.106m-1.358.908l.293.959m1.745-.204l-1.23 1.885m-3.77-6.27l3.453.561m-3.452-.561l2.116-.904m3.946 1.943l2.401-4.655m0 0l3.12-1.333m-3.12 1.333l-4.232 1.808m4.232-1.808l-5.01 4.177m9.803.764l-3.029 2.05m3.03-2.05h-3.03m3.03 0l-3.754 5.854m3.753-5.854l.724-3.803m-.724 3.803l-.724 3.804m-2.305-1.754l-.724 3.804m.724-3.804v-2.05m0 2.05l2.305 1.754m-2.305-3.804l3.753-3.803m-3.753 3.803l-1.154-1.505m-4.842-1.628l-.779 2.369m.78-2.369l-2.116.904m1.336 1.465l-1.336-1.465m1.336 1.465l-3.29 1.356" stroke="#22B5FF" stroke-width=".3" stroke-linecap="round" stroke-linejoin="round"/><path d="M65.985 59.48l-4.359 1.187m4.36-1.187l-2.77 2.706m2.77-2.706l-3.323-.692m-7.757 11.515l1.883-5.463m-1.883 5.463l-.887-2.757m.887 2.757l2.77-2.706m-4.544-2.808l-3.942.731m3.942-.731l1.614-3.028m-1.614 3.027l3.657.052m-3.657-.052l4.83-1.63m-4.83 1.63l-.68-2.662m.68 2.663l-2.31-.966m2.31.965l.887 2.758m-.887-2.758l4.544 2.809M49.19 65.52l1.631-1.697m-1.63 1.697l2.07-3.057m-2.07 3.057l.645-2m-.646 2l1.693-3.568m.062-1.872l.754 1.023m-.754-1.023l-.062 1.872m.062-1.872l.815.045m-.815-.045l-.262.812m.262-.812l1.371.844m-1.37-.844l-.615-3.86m.614 3.86l1.897-1.424m-1.897 1.424l-1.578-2.194M47.79 55.69l2.541.53m-2.541-.53l5.052 2.965M47.79 55.69l1.578 2.195m12.258 2.781l-4.963.218m4.963-.218l-2.915.464m2.915-.464l-3.045-.167m3.045.167l-2.285-2.57m2.285 2.57l-1.18 4.224m1.18-4.224l-3.664 2.492m3.664-2.492l1.59 1.519m-1.59-1.519l1.037-1.879m-10.21 3.338l3.833-1.752m-3.834 1.752l-.753-1.023m.754 1.023l-1.193.337m1.193-.337l1.443-.23m-1.444.23l2.068-1.841m-2.068 1.841l.302-1.93m-.301 1.93l-2.078-.28m2.078.28l-.53.551m4.363-2.303l-4.587.73m4.587-.73l.377.511m-.377-.511l-1.766-.09m1.766.09l-1.54 1.387m1.54-1.387l2.425.757m-2.425-.757l1.263.069m-1.263-.07l-2.39 1.524m-3.828.903l.753 1.023m-.753-1.023l.815-.848m-.815.848l1.192-.337m-1.192.337l.308-.954m-.308.954l2.248-1.876M50.068 62.8l1.855-.123m-1.855.123l-.232.72m1.863-2.417l-.816.849m.816-.849l1.055-.907m-1.055.907l.06-.978m-.06.978l5.34.294m-5.34-.294l-1.016-.21m1.016.21l-1.323.743m1.323-.743l.617-.179m-1.495 2.9l1.102-1.147m-1.102 1.146l.44-1.36m5.778-1.066l-.376-.512m.377.512l-2.294.364m2.293-.364l.51-.954m-.51.954l1.542-.897m-1.542.897l-2.519-1.112m2.52 1.112l-4.286-1.2m4.285 1.2l.836-.133m-6.992.688l5.78-1.067m-5.78 1.067l.877-1.827m-.877 1.827l1.04.725m.831-2.48l-.994-.072m.994.071l1.766.089m-1.766-.089l1.992 1.565m-1.992-1.565l-2.07.696m2.07-.696l1.955.345m-1.955-.345l.088-1.54m3.82 2.23l-1.953-.345m-3.449 1.922l-.884-.617m.884.617l-1.424 1.057m4.684-3.235l.226 1.476m-.226-1.476l-.624 1.612m.624-1.612l-2.204.64m2.204-.64l-1.678-1.629m1.904 3.105l-.85.136m.85-.136l3.215 1.398m-3.215-1.398l-.727 5.785m.727-5.785l2.043 3.079m1.922-3.71l-.836.134m-.326-.821l1.032.057m0 0l4.082-1.712M58.581 60.5l-3.745-3.342m3.745 3.342l-5.74-1.844m5.74 1.844l.76-2.404m-5.445 3.8l-3.213-1.004m3.213 1.005l-1.58-.973m-1.633-.032l-.307.954m1.547.831l-2.087.843m.495-7.3l2.51 2.436m-2.51-2.435l2.253.469m2.124 3.85l4.633-2.444m0 0l3.322.692m-3.322-.691l-4.505-.939m4.505.938l-6.5.56m7.605 6.235l-3.657-.051m3.657.051l-2.484-1.732m2.484 1.732l-6.427 2.655m6.427-2.655l2.77-2.705m-2.77 2.705l-2.77 2.706m-.887-2.757l-2.77 2.706m2.77-2.706l1.172-1.681m-1.172 1.68l.887 2.758m.285-4.438l5.255-.973m-5.255.973l-.086-1.895m-3.039-4.106l-1.994 1.498m1.994-1.498l-2.252-.468m.258 1.966l-.258-1.966m.258 1.966l-3.474-.77" stroke="#22B5FF" stroke-width=".5" stroke-linecap="round" stroke-linejoin="round"/><path d="M25.755 127.319l-1.475 2.494m1.475-2.494l-2.131 1.218m2.131-1.218l-.148 2.2m-8.376 2.675l3.665-.149m-3.665.149l1.534 1.07m-1.534-1.07l2.13-1.219m.938 3.359l-1.125 2.319m1.125-2.319l2.129-.438m-2.13.438l.598-2.289m-.597 2.289l1.827-2.704m-1.827 2.704l1.511.923m-1.511-.923l.193 1.621m-.193-1.621l-1.534-1.07m1.534 1.07l-.937-3.359m-.188 5.678l1.318-.698m-1.318.698l2.225-.716m-2.225.716l1.334-.027m-1.334.027l2.473-.386m1.156.313l-.496-.662m.496.662l-1.156-.313m1.156.313l.112-.516m-.112.516l-.542.011m.542-.011l-.28-1.013m.28 1.013l2.255 1.106m-2.255-1.106l1.197-.915m-1.197.915l1.07 1.395m1.072 1.394l.113-1.683m-.113 1.683L24 135.665m.945 3.704l-1.071-1.394m.406-8.162l-.987 3.052m.987-3.052l-.785 1.73m.785-1.73l-.421 1.929m.42-1.929l1.18 1.906m-1.18-1.906l-2.786-.057m2.787.057l-2.154 1.817m2.154-1.817l-.656-1.276m.656 1.276l1.327-.294m-3.797 5.738l1.731-2.061m-1.73 2.061l.496.661m-.497-.661l-.41.68m.41-.68l.39-.857m-.39.857l1.482-.944m-1.482.944l1.233.174m-1.233-.174l-.185 1.347m.185-1.347l-.427.226m2.158-2.287l-1.234 2.722m1.234-2.722l-.248-.331m.248.331l-.249 1.117m.25-1.117l-1.114.7m1.113-.7l-.046-1.653m.046 1.653l.175-.8m-.175.8L22.2 134.4m-1.21 2.217l-.497-.662m.496.662l.66-.35m-.66.35l.411-.68m-.41.68l.636-.013m-.637.013l1.534-1.05m-1.534 1.05l.395-1.134m-.395 1.134l-.48.009m1.799-.708l-.66.349m.66-.349l.736-.487m-.736.487l.608.146m-.608-.146l.738-3.383m-.738 3.383l-.046.673m.046-.673l-.682.686m.682-.686l.215-.351m-2.03.388l.89-.472m-.89.472l.907-.018m1.646-3.402l.248.33m-.248-.33l-.617 1.361m.617-1.361l.67-.139m-.67.139l.814-.793m-.814.793l.247 1.778m-.247-1.778l-.002 2.896m.002-2.896l.225-.496m-1.623 4.228l1.646-3.402m-1.646 3.402l1.268-.203m-1.268.203l-.264-.784m1.66-.052l-.128.633m.128-.633l.25-1.118m-.25 1.118l-.615-1.535m.615 1.535l-.782 1.16m.782-1.16l.125-1.283m-.125 1.283l.957.234m-.707-2.8l-.125 1.283m-1.769 1.789l.226.667m-.226-.667l-.89.689m2.783-2.313l-.864-.417m.864.417l-1.093.087m1.093-.087l-.77 1.254m.77-1.254l.708 1.352m-1.572-1.769l-.229.504m.229-.504l-.302-2.266m.302 2.266l-3.663-.632m3.663.632l-1.532-1.851m2.599-.502l-.225.496m.446.357l.143-.654m0 0l1.748-2.223m-1.748 2.223l1.4 2.961m-1.4-2.961l.14 3.923m-.14-3.923l1.6-.023M22.2 134.4l.062 2.191M22.2 134.4l.323 1.167m-.26 1.024l-.637.013m-.242-1.121l-.875 1.143m4.55 1.06L24 135.665m1.058 2.021l.1-1.491m-1.99-2.047l2.291-2.429m0 0l.148-2.2m-.148 2.2l-.2 2.984m.2-2.984L24 135.665m-2.506-5.909l-.597 2.289m.597-2.289l.633 1.874m-.633-1.874l-2.728 3.508m2.728-3.508l2.131-1.219m-2.131 1.219l-2.131 1.219m1.534 1.07l-2.131 1.219m2.13-1.219l1.23-.415m-1.23.415l-1.533-1.07m2.764.655l1.498-3.093m-1.498 3.093l1.144.409m1.989 2.664l-1.26.962m1.26-.962l-.1 1.492m-1.16-.53l1.16.53m-1.16-.53l-.125 2.31m22.431 49.17l-1.719 2.08m1.719-2.08l-.43 2.282m.43-2.282l-1.852.8m.133 8.329l-.938-3.334m.938 3.334l-1.368-1.052m1.368 1.052l.43-2.282m-3.165.177l-1.67 1.714m1.67-1.714l-.242-2.043m.242 2.043l1.797-1.229m-1.797 1.229l1.797-2.459m-1.797 2.459l-1.235-1.077m1.235 1.077l-1.453.319m1.453-.319l1.367 1.053m-1.367-1.053l3.165-.177m-4.836 1.891l.218-1.395m-.218 1.395l-.03-2.215m.03 2.215l-.365-1.206m.365 1.206l-.387-2.338m-.605-.942l.714.245m-.714-.245l.605.942m-.605-.942l.411-.257m-.411.257l.148.489m-.148-.489l.954-.055m-.954.055l-1.61-1.689m1.61 1.689l.44-1.352m-.44 1.352l-1.513-.538m-1.513-.539l1.416-.612m-1.416.612l3.465-.275m-3.465.275l1.513.539m6.911-2.84l-2.342 1.812m2.342-1.812l-1.262 1.229m1.262-1.229l-1.54.964m1.54-.964l-1.985-.48m1.985.48l.86 2.485m-.86-2.485l-.938 2.485m.938-2.485l1.29.202m-1.29-.202l-.133-1.28m-3.837 5.147l1.27-2.178m-1.27 2.178l-.714-.244m.714.244l-.466.576m.466-.576l.625-.608m-.625.608l.381-1.615m-.381 1.615l-.508-1.053m.508 1.053l-1.106.576m1.106-.576l-.07.453m1.34-2.631l-1.984 1.934m1.985-1.934l.357.123m-.357-.123l-.89.563m.89-.563l-.279 1.212m.279-1.212l1.437-.46m-1.437.46l.638-.399m-.638.399l-.646 1.57m-1.557 1.759l.714.245m-.714-.245l.109-.698m-.11.698l.467-.575m-.466.575l-.174-.575m.174.575l.458-1.695m-.458 1.695l.861-.698m-.861.698l.131.434m.087-1.829l-.11.697m.11-.697l.206-.809m-.206.809l-.303-.502m.303.502l2.7-1.689m-2.7 1.689l-.566.244m.566-.244l-.392.82m.392-.82l.24-.3m.256 1.94l.147-.943m-.147.943l-.248-.82m2.451-2.509l-.357-.122m.357.122l-.992.967m.992-.967l-.076-.644m.076.644l.446-.97m-.446.97l-1.604.318m1.604-.318l-2.493.88m2.493-.88l.362-.352m-3.17 2.738l2.451-2.508m-2.451 2.508l-.194-1.199m.194 1.199h.752m-.437-1.506l-.509.307m.509-.307l.89-.562m-.89.562l1.5.087m-1.5-.087l-.772 1.053m.772-1.053l1.068-.501m-1.068.501l-.48-.788m2.616-.214l-1.068.501m-1.026 2.13h-.64m.64 0l-.335 1.009m1.182-3.2l.611.649m-.61-.649l.243 1.007m-.244-1.007l-.855 1.071m.855-1.071l-1.37-.226m1.981.875l-.367.358m.367-.358l2.04-.416m-2.04.416l1.61 3.096m-1.61-3.096l2.04.814m-.324-2.486l-.361.353m-.438-.292l.522-.326m0 0l1.406-2.244m-1.406 2.244l-2.957-.359m2.957.359l-3.42 1.062m3.42-1.062l-.446-1.444m-1.36 3.739l-1.905.608m1.905-.608l-1.1.064m-.805.544l.174.576m1.035-.123l-.73 1.132m-2.237-3.763l2.05.337m-2.05-.337l1.256-.542m2.342 1.166l1.425-2.793m0 0l1.852-.8m-1.852.8l-2.511 1.085m2.511-1.085l-2.974 2.506m5.819.459l-1.798 1.23m1.798-1.23h-1.798m1.798 0l-2.228 3.512m2.228-3.512l.43-2.283m-.43 2.283l-.43 2.282m-1.368-1.052l-.43 2.282m.43-2.282v-1.23m0 1.23l1.368 1.052m-1.368-2.282l2.227-2.283m-2.227 2.283l-.685-.903m-2.873-.977l-.463 1.421m.463-1.421l-1.256.542m.793.879l-.793-.879m.793.879l-1.952.814m155.202-115.99l-1.719 2.08m1.719-2.08l-.43 2.282m.43-2.282l-1.852.8m.133 8.33l-.938-3.335m.938 3.334l-1.368-1.052m1.368 1.052l.43-2.282m-3.166.177l-1.67 1.714m1.67-1.714l-.242-2.043m.242 2.043l1.798-1.23m-1.798 1.23l1.798-2.46m-1.798 2.46l-1.234-1.077m1.234 1.077l-1.452.319m1.452-.319l1.368 1.053m-1.368-1.053l3.166-.177m-4.836 1.89l.218-1.394m-.218 1.395l-.03-2.215m.03 2.215l-.365-1.206m.365 1.206l-.387-2.338m-.606-.942l.715.245m-.715-.245l.606.942m-.606-.942l.412-.257m-.412.257l.149.49m-.149-.49l.954-.055m-.954.055l-1.609-1.689m1.609 1.689l.44-1.352m-.44 1.352l-1.513-.538m-1.513-.539l1.417-.612m-1.417.612l3.466-.275m-3.466.275l1.513.539m6.912-2.84l-2.342 1.812m2.342-1.811l-1.262 1.228m1.262-1.228l-1.539.963m1.539-.963l-1.985-.481m1.985.48l.859 2.485m-.859-2.484l-.938 2.484m.938-2.484l1.289.201m-1.289-.201l-.133-1.28m-3.837 5.146l1.271-2.178m-1.271 2.178l-.714-.244m.714.244l-.466.576m.466-.576l.625-.608m-.625.608l.381-1.615m-.381 1.615l-.509-1.053m.509 1.053l-1.106.576m1.106-.576l-.071.453m1.342-2.63l-1.985 1.933m1.985-1.934l.357.123m-.357-.123l-.89.563m.89-.563l-.279 1.212m.279-1.212l1.437-.46m-1.437.46l.638-.4m-.638.4l-.646 1.57m-1.557 1.759l.714.245m-.714-.245l.109-.698m-.109.698l.466-.575m-.466.575l-.174-.575m.174.575l.457-1.695m-.457 1.695l.861-.698m-.861.698l.131.434m.087-1.83l-.109.698m.109-.697l.205-.809m-.205.809l-.303-.502m.303.502l2.699-1.689m-2.699 1.689l-.566.244m.566-.244l-.392.82m.392-.82l.239-.3m.257 1.94l.147-.943m-.147.943l-.248-.82m2.451-2.509l-.357-.122m.357.122l-.993.967m.993-.967l-.076-.644m.076.644l.446-.97m-.446.97l-1.604.318m1.604-.318l-2.494.88m2.494-.88l.362-.352m-3.17 2.738l2.451-2.508m-2.451 2.508l-.194-1.2m.194 1.2h.752m-.438-1.506l-.508.307m.508-.307l.89-.562m-.89.562l1.501.087m-1.501-.087l-.771 1.053m.771-1.053l1.069-.501m-1.069.501l-.48-.788m2.617-.214l-1.068.5m-1.026 2.13h-.64m.64 0l-.335 1.01m1.182-3.2l.611.649m-.611-.65l.244 1.008m-.244-1.007l-.856 1.07m.856-1.07l-1.37-.226m1.981.875l-.367.358m.367-.358l2.04-.416m-2.04.416l1.61 3.096m-1.61-3.096l2.04.814m-.324-2.486l-.361.353m-.438-.292l.522-.326m0 0l1.406-2.244m-1.406 2.244l-2.958-.36m2.958.36l-3.42 1.062m3.42-1.062l-.446-1.444m-1.36 3.739l-1.905.608m1.905-.608l-1.1.064m-.805.544l.174.576m1.035-.123l-.73 1.132m-2.237-3.763l2.049.337m-2.049-.337l1.256-.542m2.342 1.166l1.425-2.793m0 0l1.852-.8m-1.852.8l-2.512 1.085m2.512-1.085L186.2 80.18m5.818.459l-1.797 1.23m1.797-1.23h-1.797m1.797 0l-2.227 3.512m2.227-3.512l.43-2.282m-.43 2.282l-.429 2.282m-1.368-1.052l-.43 2.282m.43-2.282v-1.23m0 1.23l1.368 1.052m-1.368-2.282l2.227-2.282m-2.227 2.282l-.685-.903m-2.874-.977l-.462 1.421m.462-1.421l-1.255.542m.793.88l-.793-.88m.793.88l-1.953.813M79.272 8.622l-1.719 2.08m1.719-2.08l-.43 2.282m.43-2.282l-1.852.8m.133 8.329l-.938-3.335m.938 3.335l-1.368-1.053m1.368 1.053l.43-2.282m-3.166.177l-1.67 1.713m1.67-1.713l-.242-2.044m.242 2.044l1.798-1.23m-1.798 1.23l1.798-2.46m-1.798 2.46l-1.234-1.077m1.234 1.077l-1.452.318m1.452-.318l1.368 1.052m-1.368-1.052l3.166-.177m-4.836 1.89l.218-1.395m-.218 1.395l-.03-2.215m.03 2.215l-.365-1.206m.365 1.206l-.387-2.337m-.606-.942l.715.244m-.715-.244l.606.942m-.606-.942l.412-.258m-.412.258l.149.49m-.148-.49l.953-.056m-.954.056l-1.609-1.69m1.61 1.69l.44-1.352m-.44 1.352l-1.514-.539m-1.513-.538l1.417-.612m-1.417.612l3.466-.275m-3.466.275l1.513.538m6.912-2.839l-2.342 1.811m2.342-1.81l-1.262 1.228m1.262-1.229l-1.54.963m1.54-.963l-1.985-.48m1.985.48l.86 2.484m-.86-2.484l-.938 2.484m.938-2.484l1.29.202m-1.29-.202l-.133-1.28m-3.837 5.147l1.27-2.178m-1.27 2.178l-.714-.245m.714.245l-.466.575m.466-.575l.625-.609m-.625.61l.381-1.617m-.381 1.616l-.509-1.053m.509 1.053l-1.106.575m1.106-.575l-.07.453m1.34-2.631l-1.984 1.933m1.985-1.933l.357.122m-.357-.122l-.89.562m.89-.562l-.279 1.211m.279-1.211l1.437-.46m-1.437.46l.638-.4m-.638.4l-.646 1.57m-1.557 1.758l.714.245m-.714-.245l.109-.697m-.11.697l.467-.575m-.466.575l-.174-.575m.174.575l.457-1.695m-.457 1.696l.861-.698m-.861.697l.131.434m.087-1.829l-.11.698m.11-.698l.205-.808m-.205.808l-.303-.502m.303.502l2.699-1.688m-2.7 1.688l-.565.245m.566-.245l-.392.82m.392-.82l.24-.3m.256 1.94l.147-.942m-.147.942l-.248-.82m2.45-2.508l-.356-.123m.357.123l-.993.966m.993-.966l-.076-.644m.076.644l.446-.97m-.446.97l-1.604.317m1.604-.317l-2.494.88m2.494-.88l.362-.353m-3.17 2.739l2.45-2.509m-2.45 2.509l-.194-1.2m.194 1.2h.752m-.438-1.506l-.508.306m.508-.306l.89-.563m-.89.563l1.501.086m-1.5-.086l-.772 1.053m.771-1.053l1.069-.502m-1.069.502l-.48-.788m2.617-.215l-1.068.502m-1.026 2.13h-.64m.64 0l-.335 1.008m1.182-3.2l.611.65m-.61-.65l.243 1.008m-.244-1.008l-.856 1.071m.856-1.07l-1.37-.226m1.981.874l-.367.358m.367-.358l2.04-.416m-2.04.416l1.61 3.096m-1.61-3.096l2.04.814m-.324-2.485l-.361.352m-.438-.291l.522-.327m0 0l1.406-2.243m-1.406 2.243l-2.957-.359m2.957.36l-3.42 1.062m3.42-1.063l-.446-1.443m-1.36 3.739l-1.905.608m1.905-.609l-1.1.064m-.805.545l.174.575m1.035-.122l-.73 1.131m-2.237-3.762l2.05.337m-2.05-.337l1.256-.542m2.342 1.165l1.425-2.792m0 0l1.852-.8m-1.852.8l-2.511 1.084m2.51-1.084l-2.973 2.506m5.818.458l-1.797 1.23m1.797-1.23h-1.797m1.797 0l-2.227 3.512m2.227-3.512l.43-2.282m-.43 2.282l-.43 2.283m-1.367-1.053l-.43 2.282m.43-2.282v-1.23m0 1.23l1.368 1.053m-1.368-2.283l2.227-2.282m-2.227 2.282l-.685-.903m-2.874-.977l-.462 1.422m.463-1.422l-1.256.543m.793.879l-.793-.88m.793.88l-1.953.813M1 71.16l2.137 1.648M1 71.16l2.295.352M1 71.16l.861 1.824m8.32-.413l-3.3 1.05m3.3-1.05l-1.006 1.402m1.006-1.402l-2.295-.353m.284 3.158l1.768 1.612M8.17 75.376l-2.035.31m2.035-.31L6.88 73.62m1.29 1.756l-2.52-1.714m2.52 1.714l-1.035 1.27m1.035-1.27l.366 1.44m-.366-1.44l1.005-1.403M8.17 75.376l-.284-3.158m2.052 4.77l-1.402-.171m1.402.17l-2.213.105m2.213-.104l-1.193.405m1.193-.405l-2.323.465m-.921.637l.22-.722m-.22.722l.92-.637m-.92.637l-.272-.403m.272.403l.484-.165m-.484.165l-.088-.952m.088.952L5.06 79.755m1.634-1.665l-1.366-.394m1.365.394l-.487 1.53m-.487 1.53l-.66-1.395m.66 1.395l-.391-3.454m.39 3.454l.488-1.53m-3.07-6.812l1.89 2.28m-1.89-2.28l1.271 1.22m-1.27-1.22l1.014 1.506m-1.014-1.506l-.414 2m.414-2l2.454-.943m-2.454.943l2.514.854m-2.514-.854l.158-1.296m-.158 1.296l-1.276.176m5.274 3.662l-2.22-1.197m2.22 1.197l-.22.722m.22-.722l.59.446m-.59-.446l-.63-.604m.63.604l-1.628-.327m1.628.327l-1.036.543m1.036-.543l.612 1.086m-.612-1.086l.455.055M4.915 75.45l2 1.919m-2-1.92l.11-.36m-.11.36l.592.87m-.592-.87l1.22.238m-1.22-.237l-.508-1.422m.508 1.422l-.42-.625m.42.625l1.59.593m1.81 1.497l.221-.722m-.22.722l-.701-.086m.7.086l-.59-.447m.59.447l-.568.193m.569-.193l-1.71-.4m1.71.4l-.726-.84m.726.838l.429-.146m-1.83-.025l.7.085m-.7-.085l-.816-.179m.815.179l-.492.319m.492-.32l-1.778-2.64m1.778 2.64l.264.558m-.264-.557l.833.364m-.833-.364l-.308-.23m1.93-.321L7.59 76.7m.946.116l-.81.275m-2.59-2.365l-.11.36m.11-.36l1 .96m-1-.96l-.642.097m.642-.097l-.985-.413m.985.413l.371 1.592m-.371-1.592l.963 2.462m-.963-2.462l-.365-.35m2.844 3.076l-2.59-2.365m2.59 2.365l-1.193.234m1.193-.234L7.59 76.7m-1.491.488l.323.498m-.323-.498l-.592-.87m.592.87l.036-1.503M6.1 77.19l1.079.736M6.1 77.19l-.537-1.05m.537 1.05l-.771.507m-.303-2.608l.537 1.05m2.163.954l.022.64m-.022-.64l1.02.3M5.507 76.32l.628-.633m-.628.633l.998-.277m-.998.277l1.1.82m-1.1-.82l-.18 1.377m.808-2.01l.37.356m-.37-.356l-.484-2.024m.484 2.024l3.04-1.713m-3.04 1.713l.745-2.066m-2.473.407l.364.35m-.277.447l-.343-.51m0 0l-2.29-1.33m2.29 1.33l-.26 2.967m.26-2.967l1.177 3.382M4.15 74.314l-1.428.494m3.782 1.234l.673 1.883m-.673-1.883l.101 1.096m.572.787l.569-.193m-.157-1.03l1.155.69M5.06 79.756l.268-2.06m-.268 2.06l-.584-1.237m1.086-2.38l-2.839-1.33m0 0l-.862-1.824m.862 1.824l1.168 2.473m-1.168-2.473l2.605 2.888m.263-5.83l1.29 1.754m-1.29-1.755l.06 1.797m-.06-1.797l3.584 2.108m-3.584-2.108l-2.296-.353m2.296.353l2.295.353M6.88 73.62l2.295.353M6.88 73.62l-1.23.042m1.23-.042l1.006-1.402m-2.235 1.444l-2.356-2.15m2.356 2.15l-.88.715m-.88 2.904l1.437.415M3.89 77.28l.585 1.237m.852-.822l-.852.822m.852-.822l.878 1.924M5.75 244.962l3.464 2.9m-3.465-2.9l3.804.728m-3.804-.728l1.33 3.122m13.883-.21l-5.56 1.575m5.56-1.575l-1.757 2.303m1.757-2.303l-3.803-.728m.29 5.334l2.853 2.817m-2.853-2.817l-3.407.404m3.407-.404l-2.047-3.031m2.047 3.031l-4.097-3.033m4.097 3.033l-1.797 2.078m1.797-2.078l.528 2.448m-.528-2.448l1.756-2.303m-1.756 2.303l-.29-5.334m3.143 8.151l-2.325-.369m2.325.369l-3.692.047m3.692-.047l-2.011.613m2.01-.613l-3.896.649m-1.571 1.018l.409-1.203m-.41 1.203l1.572-1.018m-1.571 1.018l-.428-.694m.428.694l.816-.249m-.816.249l-.09-1.607m.09 1.607l-2.817 2.709m2.817-2.709l-2.252-.743m2.252.743l-.9 2.549m-.9 2.548l-1.017-2.388m1.017 2.388l-.452-5.84m.452 5.84l.9-2.548m-4.72-11.651l3.014 3.95m-3.014-3.95l2.046 2.128m-2.046-2.128l1.602 2.595m-1.602-2.595l-.805 3.344m.805-3.344l4.141-1.444m-4.141 1.444l4.138 1.585m-4.138-1.585l.339-2.172m-.34 2.172l-2.134.222m8.573 6.474l-3.628-2.145m3.628 2.145l-.409 1.203m.41-1.203l.957.786m-.958-.786l-1.013-1.054m1.013 1.054l-2.692-.645m2.692.645l-1.756.855m1.756-.855l.957 1.865m-.957-1.865l.755.12m-4.383-2.265l3.219 3.348m-3.22-3.348l.205-.601m-.204.601l.936 1.5m-.936-1.5l2.019.471m-2.02-.471l-.763-2.423m.764 2.423l-.665-1.076m.665 1.076l2.615 1.091m2.929 2.627l.409-1.203m-.41 1.203l-1.162-.185m1.163.185l-.958-.787m.958.787l-.96.292m.96-.292l-2.825-.774m2.825.774l-1.161-1.453m1.16 1.453l.724-.221m-3.048-.149l1.162.185m-1.162-.185l-1.347-.348m1.347.348l-.838.509m.838-.509l-2.81-4.551m2.81 4.551l.407.954m-.407-.954l1.366.662m-1.366-.662l-.5-.404m3.234-.429l-1.57-.25m1.57.25l-1.367.416m-4.177-4.134l-.205.602m.205-.602l1.61 1.674m-1.61-1.674l-1.074.127m1.074-.127l-1.617-.753m1.617.753l.527 2.703m-.527-2.703l1.463 4.203m-1.463-4.203l-.587-.61m4.56 5.346l-4.178-4.134m4.177 4.134l-2 .324m2-.324l.002-1.268m-2.511.735l.51.857m-.51-.857l-.936-1.5m.936 1.5l.146-2.529m-.146 2.529l1.754 1.302m-1.754-1.302l-.834-1.801m.834 1.801l-1.314.808m-.354-4.409l.834 1.8m3.548 1.732l-.001 1.079m0-1.079l1.682.566m-5.331-1.997l1.082-1.029m-1.082 1.029l1.679-.409m-1.68.409l1.784 1.444m-1.783-1.444l-.378 2.308m1.46-3.337l.597.62m-.596-.62l-.69-3.437m.69 3.437l5.162-2.707m-5.162 2.707l1.36-3.435m-4.143.541l.586.61m-.487.737l-.543-.88m0 0l-3.737-2.373m3.737 2.373l-.603 4.983m.603-4.983l1.766 5.764m-1.766-5.764l-2.407.749m6.23 2.298l1.011 3.211m-1.011-3.211l.104 1.853m.907 1.358l.959-.292m-.202-1.745l1.884 1.232m-6.274 3.763l.565-3.452m-.565 3.452l-.902-2.117m1.947-3.944l-4.653-2.406m0 0l-1.33-3.122m1.33 3.122l1.804 4.234m-1.804-4.234l4.173 5.015m.773-9.803l2.047 3.031m-2.046-3.031l-.004 3.029m.003-3.029l5.85 3.759m-5.85-3.759l-3.802-.728m3.802.728l3.804.728m-1.757 2.303l3.803.728m-3.803-.728l-2.05-.002m2.05.002l1.757-2.303m-3.806 2.301l-3.8-3.757m3.8 3.757l-1.507 1.153m-1.633 4.84l2.369.781m-2.369-.781l.902 2.116m1.467-1.335l-1.467 1.335m1.467-1.335l1.352 3.292" stroke="#22B5FF" stroke-width=".3" stroke-linecap="round" stroke-linejoin="round"/></svg>